<svg id="Layer_1" data-name="Layer 1" xmlns="http://www.w3.org/2000/svg" viewBox="0 0 1000 389.72"><defs><style>.cls-1{fill:#bfd6e5;}.cls-2{fill:#103362;}</style></defs><rect class="cls-1" width="123.42" height="389.72"/><path class="cls-2" d="M632.26,227c7.86-4.57,16-8.67,23.49-13.84,17.41-12.1,29.13-28.32,33.69-49.34a121.91,121.91,0,0,0,1.08-44.45C686,89.41,670.16,67.72,642.8,54.61c-22.92-11-47.49-15-72.53-15.44-39.85-.67-79.71-.3-119.56-.48-2.87,0-3.22,1.13-3.22,3.54q.08,162.08,0,324.15c0,2.71.69,3.55,3.51,3.54,23.83-.12,47.66-.07,71.49-.08,1,0,2.1-.11,3.46-.19V243.15c9.14,0,17.95.15,26.75-.08,2.95-.08,4.37.93,5.72,3.46q32.1,60.24,64.35,120.41c1.11,2.08,2.29,3,4.8,3,27.14-.11,54.27-.07,81.41-.08,1,0,1.93-.09,3.49-.16l-84-140.82C630,228.13,631.15,227.63,632.26,227Zm-22.42-71.1c-3.75,17.61-15,27.75-32.25,31.44a82.17,82.17,0,0,1-15.15,1.81c-11.41.28-22.82.12-34.23.12-.69,0-1.37-.06-2.25-.11V93.86c12.78,0,25.37-.23,37.95.08a66.34,66.34,0,0,1,23.64,5c13.69,5.59,21.07,16,23.14,30.38A75.27,75.27,0,0,1,609.84,155.89Z"/><path class="cls-2" d="M291.32,38.69c-2.7,0-3.49.93-4,3.41C283.94,58.05,280.39,74,276.9,89.88q-21.84,99.62-43.67,199.23c-1.37,6.23-2.77,12.44-4.16,18.66A6.5,6.5,0,0,1,227.8,305Q197.1,173.42,166.45,41.81c-.57-2.45-1.54-3.12-4-3.11-25.23,0-50.47,0-75.71-.07H83.17c.35,1.44.51,2.22.73,3q20.64,71.49,41.3,143,26.29,91,52.53,182.09c.71,2.48,1.7,3.23,4.25,3.22q45.22-.14,90.44,0c2.85,0,3.89-.84,4.65-3.55q44.26-159.48,88.7-318.91c.77-2.74,1.45-5.51,2.24-8.54-1.42-.07-2.4-.16-3.38-.16C340.19,38.75,315.75,38.8,291.32,38.69Z"/><path class="cls-2" d="M992,94.3c2.72-18.69,5.36-36.88,8-55.23H797.24V369.65H999.79v-56H875.59V228.68H977V174.05H875.53V94.3Z"/></svg>