<?xml version="1.0" encoding="utf-8"?>
<!-- Generator: Adobe Illustrator 25.4.1, SVG Export Plug-In . SVG Version: 6.00 Build 0)  -->
<svg version="1.1" id="Layer_1" xmlns="http://www.w3.org/2000/svg" xmlns:xlink="http://www.w3.org/1999/xlink" x="0px" y="0px"
	 viewBox="0 0 1000 197.4" style="enable-background:new 0 0 1000 197.4;" xml:space="preserve">
<style type="text/css">
	.st0{fill:#CCCCCC;}
	.st1{fill:#FFFFFF;}
</style>
<rect y="0.2" class="st0" width="62.4" height="197"/>
<g>
	<path class="st1" d="M319.7,114.9c4-2.3,8.1-4.4,11.9-7c8.8-6.1,14.7-14.3,17-24.9c1.6-7.5,1.7-15,0.5-22.5
		c-2.3-15.1-10.3-26.1-24.1-32.7c-11.6-5.6-24-7.6-36.7-7.8c-20.1-0.3-40.3-0.2-60.4-0.2c-1.4,0-1.6,0.6-1.6,1.8
		c0,54.6,0,109.3,0,163.9c0,1.4,0.3,1.8,1.8,1.8c12-0.1,24.1,0,36.1,0c0.5,0,1.1-0.1,1.7-0.1c0-21.4,0-42.7,0-64
		c4.6,0,9.1,0.1,13.5,0c1.5,0,2.2,0.5,2.9,1.8c10.8,20.3,21.7,40.6,32.5,60.9c0.6,1.1,1.2,1.5,2.4,1.5c13.7-0.1,27.4,0,41.2,0
		c0.5,0,1,0,1.8-0.1c-14.2-23.9-28.3-47.5-42.5-71.2C318.5,115.5,319.1,115.2,319.7,114.9z M308.3,79c-1.9,8.9-7.6,14-16.3,15.9
		c-2.5,0.5-5.1,0.9-7.7,0.9c-5.8,0.1-11.5,0.1-17.3,0.1c-0.3,0-0.7,0-1.1-0.1c0-16.1,0-32.1,0-48.2c6.5,0,12.8-0.1,19.2,0
		c4.1,0.1,8.1,1,12,2.5c6.9,2.8,10.7,8.1,11.7,15.4C309.4,70,309.3,74.5,308.3,79z"/>
	<path class="st1" d="M147.3,19.7c-1.4,0-1.8,0.5-2,1.7c-1.7,8.1-3.5,16.1-5.3,24.2c-7.4,33.6-14.7,67.2-22.1,100.7
		c-0.7,3.1-1.4,6.3-2.1,9.4c-0.4-0.5-0.5-0.9-0.6-1.4c-10.4-44.4-20.7-88.7-31-133.1c-0.3-1.2-0.8-1.6-2-1.6c-12.8,0-25.5,0-38.3,0
		c-0.5,0-1.1,0-1.8,0c0.2,0.7,0.3,1.1,0.4,1.5c7,24.1,13.9,48.2,20.9,72.3c8.9,30.7,17.7,61.4,26.6,92.1c0.4,1.3,0.9,1.6,2.1,1.6
		c15.2,0,30.5-0.1,45.7,0c1.4,0,2-0.4,2.3-1.8C155,131.6,170,77.9,184.9,24.2c0.4-1.4,0.7-2.8,1.1-4.3c-0.7,0-1.2-0.1-1.7-0.1
		C172,19.7,159.6,19.8,147.3,19.7z"/>
	<path class="st1" d="M501.5,47.8c1.4-9.4,2.7-18.6,4.1-27.9c-34.3,0-68.4,0-102.5,0c0,55.8,0,111.4,0,167.1c34.2,0,68.3,0,102.4,0
		c0-9.5,0-18.8,0-28.3c-21,0-41.8,0-62.8,0c0-14.4,0-28.6,0-42.9c17.2,0,34.2,0,51.3,0c0-9.3,0-18.3,0-27.6c-17.1,0-34.1,0-51.3,0
		c0-13.5,0-26.8,0-40.3C462.3,47.8,481.9,47.8,501.5,47.8z"/>
	<path class="st1" d="M588.8,102.5c4.8-2.5,7.6-6.2,7.8-11.8c0.2-6.6-2.3-11.6-8.7-13.9c-2.3-0.8-4.9-1.5-7.4-1.6
		c-6.5-0.3-13.1-0.2-19.6-0.3c-0.3,0-0.6,0.1-0.8,0.2c0,16.5,0,32.8,0,49.3c3.9,0,7.6,0,11.6,0c0-6.4,0-12.6,0-18.9
		c1,0,1.9,0.1,2.7,0c1.4-0.2,2.1,0.4,2.8,1.7c2.8,5.4,5.7,10.8,8.7,16.2c0.3,0.5,1,1.1,1.5,1.1c3.7,0.1,7.5,0,11.2,0
		c0.2,0,0.4-0.1,0.8-0.2c-4.2-7-8.2-13.8-12.4-20.8C587.8,103.1,588.3,102.8,588.8,102.5z M579.1,97.2c-2.3,0.3-4.7,0.1-7.2,0.1
		c0-4.6,0-9.3,0-14.4c2.6,0.2,5,0.1,7.4,0.5c3.6,0.5,5.4,2.9,5.4,6.7C584.6,94.2,582.8,96.8,579.1,97.2z"/>
	<path class="st1" d="M568.5,60.5c0.1,0.5,0.7,1.2,1.1,1.2c4.5,0.1,9.1,0.1,13.7,0.1c4.6-16.5,9.2-32.9,13.7-49.4
		c-4.1,0-7.9,0-11.9,0c-2.9,13.3-5.8,26.6-8.7,39.9c-0.1,0-0.2,0-0.2,0c-0.1-0.4-0.3-0.8-0.4-1.3c-1-4.4-2.1-8.9-3.1-13.3
		c-1.9-8-3.7-15.9-5.6-23.9c-0.1-0.5-0.6-1.4-1-1.4c-3.8-0.1-7.7-0.1-11.6-0.1c0.2,0.7,0.3,1.2,0.5,1.7c2.1,7.2,4.1,14.4,6.2,21.6
		C563.6,43.9,566,52.2,568.5,60.5z"/>
	<path class="st1" d="M589.1,145.9c0.4-2.7,0.8-5.4,1.2-8.2c-10.2,0-20.2,0-30.2,0c0,16.5,0,32.9,0,49.3c10.1,0,20.1,0,30.1,0
		c0-2.8,0-5.5,0-8.3c-6.2,0-12.3,0-18.4,0c0-4.3,0-8.5,0-12.8c5.1,0,10,0,15,0c0-2.7,0-5.3,0-8.1c-5.1,0-10,0-15.1,0
		c0-4,0-7.9,0-11.9C577.6,145.9,583.3,145.9,589.1,145.9z"/>
	<path class="st1" d="M877.4,158.4c-0.1-5.1-3.6-9-8.3-9.6c-3.7-0.5-7.2,0.4-9.9,3.1c-1.1,1-2,2.2-3.2,3.4c-1.8-4.5-5-6.7-9.7-6.6
		c-4.6,0.1-7.8,2.5-10.7,6.3c-0.2-1.8-0.3-3.1-0.5-4.4c-0.1-0.4-0.5-1-0.8-1c-1.6-0.1-3.2,0-4.8,0c0,12.7,0,25.1,0,37.6
		c1.7,0,3.3-0.1,4.8,0c1.3,0.1,1.6-0.3,1.6-1.6c-0.1-7.9,0-15.9,0-23.8c0-0.7,0.1-1.5,0.4-2c0.9-1.4,2-2.7,3.1-3.9
		c2.1-2.1,4.7-2.7,7.4-1.7c2.6,0.9,3.1,3.3,3.2,5.7c0.1,8.4,0.1,16.8,0.1,25.2c0,0.6,0,1.3,0,2c2.2,0,4.2,0,6.5,0c0-0.7,0-1.2,0-1.8
		c0-7.5,0-15,0-22.5c0-3.6,3.4-8,7-8.9c3.9-1,6.5,0.7,7.1,4.7c0.2,1.1,0.2,2.2,0.2,3.3c0,7.7,0,15.5,0,23.2c0,0.6,0,1.2,0,1.9
		c2.2,0,4.2,0,6.4,0c0-2.9,0-5.7,0-8.4C877.5,171.9,877.6,165.1,877.4,158.4z"/>
	<path class="st1" d="M837.5,124.4c1.4,0.1,1.8-0.4,1.8-1.8c-0.1-7.8,0-15.7,0-23.5c0-0.6-0.1-1.2,0.2-1.6c1.8-2.9,3.9-5.5,7.4-6.3
		c4.8-1.1,7.6,1.1,8,6c0.1,0.7,0,1.3,0,2c0,7.7,0,15.5,0,23.2c0,0.6,0,1.2,0,1.9c2.2,0,4.2,0,6.4,0c0-1.8,0-3.5,0-5.1
		c0-7.7,0.1-15.5-0.1-23.2c-0.1-5.2-3.6-9.1-8.4-9.8c-4.8-0.7-9,0.7-12.3,4.4c-0.3,0.4-0.7,0.7-1.3,1.5c0-7.3,0-14.1,0-21
		c-2.3,0.3-4.3,0.5-6.3,0.7c0,17.7,0,35.1,0,52.7C834.5,124.4,836,124.3,837.5,124.4z"/>
	<path class="st1" d="M747.7,39c-2.2,0.1-4.5,0.1-6.7,0.4c-7.9,1.1-11.9,6.1-11.3,13.6c0.4,4.3,3.2,7.9,7.4,9
		c6.1,1.6,11.4,0.5,15.7-5c1.2,3.7,3.7,5.2,7.2,5.6c0.2-0.4,0.3-0.8,0.5-1.2c0.3-1,0.7-2.1,1-3.1c-2.8-1.9-3-2.4-3-5.8
		c0-5.7,0.1-11.4,0-17.2c-0.1-7.2-3.8-11.2-11-11.8c-2.9-0.2-5.8,0.2-8.7,0.6c-2.2,0.3-4.2,1.1-6.5,1.7c0.6,1.8,1.1,3.2,1.7,4.8
		c0.7-0.2,1.3-0.4,1.9-0.5c3.2-0.5,6.4-1.1,9.6-1.3c2.3-0.1,4.4,0.7,5.6,2.9c1.2,2.3,1,4.7,0.9,7.3C750.5,38.9,749.1,38.9,747.7,39z
		 M752,51.4c-0.1,0.9-0.8,1.8-1.4,2.6c-2.5,3.2-5.8,4.4-9.8,3.5c-1.9-0.4-3.1-1.6-3.8-3.4c-1.8-5,0.6-9.6,5.9-10.5
		c2.9-0.5,5.9-0.4,9.1-0.6C752.1,46.1,752.2,48.8,752,51.4z"/>
	<path class="st1" d="M757.1,148.8c-6.7-1-13,1.6-16.4,7.1c-2.4,3.9-3.1,8.2-3.2,12.6c0.2,1.8,0.3,3.6,0.6,5.4
		c1.4,8.6,7.3,13.7,15.9,14c7.3,0.2,13-3.5,15.5-10.4c2.2-5.9,2.2-11.9,0.3-17.9C767.9,153.6,763.7,149.8,757.1,148.8z M762.9,176.7
		c-1.3,4.1-4.3,6.1-8.5,6.1c-4.3,0-7.3-1.9-8.6-6c-0.8-2.7-1.1-5.6-1.6-8.5c0.6-2.9,0.8-5.7,1.7-8.5c1.3-4,4.4-5.9,8.6-5.9
		c4.1,0,7.1,2,8.4,6C764.7,165.4,764.7,171.1,762.9,176.7z"/>
	<path class="st1" d="M745.1,120.2c0.1-0.1,0.3-0.2,0.5-0.5c1.2,3.6,3.7,5.1,7.3,5.5c0.5-1.5,1-2.9,1.4-4.4c-2.5-1-3.1-2.9-3.1-5.3
		c0-5.7,0.1-11.4,0-17.2c-0.1-6.5-2.9-10.5-8.3-11.8c-1.4-0.3-2.9-0.5-4.4-0.5c-4.6-0.1-9,0.8-13.4,2.5c0.5,1.6,1,3,1.6,4.6
		c0.7-0.2,1.4-0.4,2-0.5c3.1-0.5,6.2-1.3,9.3-1.3c4.1,0,6.4,2.1,6.7,5.8c0.1,1.4,0,2.8,0,4.5c-2.5,0-4.8-0.1-7.1,0
		c-3.3,0.1-6.5,0.6-9.5,2.3c-4.3,2.4-5.9,6.2-5.7,10.9c0.3,4.6,2.4,8,6.8,9.7C733.9,126.2,741.2,125.7,745.1,120.2z M738.7,120
		c-1.3,0.4-2.8,0.5-4.2,0.3c-3.5-0.4-5.5-3.2-5.2-7.3c0.3-3.5,2.1-5.9,5.6-6.6c3.1-0.6,6.4-0.6,9.9-0.9c0,3.2,0.5,6.1-0.1,8.8
		C744,117.2,741.6,119.1,738.7,120z"/>
	<path class="st1" d="M623.6,125.1c3.8-0.4,7.2-2,10.3-4.5c-1-1.3-1.8-2.5-2.7-3.7c-4.9,2.9-9.9,4.9-15.2,1.6
		c-3.8-2.3-4.5-6.3-4.8-10.6c8.1,0,16,0,23.9,0c0.6-3.3,0.2-8.3-0.9-11.6c-2-6.1-6.4-9.8-12.2-10.2c-7.2-0.5-12.2,2.2-15.2,8.2
		c-2.5,5-2.8,10.4-2.2,15.8c0.4,3.2,1.3,6.2,3.2,8.9C611.7,124.5,617.3,125.8,623.6,125.1z M614.7,93c2.4-2.3,5.4-2.4,8.4-1.4
		c1.4,0.5,2.8,1.6,3.8,2.8c1.9,2.5,2.1,5.5,2.1,8.6c-6,0-11.7,0-17.7,0C611.4,99.3,611.9,95.7,614.7,93z"/>
	<path class="st1" d="M694.1,118.5c-3.9-2.3-4.6-6.4-5-10.6c8,0,15.9,0,23.9,0c0.5-3.8,0.3-7.3-0.7-10.7c-1.5-5.4-4.6-9.5-10.4-10.7
		c-6-1.3-11.3-0.1-15.3,4.8c-2,2.4-3.2,5.3-3.8,8.3c-0.9,4.4-1,8.8,0.1,13.2c2.2,8.8,9,13.5,18.8,12.2c3.8-0.5,7.1-2,10.1-4.5
		c-1-1.3-1.9-2.5-2.7-3.7C704.3,119.7,699.4,121.7,694.1,118.5z M692.5,93.2c3.5-3.6,10.4-2.5,12.8,1.9c1.3,2.4,1.6,5.1,1.5,7.9
		c-6,0-11.7,0-17.7,0C689.4,99.4,689.8,95.9,692.5,93.2z"/>
	<path class="st1" d="M908.8,148.7c-7-0.9-12.5,2.2-15.6,8.8c-2.3,4.9-2.6,10-2.1,15.3c1,9.2,7,14.9,16.1,15.1
		c5,0.1,9.4-1.5,13.4-4.7c-0.9-1.3-1.8-2.5-2.8-3.8c-4.2,2.7-8.5,4.2-13.3,2.6c-4.1-1.4-6.8-6-6.6-11.6c3.9,0,7.9,0,11.8,0
		c4,0,8,0,12,0c0.6-3.2,0.3-6.3-0.3-9.3C920.1,154,915.6,149.6,908.8,148.7z M897.4,165.6c0.8-2.7,1.2-5.2,2.2-7.6
		c1.4-3.2,4.1-4.4,7.5-4.3c3.3,0.1,6,1.5,7.1,4.7c0.8,2.2,1.1,4.6,1.7,7.2C909.7,165.6,903.9,165.6,897.4,165.6z"/>
	<path class="st1" d="M803.4,148.7c-4.7-0.2-8.5,1.6-11.5,5.1c-0.3,0.3-0.6,0.6-1,1.1c-0.2-1.6-0.2-2.9-0.5-4.2
		c-0.1-0.4-0.5-1.1-0.8-1.1c-1.5-0.1-3.1-0.1-4.7-0.1c0,12.6,0,25,0,37.6c1.6,0,3.2-0.1,4.7,0c1.4,0.1,1.7-0.4,1.7-1.7
		c-0.1-7.9,0-15.8,0-23.7c0-0.5-0.1-1.2,0.2-1.6c1.8-2.8,3.8-5.4,7.3-6.2c4.7-1.2,7.6,0.9,8.1,5.7c0.1,0.7,0.1,1.4,0.1,2.1
		c0,7.8,0,15.6,0,23.4c0,0.6,0,1.2,0,1.9c2.2,0,4.2,0,6.2,0c0.1-0.2,0.1-0.3,0.1-0.4c0-9.6,0.1-19.1-0.1-28.7
		C813.1,152.5,808.8,148.9,803.4,148.7z"/>
	<path class="st1" d="M964,158.7c-0.5-5-3.1-8.5-7.3-9.6c-4.3-1.1-8.3-0.3-11.9,2.5c-1.1,0.9-2.2,1.9-3.3,2.9
		c-0.2-1.5-0.4-3.2-0.6-4.9c-1.8,0-3.5,0-5.3,0c0,12.6,0,25,0,37.4c2.1,0,4.1,0,6.3,0c0-0.7,0-1.3,0-1.9c0-7.8,0-15.6,0-23.4
		c0-0.5-0.1-1.1,0.1-1.5c1.9-3,4.1-5.8,7.8-6.5c4.7-0.9,7.4,1.2,7.7,6.1c0,0.8,0.1,1.6,0.1,2.4c0,7.6,0,15.3,0,22.9
		c0,0.6,0.1,1.2,0.1,1.7c2.2,0,4.3,0,6.4,0c0-8.9,0-17.6,0-26.4C964,160,964,159.3,964,158.7z"/>
	<path class="st1" d="M628.4,149.1c-3.8-1-7.6-0.6-10.9,1.7c-1.5,1.1-2.9,2.5-4.4,3.8c-0.2-1.6-0.4-3.3-0.6-5c-1.9,0-3.6,0-5.3,0
		c0,12.5,0,25,0,37.4c2.1,0,4.1,0,6.3,0c0-0.7,0-1.3,0-1.9c0-7.8,0-15.6,0-23.4c0-0.5-0.1-1.1,0.1-1.5c1.9-3,4.1-5.8,7.8-6.5
		c4.7-0.9,7.4,1.3,7.6,6.1c0,0.8,0,1.5,0,2.3c0,7.7,0,15.4,0,23.1c0,0.6,0.1,1.2,0.1,1.8c2.2,0,4.2,0,6.4,0c0-9.5,0.1-18.9-0.1-28.2
		C635.4,153.8,632.6,150.3,628.4,149.1z"/>
	<path class="st1" d="M695.6,62.2c5.3,1.5,10.8-0.4,14.1-4.7c0.3-0.4,0.6-0.8,1.1-1.5c0.2,2.1,0.4,3.9,0.6,5.7c1.9,0,3.6,0,5.3,0
		c0-12.5,0-25,0-37.4c-2.1,0-4.1,0-6.3,0c0,0.7,0,1.3,0,1.9c0,7.8,0,15.7,0,23.5c0,0.5,0,1.2-0.2,1.6c-1.5,2.6-3.5,4.9-6.5,5.8
		c-3.9,1.2-8.5,0.7-8.6-5.6c-0.1-8.5-0.1-16.9-0.1-25.4c0-0.6-0.1-1.3-0.1-2c-2.2,0-4.2,0-6.3,0c0,9.7-0.1,19.2,0.1,28.7
		C688.7,57.8,691.5,61.1,695.6,62.2z"/>
	<path class="st1" d="M668.3,122.5c6.1-4,6.2-13,0.1-16.9c-2.1-1.4-4.7-2.1-7-3.1c-2-0.8-4.1-1.2-6-2.1c-2.3-1-3.3-2.6-3.1-4.7
		c0.2-2.1,1.5-3.6,3.9-4.3c3.3-0.8,6.5-0.4,9.6,1c1.1,0.5,2.1,1.1,3.3,1.7c0.9-1.3,1.8-2.6,2.6-3.9c-5.3-4.8-15.6-5.8-21.5-2.1
		c-6.5,4.1-6.4,12.7,0.4,16.5c1.7,1,3.7,1.6,5.6,2.3c2.4,0.9,4.9,1.4,7.1,2.6c3.8,1.9,3.7,7.2,0,9.3c-2.3,1.3-4.9,1.4-7.5,1.1
		c-3.1-0.4-5.9-1.6-8.5-3.5c-1.2,1.3-2.2,2.6-3.3,3.8c2.1,2.1,5.2,3.8,8.9,4.5C658.2,125.8,663.5,125.6,668.3,122.5z"/>
	<path class="st1" d="M673.1,149.5c-0.9,0-1.3,0.3-1.6,1.2c-1.2,4-2.4,8-3.7,12c-1.9,6-3.7,12.1-5.6,18.1c-0.1,0-0.3,0-0.4,0
		c-0.7-2.1-1.3-4.2-2-6.3c-2.4-7.9-4.9-15.7-7.3-23.6c-0.2-0.5-0.7-1.3-1-1.4c-2.1-0.1-4.1-0.1-6.3-0.1c0.1,0.5,0.1,0.8,0.2,1.1
		c4.1,11.8,8.2,23.7,12.3,35.5c0.3,0.8,0.7,1.1,1.5,1.1c1.7-0.1,3.4-0.1,5.2,0c1.2,0.1,1.7-0.3,2-1.4c3.9-11.6,7.8-23.2,11.7-34.7
		c0.1-0.4,0.2-0.9,0.4-1.5C676.6,149.5,674.9,149.6,673.1,149.5z"/>
	<path class="st1" d="M674.4,56.8c-4.6,1.5-7.2-0.3-7.2-5.2c0-6,0-12,0-18.1c0-1.4,0-2.8,0-4.5c2.8,0,5.5,0,8.2,0
		c0.2-1.7,0.5-3.3,0.7-5c-3.1,0-5.9,0-8.9,0c0-3.1,0-6.1,0-9.2c-2.3,0.3-4.3,0.5-6.5,0.8c0,2.9,0,5.6,0,8.5c-2.2,0-4.3,0-6.4,0
		c0,1.7,0,3.3,0,5c2.1,0,4.2,0,6.4,0c0,0.8,0,1.4,0,2.1c0.1,7.6,0,15.2,0.2,22.8c0.1,2.6,1.2,4.9,3.3,6.6c3.7,3,11.3,2.7,14.9-0.7
		c-0.8-1.3-1.5-2.7-2.3-4C675.9,56.3,675.2,56.6,674.4,56.8z"/>
	<path class="st1" d="M996.6,181.2c-1.1,0.4-1.9,0.8-2.7,1.1c-4.3,1.3-6.6-0.4-6.8-4.9c0-0.3,0-0.6,0-0.9c0-6.8,0-13.6,0-20.4
		c0-0.5,0-1,0.1-1.7c2.8,0,5.4,0,8.1,0c0.2-1.7,0.5-3.2,0.7-5c-3,0-5.9,0-9,0c0-3.2,0-6.2,0-9.3c-1.9,0.2-3.5,0.5-5.2,0.6
		c-1.1,0.1-1.4,0.5-1.3,1.5c0.1,2.4,0,4.7,0,7.3c-1.9,0-3.6,0-5.3,0c-0.4,0-1.1,0.4-1.2,0.7c-0.1,1.3-0.1,2.7-0.1,4.1
		c2.2,0,4.3,0,6.5,0c0,0.8,0,1.4,0,2c0,7,0,14.1,0,21.1c0,3.6,0.9,6.8,4.2,8.9c3.7,2.4,10.7,1.8,14.2-1.2
		C998.2,183.9,997.4,182.6,996.6,181.2z"/>
	<path class="st1" d="M813.3,119.3c-5.4,1.7-10.3-0.4-12-5.5c-1.8-5.5-1.8-11.1,0.2-16.5c1.6-4.5,5.3-6.6,9.9-5.8
		c2.2,0.4,4.4,1.4,6.8,2.2c0.8-1.1,1.8-2.3,2.7-3.6c-7.9-7.1-20.5-4.9-25.3,4.4c-2.5,4.8-2.9,10-2.3,15.2c1,9,6.6,16.3,17.6,15.6
		c3.7-0.3,7-1.6,10-4.1c-1-1.4-1.9-2.8-2.8-4C816.4,117.9,814.9,118.8,813.3,119.3z"/>
	<path class="st1" d="M773.9,53.9c0,0.6,0,1.2,0.1,1.8c0.3,2.8,1.5,5.2,4.3,6.3c2.9,1.2,5.8,0.9,8.6-0.6c-0.6-1.5-1.1-2.9-1.6-4.3
		c-4.2,0.7-4.8,0.2-4.9-4c0-0.3,0-0.5,0-0.8c0-14,0-27.9,0-41.9c0-0.6,0-1.3,0-2.1c-2.2,0.3-4.2,0.5-6.5,0.7c0,0.6,0,1,0,1.5
		C773.9,24.9,773.9,39.4,773.9,53.9z"/>
	<path class="st1" d="M787.6,86.4c-2.3-0.6-4.5-0.7-6.6,0c-3.7,1.2-5.5,4.2-7.2,7.5c-0.2-2.3-0.4-4.6-0.7-7.1c-1.3,0-2.5,0.1-3.7,0
		c-1.3-0.1-1.8,0.3-1.8,1.7c0.1,11.4,0,22.8,0,34.2c0,0.5,0.1,1.1,0.1,1.6c2.2,0,4.2,0,6.4,0c0-0.7,0-1.2,0-1.8c0-5.9,0-11.8,0-17.8
		c0-3.3,1.1-6.3,2.8-9c1.5-2.4,3.8-3.6,6.7-3.4c0.9,0.1,1.9,0.2,2.9,0.3C786.9,90.5,787.2,88.5,787.6,86.4z"/>
	<path class="st1" d="M648.7,29.8c0.4-1.9,0.7-3.9,1.1-6c-6.9-1.6-11.1,1.4-13.8,7.4c-0.2-2.3-0.4-4.6-0.6-6.9c-2,0-3.7,0-5.4,0
		c0,12.5,0,25,0,37.4c2.1,0,4.1,0,6.4,0c0-0.7,0-1.3,0-1.9c0-6.1,0-12.1,0-18.2c0-3.4,1.3-6.4,3.2-9.1c1.1-1.5,2.7-2.5,4.6-2.7
		C645.7,29.7,647.1,29.8,648.7,29.8z"/>
	<path class="st1" d="M725.3,149.2c-3.6,1.3-5.4,4.2-7,7.4c-0.2-2.3-0.4-4.6-0.7-7.1c-1.3,0-2.5,0.1-3.6,0c-1.4-0.1-1.9,0.3-1.9,1.8
		c0.1,11.3,0,22.7,0,34c0,0.5,0,1.1,0,1.7c2.2,0,4.3,0,6.5,0c0-0.6,0-1.2,0-1.7c0-6,0-11.9,0-17.9c0-3.4,1.1-6.4,2.9-9.1
		c1.4-2.2,3.6-3.4,6.3-3.3c1,0,2.1,0.2,3.2,0.3c0.4-2.1,0.8-4.1,1.1-6.2C729.6,148.5,727.4,148.4,725.3,149.2z"/>
	<path class="st1" d="M695.6,151.4c0-0.4,0.1-0.8,0-1c-0.2-0.3-0.5-0.8-0.8-0.8c-1.8-0.1-3.6,0-5.5,0c0,12.7,0,25.1,0,37.6
		c1.6,0,3-0.1,4.5,0c1.6,0.2,1.9-0.4,1.9-1.9C695.6,174,695.6,162.7,695.6,151.4z"/>
	<path class="st1" d="M607.1,61.7c2.1,0,4.1,0,6.2,0c0-12.5,0-25,0-37.4c-2.1,0-4.1,0-6.2,0C607.1,36.8,607.1,49.2,607.1,61.7z"/>
	<path class="st1" d="M610.1,14.9c2.7,0,4.6-1.8,4.6-4.4c0-2.6-1.8-4.4-4.5-4.4c-2.6,0-4.6,1.9-4.5,4.4
		C605.6,13,607.5,14.9,610.1,14.9z"/>
	<path class="st1" d="M692.3,131.4c-2.6,0-4.5,1.9-4.4,4.5c0,2.6,1.8,4.3,4.5,4.3c2.7,0,4.6-1.9,4.6-4.4
		C696.9,133.2,694.9,131.4,692.3,131.4z"/>
</g>
</svg>
