<svg id="Layer_1" data-name="Layer 1" xmlns="http://www.w3.org/2000/svg" viewBox="0 0 4000 788.98"><defs><style>.cls-1{fill:#ccc;}.cls-2{fill:#fff;}</style></defs><rect class="cls-1" width="249.85" height="788.98"/><path class="cls-2" d="M1280,461.14c15.91-9.24,32.48-17.55,47.55-28,35.24-24.49,59-57.33,68.2-99.88,6.49-29.88,6.74-59.89,2.19-90-9.18-60.62-41.21-104.52-96.6-131.08-46.4-22.25-96.15-30.41-146.84-31.26-80.67-1.34-161.36-.6-242.05-1-5.79,0-6.51,2.29-6.5,7.16q.14,328.11,0,656.22c0,5.49,1.39,7.2,7.09,7.17,48.25-.24,96.5-.13,144.75-.15,2.12,0,4.24-.23,7-.39V493.87c18.51,0,36.35.29,54.17-.17,6-.16,8.83,1.88,11.57,7q65,122,130.28,243.75c2.25,4.21,4.63,6.06,9.71,6,54.94-.22,109.87-.13,164.81-.15,2,0,3.92-.18,7.07-.33-57-95.62-113.4-190.15-170-285.09C1275.32,463.45,1277.73,462.45,1280,461.14Zm-45.39-143.93c-7.59,35.66-30.32,56.18-65.28,63.65a166.73,166.73,0,0,1-30.68,3.66c-23.09.56-46.2.24-69.31.26-1.38,0-2.76-.14-4.55-.23V191.63c25.88,0,51.37-.46,76.84.16a134.88,134.88,0,0,1,47.86,10.14c27.72,11.34,42.65,32.36,46.84,61.51A152.31,152.31,0,0,1,1234.59,317.21Z" transform="translate(0 -1.62)"/><path class="cls-2" d="M589.76,79.94c-5.47,0-7.07,1.9-8.13,6.91-6.82,32.29-14,64.49-21.07,96.72q-44.19,201.68-88.41,403.34c-2.76,12.6-5.61,25.19-8.41,37.78a13.27,13.27,0,0,1-2.58-5.61Q399,352.7,337,86.27c-1.15-5-3.12-6.32-8.07-6.31-51.09.1-102.18,0-153.27-.13-2.16,0-4.32,0-7.25,0,.7,2.91,1,4.5,1.47,6q41.79,144.72,83.61,289.45Q306.7,559.64,359.81,744c1.44,5,3.43,6.53,8.6,6.52q91.54-.29,183.09,0c5.77,0,7.88-1.71,9.41-7.19Q650.54,420.48,740.49,97.71c1.55-5.55,2.93-11.15,4.53-17.29-2.87-.15-4.86-.33-6.85-.33C688.7,80.07,639.23,80.17,589.76,79.94Z" transform="translate(0 -1.62)"/><path class="cls-2" d="M2008.21,192.52c5.5-37.84,10.84-74.66,16.24-111.81H1614V750H2024V636.5H1772.58V464.58h205.23V354H1772.47V192.52Z" transform="translate(0 -1.62)"/><path class="cls-2" d="M2357.72,411.42c19.17-9.9,30.39-25,31.13-47.1.89-26.44-9-46.54-34.74-55.84a101.27,101.27,0,0,0-29.52-6.29c-26.11-1.13-52.27-.92-78.41-1.2a15.34,15.34,0,0,0-3.18.61V498.94h46.49V423.38c4.17,0,7.63.37,11-.09,5.69-.77,8.57,1.68,11.14,6.64,11.29,21.75,22.92,43.32,34.7,64.8,1.1,2,4,4.24,6.15,4.29,15,.36,30,.19,45,.14a13.72,13.72,0,0,0,3.06-.82c-16.66-27.95-33-55.37-49.58-83.21C2353.56,413.69,2355.62,412.5,2357.72,411.42Zm-39-21.08c-9.32,1.2-18.92.23-28.92.23V333c10.3.63,20,.56,29.58,2,14.49,2.15,21.58,11.61,21.51,26.94C2340.84,378.32,2333.6,388.43,2318.76,390.34Z" transform="translate(0 -1.62)"/><path class="cls-2" d="M2276.23,243.16c.58,2,2.91,4.9,4.47,4.93,18.22.34,36.45.22,55,.22,18.38-66.07,36.68-131.82,55-197.79h-47.64l-35,159.57-1-.08c-.53-1.7-1.16-3.37-1.56-5.1q-6.21-26.59-12.36-53.21c-7.43-31.93-14.83-63.86-22.43-95.75-.5-2.11-2.48-5.48-3.85-5.52-15.33-.39-30.66-.25-46.44-.25.75,2.75,1.3,4.89,1.9,7q12.43,43.16,24.88,86.31C2256.87,176.73,2266.45,210,2276.23,243.16Z" transform="translate(0 -1.62)"/><path class="cls-2" d="M2359.08,585.27c1.63-11,3.2-21.5,4.87-32.79h-121.1V750h120.64V716.65h-73.63V665.46H2350V633h-60.34V585.27Z" transform="translate(0 -1.62)"/><path class="cls-2" d="M3513.37,635.24c-.55-20.45-14.41-36.12-33.09-38.56-15-2-28.64,1.51-39.73,12.37-4.29,4.2-8.16,8.83-12.67,13.76-7.05-17.93-19.93-26.75-38.89-26.52-18.37.21-31.41,9.84-42.68,25.36-.78-7.1-1.18-12.47-2.08-17.75-.26-1.51-1.92-3.88-3.06-3.95-6.36-.39-12.76-.19-19.09-.19v150.6c6.75,0,13-.3,19.26.1,5.06.33,6.52-1.37,6.49-6.44-.22-31.83-.15-63.65,0-95.47,0-2.71.34-5.91,1.79-8A116.73,116.73,0,0,1,3362.13,625c8.27-8.41,18.67-10.84,29.62-6.87,10.31,3.73,12.56,13.29,12.66,22.92.38,33.64.36,67.28.5,100.93,0,2.56,0,5.13,0,8h25.84V652.86c0-14.56,13.75-32,28-35.56,15.46-3.84,25.84,3,28.33,18.85a88.26,88.26,0,0,1,1,13.3q.12,46.51.05,93v7.44h25.72c0-11.57,0-22.69,0-33.81C3513.73,689.15,3514.08,662.18,3513.37,635.24Z" transform="translate(0 -1.62)"/><path class="cls-2" d="M3353.7,499.32c5.55.41,7.24-1.43,7.2-7.06-.25-31.41-.13-62.82-.1-94.23,0-2.2-.37-4.86.67-6.53,7.2-11.55,15.69-21.95,29.81-25.1,19.25-4.3,30.64,4.38,32.15,24,.2,2.62.14,5.26.14,7.89q0,46.51,0,93v7.52h25.7c0-7.23,0-13.88,0-20.53-.07-31,.24-62-.35-93-.39-20.95-14.25-36.59-33.73-39.33s-36,2.83-49.23,17.68c-1.3,1.47-2.63,2.92-5.33,5.91V285.38l-25.39,2.82v211C3341.65,499.22,3347.7,498.88,3353.7,499.32Z" transform="translate(0 -1.62)"/><path class="cls-2" d="M2994.12,157c-8.9.35-17.87.36-26.66,1.58-31.45,4.38-47.69,24.26-45.11,54.52,1.46,17.1,12.91,31.77,29.71,36.17,24.3,6.36,45.8,2,63-20,4.74,14.76,15,20.91,29,22.32.67-1.7,1.33-3.16,1.82-4.67,1.38-4.19,2.68-8.4,4-12.5-11.05-7.5-12.14-9.58-12.17-23.31-.05-22.91.3-45.82-.16-68.72-.59-28.82-15.3-45-43.9-47.25-11.54-.9-23.41.62-35,2.24-8.63,1.22-17,4.37-25.93,6.79,2.45,7.06,4.48,12.87,6.62,19a63.55,63.55,0,0,1,7.51-2.13c12.75-1.89,25.47-4.47,38.3-5.15,9-.49,17.73,2.81,22.56,11.67,5,9.15,3.94,19,3.42,29.36C3005,157,2999.55,156.77,2994.12,157Zm17.1,49.94c-.24,3.61-3,7.38-5.44,10.45-10.1,12.78-23.28,17.64-39.26,13.91-7.41-1.73-12.41-6.48-15-13.66-7.32-20.1,2.59-38.61,23.6-42,11.64-1.9,23.65-1.57,36.39-2.29C3011.48,185.54,3011.94,196.27,3011.22,206.93Z" transform="translate(0 -1.62)"/><path class="cls-2" d="M3031.75,596.79c-27-4.08-52.2,6.49-65.73,28.41-9.56,15.49-12.53,32.72-12.93,50.65.76,7.24,1.17,14.54,2.35,21.72,5.67,34.46,29,54.9,63.7,56,29.06.88,52-14.18,62.09-41.49,8.72-23.6,9-47.73,1.34-71.54C3074.67,615.86,3058,600.75,3031.75,596.79ZM3054.8,708.4c-5.25,16.27-17.17,24.31-33.84,24.39-17.32.08-29.25-7.54-34.42-24.22-3.37-10.87-4.41-22.47-6.56-34.1,2.23-11.44,3.4-23,6.87-33.86,5.14-16,17.53-23.81,34.31-23.72,16.28.09,28.32,8.13,33.54,24A107,107,0,0,1,3054.8,708.4Z" transform="translate(0 -1.62)"/><path class="cls-2" d="M2983.75,482.41a15.49,15.49,0,0,1,2.08-1.85c4.78,14.44,15,20.61,29.13,21.92,2-6.06,3.84-11.74,5.78-17.69-10.08-3.92-12.51-11.67-12.44-21.17.18-22.91.27-45.81,0-68.71-.34-26.07-11.69-42.13-33.38-47.4a85,85,0,0,0-17.44-2c-18.43-.56-36.06,3.37-53.85,10.14,2.16,6.28,4.17,12.1,6.34,18.38a81.12,81.12,0,0,1,8-2.09c12.34-1.91,24.69-5,37.07-5.16,16.45-.2,25.43,8.43,26.85,23.07.54,5.61.09,11.31.09,18-9.83,0-19.12-.21-28.39.05-13.28.35-26.21,2.53-38,9.09-17.15,9.53-23.8,24.66-22.75,43.65,1,18.55,9.78,32.08,27.36,38.66C2938.76,506.27,2968.08,504.34,2983.75,482.41Zm-26-.83a43.55,43.55,0,0,1-16.75,1.34c-14.21-1.51-22-12.92-20.81-29.1,1.08-14.17,8.23-23.79,22.42-26.47,12.58-2.37,25.59-2.51,39.51-3.74,0,13,1.84,24.49-.49,35.07C2979.09,470.38,2969.43,478.08,2957.79,481.58Z" transform="translate(0 -1.62)"/><path class="cls-2" d="M2497.18,501.93c15.36-1.77,29-8,41.26-18.13-3.84-5.25-7.38-10.08-10.91-14.92-19.65,11.67-39.65,19.49-60.87,6.47-15.13-9.28-18-25.29-19.27-42.47H2543c2.31-13.28.7-33.28-3.54-46.31-8-24.51-25.61-39.21-49-40.83-28.86-2-48.81,8.86-60.77,33-10,20.16-11.38,41.56-9,63.41,1.4,12.85,5.36,24.95,13,35.54C2449.51,499.61,2472,504.83,2497.18,501.93Zm-35.7-128.41c9.65-9.24,21.8-9.65,33.53-5.7,5.72,1.93,11.4,6.39,15.15,11.22,7.62,9.81,8.32,21.89,8.34,34.55h-71C2448.22,398.56,2450.21,384.32,2461.48,373.52Z" transform="translate(0 -1.62)"/><path class="cls-2" d="M2779.24,475.67c-15.59-9.22-18.29-25.5-19.9-42.62h95.85a104.65,104.65,0,0,0-2.63-43c-6-21.77-18.58-37.9-41.72-42.86-23.88-5.13-45.16-.55-61.3,19.38-7.93,9.81-12.63,21.17-15.19,33.41-3.69,17.68-3.86,35.39.49,53,8.74,35.42,36,54.1,75.17,48.88,15.14-2,28.53-8.17,40.57-18l-11-15C2820.15,480.49,2800.37,488.17,2779.24,475.67Zm-6.39-101.54c14.1-14.34,41.57-10.16,51.37,7.58,5.35,9.7,6.42,20.26,6.09,31.8h-70.92C2760.47,398.9,2762.24,384.91,2772.85,374.13Z" transform="translate(0 -1.62)"/><path class="cls-2" d="M3639.17,596.61c-27.89-3.44-50,8.82-62.47,35.06-9.23,19.46-10.45,40.11-8.22,61.2,3.91,36.91,28.13,59.85,64.35,60.65,20,.44,37.62-6.07,53.6-18.68l-11.06-15.19c-16.67,10.74-34,16.92-53.26,10.53-16.54-5.47-27-24.13-26.47-46.44H3691c2.21-12.89,1.1-25.14-1.19-37.29C3684.37,617.83,3666.08,599.92,3639.17,596.61Zm-45.6,67.53c3.08-10.73,4.93-21,8.94-30.25,5.47-12.65,16.39-17.68,30.08-17.15,13.36.51,23.87,6,28.62,18.65,3.33,8.87,4.41,18.58,6.68,28.75Z" transform="translate(0 -1.62)"/><path class="cls-2" d="M3217.16,596.29c-18.83-.8-33.85,6.38-45.85,20.58-1.06,1.26-2.23,2.42-4.11,4.45-.67-6.55-1-11.78-1.86-16.92-.3-1.69-2.06-4.35-3.3-4.44-6.2-.46-12.45-.21-19-.21V750.36c6.51,0,12.77-.36,19,.11,5.41.41,6.86-1.42,6.82-6.77-.24-31.63-.13-63.26-.09-94.88,0-2.2-.3-4.85.75-6.53,7.11-11.33,15.41-21.49,29.28-24.9,18.74-4.61,30.6,3.79,32.42,22.9.27,2.82.21,5.67.21,8.51q0,46.83,0,93.67V750h25a6.92,6.92,0,0,0,.59-1.65c-.06-38.31.59-76.65-.52-114.93C3255.8,611.75,3238.74,597.21,3217.16,596.29Z" transform="translate(0 -1.62)"/><path class="cls-2" d="M3860,636.33c-1.8-20-12.31-34.21-29.19-38.36-17.29-4.25-33.4-1.34-47.49,10-4.52,3.65-8.68,7.73-13.16,11.75-.77-6.11-1.61-12.78-2.49-19.71h-21.38V750h25.2v-7.49q0-46.82,0-93.63c0-2-.42-4.44.52-6,7.5-12.11,16.27-23,31.31-25.88,19-3.57,29.5,5,30.64,24.33.19,3.23.2,6.48.2,9.72q0,45.92,0,91.81c0,2.36.25,4.71.38,7h25.61c0-35.54,0-70.59,0-105.64C3860.16,641.6,3860.2,639,3860,636.33Z" transform="translate(0 -1.62)"/><path class="cls-2" d="M2516.21,598.17c-15.37-4.1-30.3-2.51-43.58,6.72-6.2,4.32-11.5,9.93-17.6,15.31q-1.25-9.84-2.53-20h-21.4V750h25.22v-7.49q0-46.83,0-93.64c0-2-.42-4.44.51-6,7.5-12.12,16.28-23,31.32-25.88,19-3.56,29.57,5,30.63,24.35.17,3,.18,6.08.18,9.12q0,46.21,0,92.42c0,2.35.25,4.69.39,7.16h25.49c0-38.16.54-75.65-.22-113.12C2544.26,616.84,2533.06,602.67,2516.21,598.17Z" transform="translate(0 -1.62)"/><path class="cls-2" d="M2785.14,250.12a52.27,52.27,0,0,0,56.31-18.92l4.44-5.88,2.4,22.65h21.33V98.05h-25.14v7.54q0,47.13,0,94.25c0,2.17.12,4.71-.9,6.46-6.17,10.55-14,19.72-26.08,23.4-15.47,4.72-34.11,2.69-34.29-22.35-.24-33.84-.28-67.68-.43-101.53,0-2.55-.21-5.1-.34-7.88h-25.23c0,38.75-.59,76.85.24,114.92C2757.83,232.29,2769,245.59,2785.14,250.12Z" transform="translate(0 -1.62)"/><path class="cls-2" d="M2675.84,491.46c24.26-15.82,24.66-52.12.33-67.64-8.54-5.46-18.64-8.57-28.21-12.29-7.9-3.08-16.26-5-24.05-8.28-9.3-3.92-13.08-10.36-12.44-18.81s5.86-14.56,15.66-17.05c13.26-3.36,26.14-1.48,38.49,4.14,4.36,2,8.54,4.38,13.09,6.73l10.44-15.56c-21.18-19.38-62.42-23.16-85.94-8.29-26.13,16.52-25.52,50.93,1.47,66,7,3.91,14.88,6.23,22.45,9,9.46,3.51,19.53,5.78,28.41,10.36,15.12,7.8,14.82,28.67,0,37.12-9.39,5.37-19.65,5.73-30.09,4.53-12.52-1.44-23.62-6.49-34.06-13.92l-13.31,15.2c8.3,8.49,20.72,15,35.67,17.85C2635.43,504.7,2656.65,504,2675.84,491.46Z" transform="translate(0 -1.62)"/><path class="cls-2" d="M2695.29,599.63c-3.7-.15-5.32,1.25-6.34,4.7-4.78,16.09-9.76,32.11-14.7,48.15q-11.14,36.21-22.32,72.4l-1.6.13c-2.64-8.39-5.3-16.76-7.91-25.16-9.76-31.48-19.46-63-29.35-94.42-.67-2.12-2.65-5.31-4.2-5.42-8.21-.54-16.49-.25-25-.25a34.46,34.46,0,0,0,.83,4.22q24.55,71.1,49.08,142.2c1.14,3.34,2.81,4.34,6.13,4.24,6.88-.2,13.79-.36,20.65.05,4.64.28,6.69-1.28,8.17-5.72,15.55-46.4,31.34-92.71,47-139.06.6-1.77,1-3.61,1.64-6C2709.43,599.71,2702.35,599.91,2695.29,599.63Z" transform="translate(0 -1.62)"/><path class="cls-2" d="M2700.45,228.59c-18.6,6.09-28.75-1.14-28.85-20.7-.11-24.11,0-48.22,0-72.33V117.7h32.87c.95-6.71,1.84-13,2.83-20.09h-35.75v-37l-26.1,3.12V97.78h-25.65v20h25.78c0,3.23,0,5.8,0,8.36.21,30.39.18,60.78.79,91.15a33.83,33.83,0,0,0,13.14,26.38c14.78,11.85,45.21,10.61,59.79-2.64-3.05-5.28-6.15-10.64-9.35-16.16C2706.43,226.26,2703.49,227.6,2700.45,228.59Z" transform="translate(0 -1.62)"/><path class="cls-2" d="M3990.65,726.67c-4.21,1.63-7.53,3.2-11,4.22-17.35,5.09-26.61-1.67-27.22-19.71,0-1.22-.07-2.43-.07-3.65q0-40.74,0-81.5c0-2,.19-3.94.32-6.62h32.52c1-6.79,1.8-12.89,2.78-19.85h-35.84V562.4c-7.43.86-14,1.91-20.67,2.29-4.24.25-5.45,1.88-5.33,6,.27,9.45.08,18.91.08,29.05-7.65,0-14.5-.19-21.33.14-1.67.08-4.54,1.74-4.65,2.88-.49,5.33-.22,10.74-.22,16.56h26.2v8c0,28.18-.15,56.36.1,84.54.13,14.32,3.77,27.4,16.8,35.77,15,9.63,43,7.36,56.88-4.67C3996.86,737.49,3993.69,732,3990.65,726.67Z" transform="translate(0 -1.62)"/><path class="cls-2" d="M3256.66,478.77c-21.8,6.85-41.19-1.73-47.89-22a100,100,0,0,1,.67-66.24c6.38-17.87,21.25-26.59,39.74-23.27,9,1.61,17.47,5.6,27.2,8.86l10.91-14.44c-31.45-28.45-82-19.46-101.17,17.5-10,19.26-11.48,40-9.25,61,3.85,36.22,26.29,65.28,70.53,62.32,15-1,28.2-6.53,40.06-16.28l-11.28-16.06C3269.2,473.27,3263.15,476.73,3256.66,478.77Z" transform="translate(0 -1.62)"/><path class="cls-2" d="M3098.86,216.65a63.28,63.28,0,0,0,.26,7.29c1.33,11.39,6.06,20.77,17.21,25.21,11.66,4.64,23.15,3.47,34.36-2.6-2.33-6.16-4.46-11.77-6.55-17.27-16.77,2.87-19.4.6-19.44-16.09V33.94l-25.86,3v5.88Q3098.84,129.75,3098.86,216.65Z" transform="translate(0 -1.62)"/><path class="cls-2" d="M3153.74,347.14c-9.4-2.29-18.06-2.67-26.48.1-14.67,4.83-22,16.87-28.67,29.94-.87-9.22-1.74-18.45-2.69-28.62-5.33,0-10.19.33-15-.08-5.39-.46-7.32,1.1-7.29,6.92.25,45.61.13,91.22.15,136.83,0,2.15.23,4.3.35,6.51h25.68v-7.06c0-23.72.1-47.44,0-71.15-.08-13.23,4.28-25.07,11.08-36,6-9.75,15.12-14.38,26.68-13.69,3.78.23,7.55.65,11.71,1C3150.74,363.53,3152.21,355.49,3153.74,347.14Z" transform="translate(0 -1.62)"/><path class="cls-2" d="M2597.73,120.14c1.43-7.58,2.95-15.61,4.53-23.94-27.51-6.48-44.26,5.6-55.31,29.48-.87-9.27-1.75-18.55-2.6-27.55h-21.73V248.07h25.64v-7.69c0-24.31-.15-48.62.06-72.93.13-13.58,5.07-25.73,12.92-36.62a24.42,24.42,0,0,1,18.37-10.61C2585.39,119.79,2591.22,120.14,2597.73,120.14Z" transform="translate(0 -1.62)"/><path class="cls-2" d="M2904.18,598.3c-14.32,5-21.52,16.85-28.16,29.7-.87-9.15-1.75-18.3-2.7-28.29-5.32,0-10,.36-14.59-.09-5.73-.57-7.61,1.23-7.58,7.27.25,45.37.14,90.74.14,136.11v7h25.9v-6.86c0-23.9.07-47.8,0-71.7-.06-13.43,4.42-25.44,11.46-36.51,5.72-9,14.26-13.57,25.1-13.22,4.18.14,8.35.65,12.93,1,1.53-8.28,3-16.31,4.55-24.67C2921.62,595.73,2912.82,595.27,2904.18,598.3Z" transform="translate(0 -1.62)"/><path class="cls-2" d="M2785.38,607.28c0-1.42.39-3-.17-4.2-.64-1.32-2.09-3.13-3.25-3.18-7.23-.29-14.49-.14-22.09-.14v150.6c6.25,0,12.13-.44,17.91.12,6.3.62,7.77-1.7,7.74-7.76C2785.28,697.57,2785.39,652.42,2785.38,607.28Z" transform="translate(0 -1.62)"/><path class="cls-2" d="M2431.12,248h24.71V98h-24.71Z" transform="translate(0 -1.62)"/><path class="cls-2" d="M2443,60.62c10.71.1,18.32-7.21,18.32-17.59,0-10.54-7.32-17.66-18.16-17.66-10.53,0-18.29,7.59-18.2,17.81C2425.08,53.12,2432.74,60.53,2443,60.62Z" transform="translate(0 -1.62)"/><path class="cls-2" d="M2772,527.08c-10.52.08-17.93,7.63-17.78,18.13.14,10.25,7.36,17.06,18.06,17s18.47-7.44,18.31-17.61S2782.58,527,2772,527.08Z" transform="translate(0 -1.62)"/></svg>