<svg id="Layer_1" data-name="Layer 1" xmlns="http://www.w3.org/2000/svg" viewBox="0 0 199.9 39.43"><defs><style>.cls-1{fill:#ccc;}.cls-2{fill:#fff;}</style></defs><rect class="cls-1" width="12.49" height="39.43"/><path class="cls-2" d="M64,23c.79-.46,1.62-.87,2.37-1.4a8,8,0,0,0,3.41-5,12.11,12.11,0,0,0,.11-4.49A8.25,8.25,0,0,0,65,5.52,17.39,17.39,0,0,0,57.69,4c-4-.06-8.06,0-12.09,0-.29,0-.33.12-.33.36q0,16.4,0,32.8c0,.27.07.36.36.35,2.41,0,4.82,0,7.23,0l.35,0V24.6c.92,0,1.82,0,2.71,0a.55.55,0,0,1,.57.35Q59.74,31,63,37.12a.46.46,0,0,0,.48.3c2.75,0,5.49,0,8.24,0l.35,0-8.5-14.25C63.73,23.08,63.85,23,64,23ZM61.7,15.77A3.9,3.9,0,0,1,58.44,19a8.88,8.88,0,0,1-1.54.19c-1.15,0-2.31,0-3.46,0h-.23V9.5c1.29,0,2.57,0,3.84,0a6.78,6.78,0,0,1,2.39.51,3.63,3.63,0,0,1,2.34,3.07A7.6,7.6,0,0,1,61.7,15.77Z"/><path class="cls-2" d="M29.47,3.91c-.27,0-.35.1-.4.35-.34,1.61-.7,3.22-1.06,4.83L23.6,29.25l-.42,1.89a.64.64,0,0,1-.13-.28Q19.95,17.54,16.84,4.23c-.06-.25-.16-.32-.4-.32h-8l.08.3q2.09,7.23,4.18,14.47Q15.33,27.89,18,37.1c.07.25.17.33.43.32q4.57,0,9.15,0a.4.4,0,0,0,.47-.36Q32.52,20.93,37,4.8c.07-.28.14-.56.22-.86l-.34,0C34.42,3.92,32,3.93,29.47,3.91Z"/><path class="cls-2" d="M100.36,9.54,101.17,4H80.66V37.4h20.49V31.73H88.58V23.14H98.84V17.61H88.58V9.54Z"/><path class="cls-2" d="M117.83,20.48a2.61,2.61,0,0,0,1.55-2.35,2.58,2.58,0,0,0-1.73-2.8,5.35,5.35,0,0,0-1.48-.31c-1.3-.06-2.61,0-3.92-.06l-.16,0v9.86h2.33V21.08a3.3,3.3,0,0,0,.55,0c.28,0,.42.09.55.33q.86,1.63,1.74,3.24a.47.47,0,0,0,.3.22c.75,0,1.5,0,2.25,0a.62.62,0,0,0,.16,0c-.84-1.39-1.65-2.76-2.48-4.16Zm-2-1.05a11.65,11.65,0,0,1-1.45,0V16.56c.52,0,1,0,1.48.1A1.19,1.19,0,0,1,117,18C117,18.83,116.62,19.33,115.88,19.43Z"/><path class="cls-2" d="M113.75,12.07c0,.1.15.25.23.25h2.75l2.75-9.89H117.1c-.59,2.67-1.17,5.32-1.75,8h0a1.83,1.83,0,0,1-.08-.25c-.21-.89-.41-1.77-.62-2.66-.37-1.6-.74-3.19-1.12-4.79,0-.1-.12-.27-.19-.27-.77,0-1.53,0-2.32,0,0,.13.06.24.09.35.42,1.43.83,2.87,1.25,4.31Z"/><path class="cls-2" d="M117.89,29.17l.25-1.64h-6V37.4h6V35.73h-3.67V33.17h3V31.55h-3V29.17Z"/><path class="cls-2" d="M175.58,31.67a1.92,1.92,0,0,0-1.65-1.93,2.26,2.26,0,0,0-2,.62c-.21.21-.41.44-.63.68a1.91,1.91,0,0,0-1.95-1.32A2.59,2.59,0,0,0,167.23,31c0-.36-.06-.63-.1-.89,0-.08-.1-.2-.16-.2-.31,0-.63,0-.95,0v7.53c.34,0,.65,0,1,0s.33-.07.33-.32q0-2.39,0-4.77a.74.74,0,0,1,.08-.4,6.72,6.72,0,0,1,.63-.78,1.33,1.33,0,0,1,1.48-.34,1.06,1.06,0,0,1,.63,1.14c0,1.69,0,3.37,0,5.05v.4h1.29V32.55a2.06,2.06,0,0,1,1.4-1.78,1,1,0,0,1,1.42.94,4.87,4.87,0,0,1,0,.66c0,1.55,0,3.1,0,4.65v.38h1.28V35.71C175.6,34.36,175.62,33,175.58,31.67Z"/><path class="cls-2" d="M167.6,24.87c.28,0,.36-.07.36-.35q0-2.36,0-4.71a.72.72,0,0,1,0-.33,2.44,2.44,0,0,1,1.49-1.25,1.17,1.17,0,0,1,1.6,1.2,2.54,2.54,0,0,1,0,.39v5h1.29v-1c0-1.55,0-3.1,0-4.65a1.94,1.94,0,0,0-1.69-2,2.61,2.61,0,0,0-2.46.88c-.06.08-.13.15-.26.3V14.18l-1.27.14V24.87C167,24.87,167.3,24.85,167.6,24.87Z"/><path class="cls-2" d="M149.63,7.76c-.44,0-.89,0-1.33.08A2.36,2.36,0,0,0,146,10.57a2,2,0,0,0,1.49,1.81,2.8,2.8,0,0,0,3.15-1,1.52,1.52,0,0,0,1.44,1.11c0-.08.07-.16.1-.23s.13-.42.19-.63c-.55-.37-.6-.47-.6-1.16,0-1.15,0-2.29,0-3.44a2.16,2.16,0,0,0-2.2-2.36,7.84,7.84,0,0,0-1.74.12,9.61,9.61,0,0,0-1.3.34l.33,1a2.54,2.54,0,0,1,.38-.11c.63-.1,1.27-.22,1.91-.26a1.15,1.15,0,0,1,1.13.59,2.57,2.57,0,0,1,.17,1.46Zm.86,2.5a1.16,1.16,0,0,1-.28.52,1.82,1.82,0,0,1-2,.7,1,1,0,0,1-.75-.69,1.49,1.49,0,0,1,1.18-2.1c.58-.09,1.18-.07,1.82-.11C150.5,9.19,150.52,9.73,150.49,10.26Z"/><path class="cls-2" d="M151.51,29.74a3.2,3.2,0,0,0-3.28,1.42,4.9,4.9,0,0,0-.65,2.53c0,.37.06.73.12,1.09a3.13,3.13,0,0,0,3.18,2.8A3.05,3.05,0,0,0,154,35.5a5.34,5.34,0,0,0,.07-3.57A3,3,0,0,0,151.51,29.74Zm1.15,5.58A1.65,1.65,0,0,1,151,36.54a1.63,1.63,0,0,1-1.72-1.21,15,15,0,0,1-.33-1.7,15.5,15.5,0,0,1,.35-1.7,1.8,1.8,0,0,1,3.39,0A5.39,5.39,0,0,1,152.66,35.32Z"/><path class="cls-2" d="M149.11,24a.58.58,0,0,1,.11-.1,1.52,1.52,0,0,0,1.45,1.1l.29-.88a1,1,0,0,1-.62-1.06c0-1.15,0-2.29,0-3.44a2.17,2.17,0,0,0-1.67-2.36,4.23,4.23,0,0,0-.87-.11,7,7,0,0,0-2.69.51l.31.92a2.59,2.59,0,0,1,.4-.1,11.89,11.89,0,0,1,1.86-.26A1.19,1.19,0,0,1,149,19.4c0,.28,0,.57,0,.9-.49,0-1,0-1.42,0a4.07,4.07,0,0,0-1.9.46,2.15,2.15,0,0,0-1.13,2.18,2,2,0,0,0,1.36,1.93A2.78,2.78,0,0,0,149.11,24Zm-1.3,0a2.32,2.32,0,0,1-.83.06,1.2,1.2,0,0,1-1-1.45,1.3,1.3,0,0,1,1.12-1.32c.63-.12,1.28-.13,2-.19a9.17,9.17,0,0,1,0,1.75A1.61,1.61,0,0,1,147.81,24Z"/><path class="cls-2" d="M124.8,25a4,4,0,0,0,2.06-.9l-.55-.75c-1,.58-2,1-3,.32a2.4,2.4,0,0,1-1-2.12h4.78a5.66,5.66,0,0,0-.18-2.31,2.72,2.72,0,0,0-2.45-2,2.87,2.87,0,0,0-3,1.64A5.58,5.58,0,0,0,121,22a3.66,3.66,0,0,0,.65,1.78A3.14,3.14,0,0,0,124.8,25ZM123,18.59a1.55,1.55,0,0,1,1.68-.29,1.73,1.73,0,0,1,.75.56,2.64,2.64,0,0,1,.42,1.73h-3.55A2.78,2.78,0,0,1,123,18.59Z"/><path class="cls-2" d="M138.89,23.69a2.44,2.44,0,0,1-1-2.13h4.79a5.32,5.32,0,0,0-.13-2.15,2.71,2.71,0,0,0-2.09-2.14,2.85,2.85,0,0,0-3.06,1,3.8,3.8,0,0,0-.76,1.67,5.93,5.93,0,0,0,0,2.65A3.12,3.12,0,0,0,140.43,25a4,4,0,0,0,2-.9l-.55-.75A2.77,2.77,0,0,1,138.89,23.69Zm-.32-5.07a1.69,1.69,0,0,1,2.57.37,3,3,0,0,1,.3,1.59H137.9A2.85,2.85,0,0,1,138.57,18.62Z"/><path class="cls-2" d="M181.87,29.73a2.88,2.88,0,0,0-3.13,1.76,5.62,5.62,0,0,0-.41,3.06,3.15,3.15,0,0,0,3.22,3,4.08,4.08,0,0,0,2.68-.94l-.55-.76a3,3,0,0,1-2.67.53,2.26,2.26,0,0,1-1.32-2.32h4.76a5,5,0,0,0-.06-1.86A2.84,2.84,0,0,0,181.87,29.73Zm-2.28,3.38A11.72,11.72,0,0,1,180,31.6a1.65,1.65,0,0,1,2.94.07,11.71,11.71,0,0,1,.33,1.44Z"/><path class="cls-2" d="M160.78,29.72a2.71,2.71,0,0,0-2.29,1l-.21.22c0-.33-.05-.59-.09-.85,0-.08-.11-.21-.17-.22-.31,0-.62,0-1,0v7.53c.33,0,.64,0,1,0s.34-.07.34-.33c0-1.59,0-3.17,0-4.75a.66.66,0,0,1,0-.32,2.46,2.46,0,0,1,1.47-1.25,1.18,1.18,0,0,1,1.62,1.15c0,.14,0,.28,0,.42V37.4h1.25s0-.06,0-.08c0-1.92,0-3.83,0-5.75A1.92,1.92,0,0,0,160.78,29.72Z"/><path class="cls-2" d="M192.9,31.72a2,2,0,0,0-1.46-1.92,2.63,2.63,0,0,0-2.37.5c-.23.19-.44.39-.66.59l-.12-1h-1.07V37.4h1.26v-5a.72.72,0,0,1,0-.3,2.41,2.41,0,0,1,1.57-1.29c1-.18,1.47.24,1.53,1.21,0,.16,0,.33,0,.49v4.59c0,.11,0,.23,0,.34h1.28V32.11C192.91,32,192.91,31.85,192.9,31.72Z"/><path class="cls-2" d="M125.75,29.81a2.55,2.55,0,0,0-2.18.34,8.68,8.68,0,0,0-.88.76l-.13-1h-1.07V37.4h1.26v-5c0-.1,0-.23,0-.3a2.37,2.37,0,0,1,1.57-1.29A1.15,1.15,0,0,1,125.88,32c0,.15,0,.31,0,.46v4.62c0,.11,0,.23,0,.35h1.27c0-1.9,0-3.78,0-5.65A1.93,1.93,0,0,0,125.75,29.81Z"/><path class="cls-2" d="M139.19,12.42a2.61,2.61,0,0,0,2.81-.95l.22-.29.12,1.13h1.07V4.82h-1.26V9.91a.69.69,0,0,1,0,.32,2.39,2.39,0,0,1-1.31,1.17c-.77.23-1.7.13-1.71-1.12,0-1.69,0-3.38,0-5.07,0-.13,0-.26,0-.4h-1.26c0,1.94,0,3.84,0,5.75A1.87,1.87,0,0,0,139.19,12.42Z"/><path class="cls-2" d="M133.72,24.48a2,2,0,0,0,0-3.38,8.49,8.49,0,0,0-1.41-.62c-.39-.15-.81-.24-1.2-.41a.88.88,0,0,1-.62-.94.92.92,0,0,1,.78-.85,2.83,2.83,0,0,1,1.92.21c.22.09.43.21.66.33l.52-.78a4,4,0,0,0-4.3-.41,1.87,1.87,0,0,0,.08,3.3,7.28,7.28,0,0,0,1.12.45,13.32,13.32,0,0,1,1.42.52,1,1,0,0,1,0,1.85,2.36,2.36,0,0,1-1.5.23,3.65,3.65,0,0,1-1.71-.69l-.66.75a3.28,3.28,0,0,0,1.78.9A4.05,4.05,0,0,0,133.72,24.48Z"/><path class="cls-2" d="M134.7,29.89a.27.27,0,0,0-.32.23l-.73,2.41c-.38,1.2-.75,2.41-1.12,3.61h-.08c-.13-.42-.27-.84-.4-1.26q-.72-2.36-1.46-4.71c0-.11-.13-.27-.21-.28-.41,0-.83,0-1.25,0a.78.78,0,0,0,0,.21q1.23,3.56,2.45,7.11a.26.26,0,0,0,.31.21c.34,0,.69,0,1,0s.33-.06.41-.28c.77-2.32,1.56-4.64,2.35-6.95,0-.09.05-.18.08-.3Z"/><path class="cls-2" d="M135,11.34c-.93.31-1.43-.05-1.44-1V5.8h1.64l.15-1h-1.79V3l-1.31.15V4.81h-1.28v1h1.29v.41c0,1.52,0,3,0,4.56a1.71,1.71,0,0,0,.66,1.32,2.61,2.61,0,0,0,3-.13l-.46-.81C135.25,11.23,135.11,11.29,135,11.34Z"/><path class="cls-2" d="M199.43,36.23a4.32,4.32,0,0,1-.55.21c-.87.26-1.33-.08-1.36-1V31.2c0-.09,0-.19,0-.33h1.63l.14-1h-1.79V28c-.37.05-.7.1-1,.12s-.27.09-.26.3c0,.47,0,.94,0,1.45-.38,0-.72,0-1.06,0-.09,0-.23.08-.24.14,0,.27,0,.54,0,.83h1.31v.4c0,1.41,0,2.82,0,4.22a2,2,0,0,0,.84,1.79,2.71,2.71,0,0,0,2.84-.23Z"/><path class="cls-2" d="M162.75,23.85a1.78,1.78,0,0,1-2.39-1.1,5,5,0,0,1,0-3.32,1.68,1.68,0,0,1,2-1.16,11.21,11.21,0,0,1,1.36.44l.54-.72a3.26,3.26,0,0,0-5.05.88,5.25,5.25,0,0,0-.47,3.05A3.16,3.16,0,0,0,162.29,25a3.47,3.47,0,0,0,2-.81l-.56-.81A10.28,10.28,0,0,1,162.75,23.85Z"/><path class="cls-2" d="M154.86,10.75a2.17,2.17,0,0,0,0,.36,1.39,1.39,0,0,0,.86,1.26,2,2,0,0,0,1.72-.13l-.33-.86c-.84.14-1,0-1-.81V1.62l-1.3.14v9Z"/><path class="cls-2" d="M157.61,17.27a2.31,2.31,0,0,0-1.33,0,2.61,2.61,0,0,0-1.43,1.5l-.13-1.43c-.27,0-.51,0-.75,0s-.37.06-.37.35c0,2.28,0,4.56,0,6.84,0,.11,0,.21,0,.32h1.28v-.35c0-1.18,0-2.37,0-3.56a3.37,3.37,0,0,1,.55-1.8,1.41,1.41,0,0,1,1.34-.68l.58.05Z"/><path class="cls-2" d="M129.82,5.92l.23-1.19a2.22,2.22,0,0,0-2.77,1.47l-.13-1.38h-1.08v7.5h1.28v-.39c0-1.21,0-2.43,0-3.64A3.18,3.18,0,0,1,128,6.46a1.21,1.21,0,0,1,.92-.53C129.2,5.91,129.5,5.92,129.82,5.92Z"/><path class="cls-2" d="M145.14,29.82a2.63,2.63,0,0,0-1.41,1.48l-.14-1.41a5.84,5.84,0,0,1-.73,0c-.28,0-.38.07-.37.37,0,2.27,0,4.53,0,6.8v.35h1.3V33.47a3.27,3.27,0,0,1,.57-1.82,1.34,1.34,0,0,1,1.25-.66c.21,0,.42,0,.65.05l.23-1.24A2.38,2.38,0,0,0,145.14,29.82Z"/><path class="cls-2" d="M139.2,30.27a.49.49,0,0,0,0-.21c0-.07-.1-.16-.16-.16-.36,0-.73,0-1.11,0v7.53c.32,0,.61,0,.9,0s.39-.08.39-.38C139.19,34.78,139.2,32.52,139.2,30.27Z"/><path class="cls-2" d="M121.49,12.31h1.24V4.82h-1.24Z"/><path class="cls-2" d="M122.09,3a.86.86,0,0,0,.91-.88.84.84,0,0,0-.9-.88.87.87,0,0,0-.91.89A.88.88,0,0,0,122.09,3Z"/><path class="cls-2" d="M138.53,26.26a.86.86,0,0,0-.89.91.84.84,0,0,0,.9.85.86.86,0,0,0,.92-.88A.89.89,0,0,0,138.53,26.26Z"/></svg>