<svg id="Layer_1" data-name="Layer 1" xmlns="http://www.w3.org/2000/svg" viewBox="0 0 1999 394.29"><defs><style>.cls-1{fill:#ccc;}.cls-2{fill:#fff;}</style></defs><rect class="cls-1" width="124.86" height="394.29"/><path class="cls-2" d="M639.67,230c8-4.62,16.23-8.77,23.76-14,17.62-12.24,29.48-28.65,34.09-49.92a123.2,123.2,0,0,0,1.09-45C694,90.81,678,68.87,650.34,55.6,627.15,44.48,602.29,40.4,577,40c-40.31-.67-80.64-.3-121-.48-2.9,0-3.25,1.14-3.25,3.57q.06,164,0,328c0,2.74.7,3.6,3.55,3.58,24.11-.11,48.22-.06,72.34-.07,1,0,2.11-.12,3.49-.2v-128c9.25,0,18.17.15,27.07-.08,3-.08,4.42.94,5.78,3.5q32.47,61,65.11,121.82c1.12,2.1,2.32,3,4.85,3,27.46-.11,54.91-.06,82.37-.07,1,0,2-.09,3.53-.17-28.5-47.78-56.67-95-85-142.47C637.34,231.15,638.55,230.65,639.67,230ZM617,158.07c-3.8,17.82-15.16,28.07-32.63,31.81A84.13,84.13,0,0,1,569,191.71c-11.54.28-23.09.11-34.64.12-.69,0-1.38-.06-2.27-.11V95.31c12.93,0,25.67-.23,38.4.08a67.3,67.3,0,0,1,23.92,5.07c13.85,5.66,21.31,16.17,23.41,30.74A76.32,76.32,0,0,1,617,158.07Z" transform="translate(0 -0.35)"/><path class="cls-2" d="M294.73,39.49c-2.73,0-3.53.95-4.06,3.46-3.41,16.13-7,32.22-10.53,48.33Q258.06,192.07,236,292.85c-1.38,6.3-2.8,12.59-4.21,18.88a6.63,6.63,0,0,1-1.28-2.8Q199.39,175.81,168.4,42.65c-.57-2.48-1.56-3.15-4-3.15-25.54,0-51.07,0-76.6-.07H84.15c.35,1.46.51,2.25.73,3l41.79,144.65q26.6,92.1,53.14,184.23c.72,2.51,1.72,3.26,4.31,3.26q45.74-.15,91.49,0c2.89,0,3.94-.86,4.7-3.6q44.81-161.34,89.75-322.64c.77-2.77,1.46-5.57,2.27-8.64-1.44-.07-2.43-.17-3.43-.17C344.18,39.56,319.45,39.61,294.73,39.49Z" transform="translate(0 -0.35)"/><path class="cls-2" d="M1003.61,95.75c2.74-18.91,5.41-37.31,8.11-55.87H806.58V374.33h204.93v-56.7H885.85V231.71H988.41V176.44H885.79V95.75Z" transform="translate(0 -0.35)"/><path class="cls-2" d="M1178.27,205.15c9.58-5,15.19-12.51,15.56-23.54.44-13.22-4.51-23.26-17.36-27.91a50.76,50.76,0,0,0-14.76-3.14c-13-.56-26.12-.46-39.18-.6a8,8,0,0,0-1.59.31v98.62h23.23V211.12a43,43,0,0,0,5.49,0c2.85-.39,4.29.84,5.57,3.32,5.64,10.87,11.46,21.65,17.34,32.38a4.47,4.47,0,0,0,3.08,2.15c7.49.18,15,.09,22.49.07a8.07,8.07,0,0,0,1.53-.41L1174.89,207C1176.19,206.28,1177.22,205.69,1178.27,205.15Zm-19.47-10.53c-4.66.6-9.45.11-14.45.11V165.94c5.15.32,10,.28,14.78,1,7.24,1.08,10.79,5.8,10.75,13.47C1169.84,188.61,1166.22,193.66,1158.8,194.62Z" transform="translate(0 -0.35)"/><path class="cls-2" d="M1137.55,121.06c.29,1,1.45,2.45,2.23,2.46,9.11.18,18.21.11,27.5.11,9.19-33,18.34-65.88,27.51-98.84H1171q-8.77,40-17.51,79.74l-.48,0c-.26-.85-.58-1.68-.78-2.54-2.07-8.87-4.11-17.73-6.18-26.6-3.71-15.95-7.41-31.91-11.21-47.85-.25-1.05-1.24-2.74-1.92-2.76-7.66-.19-15.33-.12-23.21-.12.37,1.37.65,2.44,1,3.5q6.21,21.57,12.44,43.13Q1130.26,96.17,1137.55,121.06Z" transform="translate(0 -0.35)"/><path class="cls-2" d="M1179,292c.82-5.48,1.6-10.75,2.44-16.39h-60.52v98.71h60.28V357.69h-36.79V332.1h30.06V315.86h-30.15V292Z" transform="translate(0 -0.35)"/><path class="cls-2" d="M1755.8,317c-.27-10.22-7.2-18.05-16.53-19.27-7.5-1-14.32.76-19.85,6.19-2.15,2.09-4.08,4.41-6.34,6.87-3.52-9-10-13.37-19.43-13.25-9.18.1-15.7,4.92-21.33,12.67-.39-3.55-.59-6.23-1-8.87-.13-.75-1-1.94-1.53-2-3.18-.19-6.38-.09-9.54-.09v75.27c3.37,0,6.51-.16,9.62,0,2.53.17,3.26-.68,3.25-3.22-.11-15.9-.08-31.8,0-47.71a7.43,7.43,0,0,1,.89-4,58.71,58.71,0,0,1,6.27-7.77,13.36,13.36,0,0,1,14.81-3.44c5.15,1.87,6.27,6.64,6.33,11.46.18,16.81.18,33.62.24,50.43,0,1.29,0,2.57,0,4h12.92V325.81c0-7.28,6.87-16,14-17.77,7.72-1.92,12.91,1.49,14.15,9.42a44.56,44.56,0,0,1,.49,6.64c0,15.5,0,31,0,46.5v3.71H1756c0-5.78,0-11.34,0-16.89C1756,343.94,1756.16,330.47,1755.8,317Z" transform="translate(0 -0.35)"/><path class="cls-2" d="M1676,249.08c2.78.2,3.62-.72,3.6-3.53-.13-15.7-.07-31.4,0-47.09,0-1.1-.19-2.43.33-3.27,3.6-5.77,7.85-11,14.9-12.54,9.62-2.15,15.31,2.19,16.07,12,.1,1.31.07,2.63.07,3.94q0,23.25,0,46.48v3.76h12.85c0-3.61,0-6.93,0-10.26,0-15.49.12-31-.18-46.47-.19-10.47-7.12-18.29-16.85-19.66s-18,1.41-24.61,8.84l-2.66,2.95V142.16l-12.69,1.41V249C1670,249,1673,248.86,1676,249.08Z" transform="translate(0 -0.35)"/><path class="cls-2" d="M1496.31,78c-4.45.17-8.93.18-13.32.79-15.72,2.18-23.84,12.12-22.55,27.24a20.2,20.2,0,0,0,14.85,18.08c12.15,3.18,22.89,1,31.47-10,2.37,7.38,7.5,10.45,14.49,11.15.33-.85.66-1.57.91-2.33.69-2.09,1.34-4.2,2-6.25-5.52-3.75-6.07-4.78-6.09-11.65,0-11.44.16-22.9-.08-34.34-.29-14.4-7.64-22.5-21.94-23.61-5.76-.45-11.69.31-17.47,1.12-4.31.61-8.48,2.18-13,3.39l3.31,9.51a31.31,31.31,0,0,1,3.76-1.06c6.37-.95,12.73-2.24,19.14-2.58,4.52-.24,8.86,1.41,11.27,5.84s2,9.49,1.71,14.67C1501.75,78,1499,77.89,1496.31,78Zm8.55,25c-.12,1.81-1.51,3.69-2.72,5.22-5.05,6.39-11.63,8.82-19.62,7a10.15,10.15,0,0,1-7.51-6.83c-3.66-10,1.29-19.29,11.79-21,5.82-1,11.82-.78,18.19-1.14C1505,92.27,1505.22,97.63,1504.86,103Z" transform="translate(0 -0.35)"/><path class="cls-2" d="M1515.12,297.79c-13.5-2-26.09,3.24-32.85,14.2-4.78,7.74-6.26,16.34-6.46,25.31.38,3.62.58,7.27,1.17,10.85,2.83,17.22,14.52,27.44,31.83,28,14.53.44,26-7.09,31-20.74a53.63,53.63,0,0,0,.68-35.75C1536.57,307.32,1528.22,299.77,1515.12,297.79Zm11.52,55.78c-2.63,8.13-8.59,12.14-16.92,12.18-8.65,0-14.61-3.77-17.2-12.1-1.68-5.43-2.2-11.23-3.28-17,1.12-5.72,1.7-11.51,3.44-16.92,2.57-8,8.76-11.9,17.14-11.86,8.14.05,14.16,4.07,16.76,12A53.46,53.46,0,0,1,1526.64,353.57Z" transform="translate(0 -0.35)"/><path class="cls-2" d="M1491.13,240.63a7.38,7.38,0,0,1,1-.93c2.39,7.22,7.47,10.3,14.56,11l2.88-8.84c-5-2-6.25-5.83-6.21-10.59.09-11.44.13-22.89,0-34.33-.17-13-5.85-21.06-16.69-23.69a43.1,43.1,0,0,0-8.72-1c-9.21-.28-18,1.69-26.91,5.07,1.09,3.14,2.09,6.05,3.17,9.19,1.5-.4,2.73-.85,4-1,6.17-1,12.34-2.5,18.53-2.58,8.22-.1,12.71,4.22,13.41,11.54.27,2.8,0,5.65,0,9-4.91,0-9.55-.1-14.19,0-6.63.18-13.1,1.27-19,4.55-8.57,4.76-11.89,12.32-11.37,21.81.51,9.27,4.89,16,13.67,19.32C1468.65,252.55,1483.3,251.59,1491.13,240.63Zm-13-.42a21.71,21.71,0,0,1-8.38.67c-7.1-.75-11-6.45-10.39-14.54.53-7.08,4.11-11.89,11.2-13.23,6.29-1.19,12.79-1.26,19.75-1.87,0,6.49.91,12.24-.25,17.52C1488.8,234.61,1484,238.46,1478.16,240.21Z" transform="translate(0 -0.35)"/><path class="cls-2" d="M1248,250.38a38.69,38.69,0,0,0,20.61-9.06l-5.45-7.46c-9.82,5.83-19.81,9.74-30.42,3.24-7.56-4.64-9-12.64-9.63-21.23h47.79a55.52,55.52,0,0,0-1.77-23.14c-4-12.25-12.8-19.59-24.49-20.41-14.42-1-24.39,4.43-30.37,16.48-5,10.08-5.69,20.77-4.5,31.69a36.75,36.75,0,0,0,6.5,17.76C1224.14,249.22,1235.36,251.83,1248,250.38Zm-17.84-64.17c4.82-4.62,10.89-4.83,16.75-2.85a17.17,17.17,0,0,1,7.57,5.6c3.81,4.91,4.16,10.95,4.17,17.27h-35.49C1223.5,198.72,1224.49,191.61,1230.13,186.21Z" transform="translate(0 -0.35)"/><path class="cls-2" d="M1388.92,237.26c-7.78-4.61-9.14-12.75-9.94-21.3h47.9a52.18,52.18,0,0,0-1.31-21.51c-3-10.88-9.29-18.94-20.85-21.42-11.94-2.56-22.57-.28-30.64,9.69a38.61,38.61,0,0,0-7.59,16.69,58.94,58.94,0,0,0,.25,26.49c4.36,17.7,18,27,37.56,24.43a39.9,39.9,0,0,0,20.28-9l-5.5-7.47C1409.37,239.67,1399.48,243.51,1388.92,237.26Zm-3.19-50.75c7-7.16,20.78-5.07,25.67,3.79,2.68,4.85,3.21,10.13,3,15.89H1379C1379.55,198.89,1380.43,191.9,1385.73,186.51Z" transform="translate(0 -0.35)"/><path class="cls-2" d="M1818.68,297.7c-13.94-1.72-25,4.4-31.22,17.52-4.62,9.72-5.23,20-4.11,30.58,2,18.45,14.06,29.91,32.16,30.31,10,.22,18.8-3,26.79-9.33l-5.53-7.6c-8.34,5.37-17,8.46-26.62,5.27-8.27-2.74-13.51-12.06-13.23-23.21h47.63a51.71,51.71,0,0,0-.59-18.64C1841.26,308.3,1832.12,299.35,1818.68,297.7Zm-22.79,33.75c1.54-5.37,2.46-10.48,4.47-15.12,2.73-6.32,8.19-8.84,15-8.57,6.67.25,11.93,3,14.3,9.32,1.66,4.43,2.2,9.28,3.34,14.37Z" transform="translate(0 -0.35)"/><path class="cls-2" d="M1607.78,297.54c-9.41-.4-16.92,3.19-22.92,10.28-.53.63-1.11,1.21-2,2.23-.34-3.28-.48-5.89-.93-8.46-.15-.84-1-2.17-1.65-2.22-3.1-.23-6.22-.1-9.5-.1v75.27c3.25,0,6.38-.19,9.47,0,2.71.21,3.43-.71,3.41-3.39-.12-15.8-.06-31.61,0-47.41,0-1.1-.15-2.43.37-3.26,3.56-5.67,7.7-10.75,14.63-12.45,9.37-2.3,15.3,1.89,16.21,11.45.13,1.41.1,2.83.1,4.25q0,23.4,0,46.81v3.76h12.47a3.41,3.41,0,0,0,.3-.83c0-19.14.29-38.3-.26-57.43C1627.08,305.27,1618.56,298,1607.78,297.54Z" transform="translate(0 -0.35)"/><path class="cls-2" d="M1929,317.55c-.9-10-6.16-17.1-14.59-19.17-8.64-2.13-16.69-.68-23.74,5-2.25,1.82-4.34,3.86-6.57,5.87-.39-3.05-.81-6.38-1.25-9.85h-10.68v74.94h12.59v-3.74q0-23.4,0-46.79c0-1-.21-2.22.26-3,3.75-6,8.13-11.52,15.65-12.93,9.47-1.79,14.74,2.48,15.31,12.15.1,1.62.1,3.24.1,4.86q0,22.95,0,45.89c0,1.17.12,2.35.19,3.48h12.8c0-17.76,0-35.28,0-52.8C1929.11,320.18,1929.14,318.86,1929,317.55Z" transform="translate(0 -0.35)"/><path class="cls-2" d="M1257.48,298.48c-7.68-2.05-15.15-1.26-21.78,3.36-3.1,2.15-5.75,5-8.8,7.64-.41-3.27-.84-6.6-1.26-10h-10.7v74.86h12.6v-3.74q0-23.4,0-46.8c0-1-.21-2.22.26-3,3.74-6.06,8.13-11.52,15.65-12.94,9.48-1.78,14.78,2.52,15.3,12.17.09,1.52.1,3,.1,4.56q0,23.08,0,46.19c0,1.17.13,2.34.2,3.57h12.73c0-19.06.28-37.8-.1-56.53C1271.49,307.81,1265.9,300.73,1257.48,298.48Z" transform="translate(0 -0.35)"/><path class="cls-2" d="M1391.87,124.54a26.13,26.13,0,0,0,28.15-9.46l2.21-2.93c.45,4.24.83,7.78,1.2,11.32h10.67V48.54h-12.57v3.77q0,23.55,0,47.1a6.71,6.71,0,0,1-.45,3.23c-3.08,5.27-7,9.85-13,11.69-7.74,2.36-17,1.35-17.14-11.17-.12-16.91-.14-33.82-.22-50.73,0-1.28-.1-2.56-.17-4h-12.61c0,19.37-.29,38.41.13,57.44C1378.23,115.63,1383.8,122.28,1391.87,124.54Z" transform="translate(0 -0.35)"/><path class="cls-2" d="M1337.25,245.15c12.12-7.91,12.33-26.05.17-33.81-4.27-2.72-9.32-4.28-14.1-6.14-4-1.53-8.13-2.49-12-4.14-4.65-2-6.54-5.17-6.22-9.4s2.93-7.27,7.83-8.52a28.54,28.54,0,0,1,19.23,2.07c2.18,1,4.27,2.19,6.54,3.37,1.79-2.67,3.52-5.25,5.23-7.78-10.59-9.68-31.2-11.57-43-4.14-13,8.25-12.75,25.45.74,33,3.49,2,7.44,3.11,11.22,4.51,4.73,1.75,9.76,2.88,14.2,5.18,7.55,3.89,7.4,14.32,0,18.55-4.69,2.68-9.82,2.86-15,2.26a36.27,36.27,0,0,1-17-6.95l-6.65,7.59c4.15,4.24,10.36,7.51,17.83,8.92C1317.05,251.76,1327.66,251.4,1337.25,245.15Z" transform="translate(0 -0.35)"/><path class="cls-2" d="M1347,299.21c-1.85-.08-2.66.62-3.17,2.35-2.39,8-4.88,16-7.34,24.06L1325.3,361.8l-.8.07c-1.32-4.2-2.65-8.38-4-12.58-4.88-15.73-9.72-31.47-14.67-47.18-.33-1.06-1.32-2.66-2.1-2.71-4.1-.27-8.24-.13-12.52-.13a16.19,16.19,0,0,0,.42,2.11q12.27,35.53,24.53,71.06a2.67,2.67,0,0,0,3.06,2.13c3.44-.11,6.89-.19,10.32,0,2.32.14,3.34-.64,4.09-2.86q11.65-34.78,23.5-69.49c.3-.89.5-1.81.82-3C1354,299.25,1350.5,299.35,1347,299.21Z" transform="translate(0 -0.35)"/><path class="cls-2" d="M1349.55,113.78c-9.3,3-14.37-.57-14.42-10.34-.05-12,0-24.1,0-36.15V58.36h16.42c.48-3.35.92-6.5,1.42-10h-17.87V29.82l-13,1.56v17h-12.82v10h12.88v4.18c.11,15.19.09,30.37.4,45.55a16.89,16.89,0,0,0,6.56,13.18c7.39,5.93,22.6,5.31,29.89-1.32l-4.68-8.07C1352.54,112.62,1351.07,113.28,1349.55,113.78Z" transform="translate(0 -0.35)"/><path class="cls-2" d="M1994.32,362.69c-2.1.82-3.76,1.6-5.5,2.11-8.67,2.55-13.29-.83-13.6-9.85,0-.6,0-1.21,0-1.82q0-20.37,0-40.73c0-1,.09-2,.16-3.31h16.25c.48-3.39.9-6.44,1.39-9.92h-17.91V280.6c-3.71.43-7,1-10.33,1.15-2.12.12-2.72.94-2.66,3,.13,4.72,0,9.45,0,14.52-3.82,0-7.25-.1-10.66.07-.83,0-2.27.87-2.32,1.44-.25,2.66-.11,5.36-.11,8.27h13.09v4c0,14.08-.08,28.16,0,42.25.07,7.15,1.88,13.69,8.39,17.87,7.51,4.82,21.5,3.68,28.43-2.33Z" transform="translate(0 -0.35)"/><path class="cls-2" d="M1627.51,238.8c-10.89,3.43-20.58-.86-23.93-11a50,50,0,0,1,.34-33.11c3.19-8.93,10.62-13.29,19.86-11.62,4.47.8,8.73,2.8,13.59,4.42l5.45-7.22c-15.72-14.21-41-9.72-50.56,8.75-5,9.63-5.74,20-4.62,30.48,1.93,18.1,13.14,32.62,35.25,31.14a34.41,34.41,0,0,0,20-8.14l-5.64-8C1633.78,236.06,1630.76,237.78,1627.51,238.8Z" transform="translate(0 -0.35)"/><path class="cls-2" d="M1548.65,107.81a31.47,31.47,0,0,0,.13,3.64c.67,5.7,3,10.38,8.6,12.6,5.84,2.32,11.58,1.74,17.18-1.3-1.17-3.07-2.23-5.88-3.27-8.63-8.39,1.44-9.7.31-9.72-8V16.5L1548.65,18v89.81Z" transform="translate(0 -0.35)"/><path class="cls-2" d="M1576.08,173c-4.7-1.14-9-1.33-13.23,0-7.34,2.42-11,8.43-14.33,15-.43-4.61-.87-9.22-1.35-14.3-2.66,0-5.09.16-7.49-.05-2.69-.23-3.65.55-3.64,3.46.12,22.8.07,45.59.08,68.39,0,1.07.11,2.14.17,3.25h12.83v-3.53c0-11.86.05-23.71,0-35.56,0-6.61,2.14-12.53,5.54-18a13.79,13.79,0,0,1,13.34-6.84c1.89.11,3.77.32,5.85.5C1574.58,181.22,1575.32,177.2,1576.08,173Z" transform="translate(0 -0.35)"/><path class="cls-2" d="M1298.21,59.58c.72-3.78,1.48-7.8,2.27-12-13.75-3.24-22.12,2.8-27.64,14.73-.44-4.63-.88-9.27-1.3-13.77h-10.86v74.93h12.81v-3.84c0-12.15-.07-24.3,0-36.45.06-6.78,2.53-12.85,6.45-18.29a12.21,12.21,0,0,1,9.18-5.31C1292.05,59.41,1295,59.58,1298.21,59.58Z" transform="translate(0 -0.35)"/><path class="cls-2" d="M1451.37,298.54c-7.16,2.51-10.76,8.42-14.08,14.84-.43-4.57-.87-9.14-1.35-14.14-2.66,0-5,.18-7.29,0-2.86-.28-3.8.62-3.79,3.63.13,22.68.07,45.35.07,68v3.47h13V370.9c0-11.94,0-23.89,0-35.83,0-6.71,2.21-12.72,5.73-18.25a13.56,13.56,0,0,1,12.54-6.6c2.09.07,4.17.32,6.46.51.77-4.14,1.51-8.16,2.28-12.33C1460.08,297.26,1455.68,297,1451.37,298.54Z" transform="translate(0 -0.35)"/><path class="cls-2" d="M1392,303a5.21,5.21,0,0,0-.09-2.1c-.32-.66-1-1.56-1.62-1.59-3.62-.14-7.25-.07-11-.07v75.27c3.13,0,6.07-.23,9,.06,3.15.3,3.89-.86,3.87-3.89C1391.94,348.15,1392,325.59,1392,303Z" transform="translate(0 -0.35)"/><path class="cls-2" d="M1215,123.46h12.35V48.53H1215Z" transform="translate(0 -0.35)"/><path class="cls-2" d="M1220.9,29.84c5.35.05,9.15-3.61,9.15-8.79s-3.66-8.83-9.07-8.83-9.14,3.79-9.09,8.9A8.73,8.73,0,0,0,1220.9,29.84Z" transform="translate(0 -0.35)"/><path class="cls-2" d="M1385.31,263a8.6,8.6,0,0,0-8.89,9.06c.07,5.12,3.68,8.52,9,8.51s9.23-3.72,9.15-8.8S1390.59,262.91,1385.31,263Z" transform="translate(0 -0.35)"/></svg>