<svg id="Layer_1" data-name="Layer 1" xmlns="http://www.w3.org/2000/svg" viewBox="0 0 200 77.94"><defs><style>.cls-1{fill:#3f3f3f;}</style></defs><rect class="cls-1" width="24.68" height="77.94"/><path d="M126.45,45.4c1.57-.92,3.21-1.74,4.7-2.77a15.79,15.79,0,0,0,6.74-9.87,24.38,24.38,0,0,0,.21-8.89,16.25,16.25,0,0,0-9.54-12.95,34.47,34.47,0,0,0-14.51-3.09c-8-.13-15.94-.06-23.91-.09-.57,0-.64.22-.64.71q0,32.41,0,64.83c0,.54.13.71.7.7,4.76,0,9.53,0,14.3,0,.21,0,.42,0,.69,0V48.63c1.83,0,3.59,0,5.35,0a1.09,1.09,0,0,1,1.14.7q6.42,12,12.87,24.08a.93.93,0,0,0,1,.59c5.43,0,10.86,0,16.28,0l.7,0L125.7,45.77C126,45.63,126.23,45.53,126.45,45.4ZM122,31.18a7.71,7.71,0,0,1-6.45,6.29,17.17,17.17,0,0,1-3,.36c-2.28.05-4.57,0-6.85,0l-.45,0V18.77c2.56,0,5.08,0,7.59,0a13.31,13.31,0,0,1,4.73,1,7.23,7.23,0,0,1,4.63,6.08A15.29,15.29,0,0,1,122,31.18Z"/><path d="M58.26,7.74c-.54,0-.69.18-.8.68-.67,3.19-1.38,6.37-2.08,9.56L46.65,57.82l-.84,3.73a1.29,1.29,0,0,1-.25-.55Q39.42,34.69,33.29,8.36c-.11-.49-.31-.62-.8-.62-5,0-10.09,0-15.14,0h-.72l.15.59Q20.91,22.63,25,36.92q5.27,18.21,10.51,36.42a.73.73,0,0,0,.85.64q9,0,18.08,0c.57,0,.78-.16.93-.71Q64.28,41.38,73.15,9.49c.16-.55.29-1.1.45-1.71l-.67,0C68,7.75,63.15,7.76,58.26,7.74Z"/><path d="M198.4,18.86c.54-3.74,1.07-7.38,1.6-11H159.45V73.93H200V62.72H175.12v-17h20.27V34.81H175.11v-16Z"/></svg>