<?xml version="1.0" encoding="utf-8"?>
<!-- Generator: Adobe Illustrator 25.4.1, SVG Export Plug-In . SVG Version: 6.00 Build 0)  -->
<svg version="1.1" id="Layer_1" xmlns="http://www.w3.org/2000/svg" xmlns:xlink="http://www.w3.org/1999/xlink" x="0px" y="0px"
	 viewBox="0 0 200 39.5" style="enable-background:new 0 0 200 39.5;" xml:space="preserve">
<style type="text/css">
	.st0{fill:#BFD7F4;}
	.st1{fill:#003262;}
</style>
<g>
	<rect class="st0" width="12.5" height="39.4"/>
	<g>
		<path class="st1" d="M64,23c0.8-0.5,1.6-0.9,2.4-1.4c1.8-1.2,2.9-2.9,3.4-5c0.3-1.5,0.3-3,0.1-4.5c-0.5-3-2.1-5.2-4.8-6.6
			C62.7,4.4,60.2,4,57.7,4c-4-0.1-8.1,0-12.1,0c-0.3,0-0.3,0.1-0.3,0.4c0,10.9,0,21.9,0,32.8c0,0.3,0.1,0.4,0.4,0.4
			c2.4,0,4.8,0,7.2,0c0.1,0,0.2,0,0.3,0c0-4.3,0-8.5,0-12.8c0.9,0,1.8,0,2.7,0c0.3,0,0.4,0.1,0.6,0.4c2.2,4.1,4.3,8.1,6.5,12.2
			c0.1,0.2,0.2,0.3,0.5,0.3c2.7,0,5.5,0,8.2,0c0.1,0,0.2,0,0.4,0c-2.8-4.8-5.7-9.5-8.5-14.2C63.7,23.1,63.9,23,64,23z M61.7,15.8
			c-0.4,1.8-1.5,2.8-3.3,3.2c-0.5,0.1-1,0.2-1.5,0.2c-1.2,0-2.3,0-3.5,0c-0.1,0-0.1,0-0.2,0c0-3.2,0-6.4,0-9.6c1.3,0,2.6,0,3.8,0
			c0.8,0,1.6,0.2,2.4,0.5c1.4,0.6,2.1,1.6,2.3,3.1C61.9,14,61.9,14.9,61.7,15.8z"/>
		<path class="st1" d="M29.5,3.9c-0.3,0-0.4,0.1-0.4,0.3c-0.3,1.6-0.7,3.2-1.1,4.8c-1.5,6.7-2.9,13.4-4.4,20.2
			c-0.1,0.6-0.3,1.3-0.4,1.9C23.1,31,23.1,31,23,30.9C21,22,18.9,13.1,16.8,4.2c-0.1-0.2-0.2-0.3-0.4-0.3c-2.6,0-5.1,0-7.7,0
			c-0.1,0-0.2,0-0.4,0c0,0.1,0.1,0.2,0.1,0.3c1.4,4.8,2.8,9.6,4.2,14.5c1.8,6.1,3.5,12.3,5.3,18.4c0.1,0.3,0.2,0.3,0.4,0.3
			c3,0,6.1,0,9.1,0c0.3,0,0.4-0.1,0.5-0.4c3-10.8,6-21.5,9-32.3c0.1-0.3,0.1-0.6,0.2-0.9c-0.1,0-0.2,0-0.3,0
			C34.4,3.9,31.9,3.9,29.5,3.9z"/>
		<path class="st1" d="M100.4,9.5c0.3-1.9,0.5-3.7,0.8-5.6c-6.9,0-13.7,0-20.5,0c0,11.2,0,22.3,0,33.4c6.8,0,13.7,0,20.5,0
			c0-1.9,0-3.8,0-5.7c-4.2,0-8.4,0-12.6,0c0-2.9,0-5.7,0-8.6c3.4,0,6.8,0,10.3,0c0-1.9,0-3.7,0-5.5c-3.4,0-6.8,0-10.3,0
			c0-2.7,0-5.4,0-8.1C92.5,9.5,96.4,9.5,100.4,9.5z"/>
		<path class="st1" d="M117.8,20.5c1-0.5,1.5-1.3,1.6-2.4c0-1.3-0.5-2.3-1.7-2.8c-0.5-0.2-1-0.3-1.5-0.3c-1.3-0.1-2.6,0-3.9-0.1
			c-0.1,0-0.1,0-0.2,0c0,3.3,0,6.6,0,9.9c0.8,0,1.5,0,2.3,0c0-1.3,0-2.5,0-3.8c0.2,0,0.4,0,0.5,0c0.3,0,0.4,0.1,0.6,0.3
			c0.6,1.1,1.1,2.2,1.7,3.2c0.1,0.1,0.2,0.2,0.3,0.2c0.7,0,1.5,0,2.2,0c0,0,0.1,0,0.2,0c-0.8-1.4-1.6-2.8-2.5-4.2
			C117.6,20.6,117.7,20.5,117.8,20.5z M115.9,19.4c-0.5,0.1-0.9,0-1.4,0c0-0.9,0-1.9,0-2.9c0.5,0,1,0,1.5,0.1
			c0.7,0.1,1.1,0.6,1.1,1.3C117,18.8,116.6,19.3,115.9,19.4z"/>
		<path class="st1" d="M113.8,12.1c0,0.1,0.1,0.2,0.2,0.2c0.9,0,1.8,0,2.8,0c0.9-3.3,1.8-6.6,2.8-9.9c-0.8,0-1.6,0-2.4,0
			c-0.6,2.7-1.2,5.3-1.8,8c0,0,0,0,0,0c0-0.1-0.1-0.2-0.1-0.3c-0.2-0.9-0.4-1.8-0.6-2.7c-0.4-1.6-0.7-3.2-1.1-4.8
			c0-0.1-0.1-0.3-0.2-0.3c-0.8,0-1.5,0-2.3,0c0,0.1,0.1,0.2,0.1,0.3c0.4,1.4,0.8,2.9,1.2,4.3C112.8,8.8,113.3,10.4,113.8,12.1z"/>
		<path class="st1" d="M117.9,29.2c0.1-0.5,0.2-1.1,0.2-1.6c-2,0-4,0-6.1,0c0,3.3,0,6.6,0,9.9c2,0,4,0,6,0c0-0.6,0-1.1,0-1.7
			c-1.2,0-2.5,0-3.7,0c0-0.9,0-1.7,0-2.6c1,0,2,0,3,0c0-0.5,0-1.1,0-1.6c-1,0-2,0-3,0c0-0.8,0-1.6,0-2.4
			C115.6,29.2,116.7,29.2,117.9,29.2z"/>
		<path class="st1" d="M175.6,31.7c0-1-0.7-1.8-1.7-1.9c-0.7-0.1-1.4,0.1-2,0.6c-0.2,0.2-0.4,0.4-0.6,0.7c-0.4-0.9-1-1.3-1.9-1.3
			c-0.9,0-1.6,0.5-2.1,1.3c0-0.4-0.1-0.6-0.1-0.9c0-0.1-0.1-0.2-0.2-0.2c-0.3,0-0.6,0-1,0c0,2.5,0,5,0,7.5c0.3,0,0.7,0,1,0
			c0.3,0,0.3-0.1,0.3-0.3c0-1.6,0-3.2,0-4.8c0-0.1,0-0.3,0.1-0.4c0.2-0.3,0.4-0.5,0.6-0.8c0.4-0.4,0.9-0.5,1.5-0.3
			c0.5,0.2,0.6,0.7,0.6,1.1c0,1.7,0,3.4,0,5c0,0.1,0,0.3,0,0.4c0.4,0,0.8,0,1.3,0c0-0.1,0-0.2,0-0.4c0-1.5,0-3,0-4.5
			c0-0.7,0.7-1.6,1.4-1.8c0.8-0.2,1.3,0.1,1.4,0.9c0,0.2,0,0.4,0,0.7c0,1.5,0,3.1,0,4.6c0,0.1,0,0.2,0,0.4c0.4,0,0.8,0,1.3,0
			c0-0.6,0-1.1,0-1.7C175.6,34.4,175.6,33,175.6,31.7z"/>
		<path class="st1" d="M167.6,24.9c0.3,0,0.4-0.1,0.4-0.4c0-1.6,0-3.1,0-4.7c0-0.1,0-0.2,0-0.3c0.4-0.6,0.8-1.1,1.5-1.3
			c1-0.2,1.5,0.2,1.6,1.2c0,0.1,0,0.3,0,0.4c0,1.5,0,3.1,0,4.6c0,0.1,0,0.2,0,0.4c0.4,0,0.8,0,1.3,0c0-0.4,0-0.7,0-1
			c0-1.5,0-3.1,0-4.6c0-1-0.7-1.8-1.7-2c-1-0.1-1.8,0.1-2.5,0.9c-0.1,0.1-0.1,0.1-0.3,0.3c0-1.5,0-2.8,0-4.2
			c-0.5,0.1-0.9,0.1-1.3,0.1c0,3.5,0,7,0,10.5C167,24.9,167.3,24.9,167.6,24.9z"/>
		<path class="st1" d="M149.6,7.8c-0.4,0-0.9,0-1.3,0.1c-1.6,0.2-2.4,1.2-2.3,2.7c0.1,0.9,0.6,1.6,1.5,1.8c1.2,0.3,2.3,0.1,3.1-1
			c0.2,0.7,0.7,1,1.4,1.1c0-0.1,0.1-0.2,0.1-0.2c0.1-0.2,0.1-0.4,0.2-0.6c-0.6-0.4-0.6-0.5-0.6-1.2c0-1.1,0-2.3,0-3.4
			c0-1.4-0.8-2.2-2.2-2.4c-0.6,0-1.2,0-1.7,0.1c-0.4,0.1-0.8,0.2-1.3,0.3c0.1,0.4,0.2,0.6,0.3,1c0.1,0,0.3-0.1,0.4-0.1
			c0.6-0.1,1.3-0.2,1.9-0.3c0.5,0,0.9,0.1,1.1,0.6c0.2,0.5,0.2,0.9,0.2,1.5C150.2,7.8,149.9,7.8,149.6,7.8z M150.5,10.3
			c0,0.2-0.2,0.4-0.3,0.5c-0.5,0.6-1.2,0.9-2,0.7c-0.4-0.1-0.6-0.3-0.8-0.7c-0.4-1,0.1-1.9,1.2-2.1c0.6-0.1,1.2-0.1,1.8-0.1
			C150.5,9.2,150.5,9.7,150.5,10.3z"/>
		<path class="st1" d="M151.5,29.7c-1.3-0.2-2.6,0.3-3.3,1.4c-0.5,0.8-0.6,1.6-0.6,2.5c0,0.4,0.1,0.7,0.1,1.1
			c0.3,1.7,1.5,2.7,3.2,2.8c1.5,0,2.6-0.7,3.1-2.1c0.4-1.2,0.4-2.4,0.1-3.6C153.7,30.7,152.8,29.9,151.5,29.7z M152.7,35.3
			c-0.3,0.8-0.9,1.2-1.7,1.2c-0.9,0-1.5-0.4-1.7-1.2c-0.2-0.5-0.2-1.1-0.3-1.7c0.1-0.6,0.2-1.2,0.3-1.7c0.3-0.8,0.9-1.2,1.7-1.2
			c0.8,0,1.4,0.4,1.7,1.2C153,33.1,153,34.2,152.7,35.3z"/>
		<path class="st1" d="M149.1,24c0,0,0.1,0,0.1-0.1c0.2,0.7,0.7,1,1.5,1.1c0.1-0.3,0.2-0.6,0.3-0.9c-0.5-0.2-0.6-0.6-0.6-1.1
			c0-1.1,0-2.3,0-3.4c0-1.3-0.6-2.1-1.7-2.4c-0.3-0.1-0.6-0.1-0.9-0.1c-0.9,0-1.8,0.2-2.7,0.5c0.1,0.3,0.2,0.6,0.3,0.9
			c0.1,0,0.3-0.1,0.4-0.1c0.6-0.1,1.2-0.3,1.9-0.3c0.8,0,1.3,0.4,1.3,1.2c0,0.3,0,0.6,0,0.9c-0.5,0-1,0-1.4,0
			c-0.7,0-1.3,0.1-1.9,0.5c-0.9,0.5-1.2,1.2-1.1,2.2c0.1,0.9,0.5,1.6,1.4,1.9C146.9,25.2,148.3,25.1,149.1,24z M147.8,24
			c-0.3,0.1-0.6,0.1-0.8,0.1c-0.7-0.1-1.1-0.6-1-1.5c0.1-0.7,0.4-1.2,1.1-1.3c0.6-0.1,1.3-0.1,2-0.2c0,0.6,0.1,1.2,0,1.8
			C148.9,23.4,148.4,23.8,147.8,24z"/>
		<path class="st1" d="M124.8,25c0.8-0.1,1.5-0.4,2.1-0.9c-0.2-0.3-0.4-0.5-0.5-0.7c-1,0.6-2,1-3,0.3c-0.8-0.5-0.9-1.3-1-2.1
			c1.6,0,3.2,0,4.8,0c0.1-0.7,0-1.7-0.2-2.3c-0.4-1.2-1.3-2-2.4-2c-1.4-0.1-2.4,0.4-3,1.6c-0.5,1-0.6,2.1-0.4,3.2
			c0.1,0.6,0.3,1.2,0.6,1.8C122.4,24.9,123.5,25.1,124.8,25z M123,18.6c0.5-0.5,1.1-0.5,1.7-0.3c0.3,0.1,0.6,0.3,0.8,0.6
			c0.4,0.5,0.4,1.1,0.4,1.7c-1.2,0-2.4,0-3.5,0C122.3,19.8,122.4,19.1,123,18.6z"/>
		<path class="st1" d="M138.9,23.7c-0.8-0.5-0.9-1.3-1-2.1c1.6,0,3.2,0,4.8,0c0.1-0.8,0.1-1.5-0.1-2.2c-0.3-1.1-0.9-1.9-2.1-2.1
			c-1.2-0.3-2.3,0-3.1,1c-0.4,0.5-0.6,1.1-0.8,1.7c-0.2,0.9-0.2,1.8,0,2.6c0.4,1.8,1.8,2.7,3.8,2.4c0.8-0.1,1.4-0.4,2-0.9
			c-0.2-0.3-0.4-0.5-0.6-0.7C140.9,23.9,139.9,24.3,138.9,23.7z M138.6,18.6c0.7-0.7,2.1-0.5,2.6,0.4c0.3,0.5,0.3,1,0.3,1.6
			c-1.2,0-2.3,0-3.5,0C138,19.9,138,19.2,138.6,18.6z"/>
		<path class="st1" d="M181.9,29.7c-1.4-0.2-2.5,0.4-3.1,1.8c-0.5,1-0.5,2-0.4,3.1c0.2,1.8,1.4,3,3.2,3c1,0,1.9-0.3,2.7-0.9
			c-0.2-0.3-0.4-0.5-0.6-0.8c-0.8,0.5-1.7,0.8-2.7,0.5c-0.8-0.3-1.4-1.2-1.3-2.3c0.8,0,1.6,0,2.4,0c0.8,0,1.6,0,2.4,0
			c0.1-0.6,0.1-1.3-0.1-1.9C184.1,30.8,183.2,29.9,181.9,29.7z M179.6,33.1c0.2-0.5,0.2-1,0.4-1.5c0.3-0.6,0.8-0.9,1.5-0.9
			c0.7,0,1.2,0.3,1.4,0.9c0.2,0.4,0.2,0.9,0.3,1.4C182,33.1,180.9,33.1,179.6,33.1z"/>
		<path class="st1" d="M160.8,29.7c-0.9,0-1.7,0.3-2.3,1c-0.1,0.1-0.1,0.1-0.2,0.2c0-0.3,0-0.6-0.1-0.8c0-0.1-0.1-0.2-0.2-0.2
			c-0.3,0-0.6,0-1,0c0,2.5,0,5,0,7.5c0.3,0,0.6,0,0.9,0c0.3,0,0.3-0.1,0.3-0.3c0-1.6,0-3.2,0-4.7c0-0.1,0-0.2,0-0.3
			c0.4-0.6,0.8-1.1,1.5-1.2c0.9-0.2,1.5,0.2,1.6,1.1c0,0.1,0,0.3,0,0.4c0,1.6,0,3.1,0,4.7c0,0.1,0,0.2,0,0.4c0.4,0,0.8,0,1.2,0
			c0,0,0-0.1,0-0.1c0-1.9,0-3.8,0-5.7C162.7,30.5,161.9,29.8,160.8,29.7z"/>
		<path class="st1" d="M192.9,31.7c-0.1-1-0.6-1.7-1.5-1.9c-0.9-0.2-1.7-0.1-2.4,0.5c-0.2,0.2-0.4,0.4-0.7,0.6c0-0.3-0.1-0.6-0.1-1
			c-0.4,0-0.7,0-1.1,0c0,2.5,0,5,0,7.5c0.4,0,0.8,0,1.3,0c0-0.1,0-0.3,0-0.4c0-1.6,0-3.1,0-4.7c0-0.1,0-0.2,0-0.3
			c0.4-0.6,0.8-1.2,1.6-1.3c0.9-0.2,1.5,0.2,1.5,1.2c0,0.2,0,0.3,0,0.5c0,1.5,0,3.1,0,4.6c0,0.1,0,0.2,0,0.3c0.4,0,0.9,0,1.3,0
			c0-1.8,0-3.5,0-5.3C192.9,32,192.9,31.9,192.9,31.7z"/>
		<path class="st1" d="M125.7,29.8c-0.8-0.2-1.5-0.1-2.2,0.3c-0.3,0.2-0.6,0.5-0.9,0.8c0-0.3-0.1-0.7-0.1-1c-0.4,0-0.7,0-1.1,0
			c0,2.5,0,5,0,7.5c0.4,0,0.8,0,1.3,0c0-0.1,0-0.3,0-0.4c0-1.6,0-3.1,0-4.7c0-0.1,0-0.2,0-0.3c0.4-0.6,0.8-1.2,1.6-1.3
			c0.9-0.2,1.5,0.3,1.5,1.2c0,0.2,0,0.3,0,0.5c0,1.5,0,3.1,0,4.6c0,0.1,0,0.2,0,0.4c0.4,0,0.8,0,1.3,0c0-1.9,0-3.8,0-5.7
			C127.1,30.7,126.6,30,125.7,29.8z"/>
		<path class="st1" d="M139.2,12.4c1.1,0.3,2.2-0.1,2.8-0.9c0.1-0.1,0.1-0.2,0.2-0.3c0,0.4,0.1,0.8,0.1,1.1c0.4,0,0.7,0,1.1,0
			c0-2.5,0-5,0-7.5c-0.4,0-0.8,0-1.3,0c0,0.1,0,0.3,0,0.4c0,1.6,0,3.1,0,4.7c0,0.1,0,0.2,0,0.3c-0.3,0.5-0.7,1-1.3,1.2
			c-0.8,0.2-1.7,0.1-1.7-1.1c0-1.7,0-3.4,0-5.1c0-0.1,0-0.3,0-0.4c-0.4,0-0.8,0-1.3,0c0,1.9,0,3.8,0,5.7
			C137.8,11.5,138.4,12.2,139.2,12.4z"/>
		<path class="st1" d="M133.7,24.5c1.2-0.8,1.2-2.6,0-3.4c-0.4-0.3-0.9-0.4-1.4-0.6c-0.4-0.2-0.8-0.2-1.2-0.4
			c-0.5-0.2-0.7-0.5-0.6-0.9c0-0.4,0.3-0.7,0.8-0.9c0.7-0.2,1.3-0.1,1.9,0.2c0.2,0.1,0.4,0.2,0.7,0.3c0.2-0.3,0.4-0.5,0.5-0.8
			c-1.1-1-3.1-1.2-4.3-0.4c-1.3,0.8-1.3,2.5,0.1,3.3c0.3,0.2,0.7,0.3,1.1,0.5c0.5,0.2,1,0.3,1.4,0.5c0.8,0.4,0.7,1.4,0,1.9
			c-0.5,0.3-1,0.3-1.5,0.2c-0.6-0.1-1.2-0.3-1.7-0.7c-0.2,0.3-0.4,0.5-0.7,0.8c0.4,0.4,1,0.8,1.8,0.9
			C131.7,25.1,132.8,25.1,133.7,24.5z"/>
		<path class="st1" d="M134.7,29.9c-0.2,0-0.3,0.1-0.3,0.2c-0.2,0.8-0.5,1.6-0.7,2.4c-0.4,1.2-0.7,2.4-1.1,3.6c0,0-0.1,0-0.1,0
			c-0.1-0.4-0.3-0.8-0.4-1.3c-0.5-1.6-1-3.1-1.5-4.7c0-0.1-0.1-0.3-0.2-0.3c-0.4,0-0.8,0-1.3,0c0,0.1,0,0.2,0,0.2
			c0.8,2.4,1.6,4.7,2.5,7.1c0.1,0.2,0.1,0.2,0.3,0.2c0.3,0,0.7,0,1,0c0.2,0,0.3-0.1,0.4-0.3c0.8-2.3,1.6-4.6,2.4-6.9
			c0-0.1,0-0.2,0.1-0.3C135.4,29.9,135,29.9,134.7,29.9z"/>
		<path class="st1" d="M135,11.3c-0.9,0.3-1.4-0.1-1.4-1c0-1.2,0-2.4,0-3.6c0-0.3,0-0.6,0-0.9c0.6,0,1.1,0,1.6,0
			c0-0.3,0.1-0.7,0.1-1c-0.6,0-1.2,0-1.8,0c0-0.6,0-1.2,0-1.9c-0.5,0.1-0.9,0.1-1.3,0.2c0,0.6,0,1.1,0,1.7c-0.4,0-0.9,0-1.3,0
			c0,0.3,0,0.7,0,1c0.4,0,0.8,0,1.3,0c0,0.2,0,0.3,0,0.4c0,1.5,0,3,0,4.6c0,0.5,0.2,1,0.7,1.3c0.7,0.6,2.3,0.5,3-0.1
			c-0.2-0.3-0.3-0.5-0.5-0.8C135.3,11.2,135.1,11.3,135,11.3z"/>
		<path class="st1" d="M199.4,36.2c-0.2,0.1-0.4,0.2-0.6,0.2c-0.9,0.3-1.3-0.1-1.4-1c0-0.1,0-0.1,0-0.2c0-1.4,0-2.7,0-4.1
			c0-0.1,0-0.2,0-0.3c0.6,0,1.1,0,1.6,0c0-0.3,0.1-0.6,0.1-1c-0.6,0-1.2,0-1.8,0c0-0.6,0-1.2,0-1.9c-0.4,0-0.7,0.1-1,0.1
			c-0.2,0-0.3,0.1-0.3,0.3c0,0.5,0,0.9,0,1.5c-0.4,0-0.7,0-1.1,0c-0.1,0-0.2,0.1-0.2,0.1c0,0.3,0,0.5,0,0.8c0.4,0,0.9,0,1.3,0
			c0,0.2,0,0.3,0,0.4c0,1.4,0,2.8,0,4.2c0,0.7,0.2,1.4,0.8,1.8c0.8,0.5,2.1,0.4,2.8-0.2C199.7,36.8,199.6,36.5,199.4,36.2z"/>
		<path class="st1" d="M162.8,23.8c-1.1,0.3-2.1-0.1-2.4-1.1c-0.4-1.1-0.4-2.2,0-3.3c0.3-0.9,1.1-1.3,2-1.2c0.4,0.1,0.9,0.3,1.4,0.4
			c0.2-0.2,0.4-0.5,0.5-0.7c-1.6-1.4-4.1-1-5.1,0.9c-0.5,1-0.6,2-0.5,3c0.2,1.8,1.3,3.3,3.5,3.1c0.7-0.1,1.4-0.3,2-0.8
			c-0.2-0.3-0.4-0.6-0.6-0.8C163.4,23.6,163.1,23.7,162.8,23.8z"/>
		<path class="st1" d="M154.9,10.7c0,0.1,0,0.2,0,0.4c0.1,0.6,0.3,1,0.9,1.3c0.6,0.2,1.2,0.2,1.7-0.1c-0.1-0.3-0.2-0.6-0.3-0.9
			c-0.8,0.1-1,0-1-0.8c0-0.1,0-0.1,0-0.2c0-2.8,0-5.6,0-8.4c0-0.1,0-0.3,0-0.4c-0.4,0.1-0.8,0.1-1.3,0.1c0,0.1,0,0.2,0,0.3
			C154.9,5,154.9,7.9,154.9,10.7z"/>
		<path class="st1" d="M157.6,17.3c-0.5-0.1-0.9-0.1-1.3,0c-0.7,0.2-1.1,0.8-1.4,1.5c0-0.5-0.1-0.9-0.1-1.4c-0.3,0-0.5,0-0.7,0
			c-0.3,0-0.4,0.1-0.4,0.3c0,2.3,0,4.6,0,6.8c0,0.1,0,0.2,0,0.3c0.4,0,0.9,0,1.3,0c0-0.1,0-0.2,0-0.4c0-1.2,0-2.4,0-3.6
			c0-0.7,0.2-1.3,0.6-1.8c0.3-0.5,0.8-0.7,1.3-0.7c0.2,0,0.4,0,0.6,0.1C157.5,18.1,157.5,17.7,157.6,17.3z"/>
		<path class="st1" d="M129.8,5.9c0.1-0.4,0.1-0.8,0.2-1.2c-1.4-0.3-2.2,0.3-2.8,1.5c0-0.5-0.1-0.9-0.1-1.4c-0.4,0-0.7,0-1.1,0
			c0,2.5,0,5,0,7.5c0.4,0,0.8,0,1.3,0c0-0.1,0-0.3,0-0.4c0-1.2,0-2.4,0-3.6c0-0.7,0.3-1.3,0.6-1.8c0.2-0.3,0.5-0.5,0.9-0.5
			C129.2,5.9,129.5,5.9,129.8,5.9z"/>
		<path class="st1" d="M145.1,29.8c-0.7,0.3-1.1,0.8-1.4,1.5c0-0.5-0.1-0.9-0.1-1.4c-0.3,0-0.5,0-0.7,0c-0.3,0-0.4,0.1-0.4,0.4
			c0,2.3,0,4.5,0,6.8c0,0.1,0,0.2,0,0.3c0.4,0,0.9,0,1.3,0c0-0.1,0-0.2,0-0.3c0-1.2,0-2.4,0-3.6c0-0.7,0.2-1.3,0.6-1.8
			c0.3-0.4,0.7-0.7,1.3-0.7c0.2,0,0.4,0,0.6,0.1c0.1-0.4,0.2-0.8,0.2-1.2C146,29.7,145.6,29.7,145.1,29.8z"/>
		<path class="st1" d="M139.2,30.3c0-0.1,0-0.2,0-0.2c0-0.1-0.1-0.2-0.2-0.2c-0.4,0-0.7,0-1.1,0c0,2.5,0,5,0,7.5c0.3,0,0.6,0,0.9,0
			c0.3,0,0.4-0.1,0.4-0.4C139.2,34.8,139.2,32.5,139.2,30.3z"/>
		<path class="st1" d="M121.5,12.3c0.4,0,0.8,0,1.2,0c0-2.5,0-5,0-7.5c-0.4,0-0.8,0-1.2,0C121.5,7.3,121.5,9.8,121.5,12.3z"/>
		<path class="st1" d="M122.1,2.9c0.5,0,0.9-0.4,0.9-0.9c0-0.5-0.4-0.9-0.9-0.9c-0.5,0-0.9,0.4-0.9,0.9
			C121.2,2.6,121.6,2.9,122.1,2.9z"/>
		<path class="st1" d="M138.5,26.3c-0.5,0-0.9,0.4-0.9,0.9c0,0.5,0.4,0.9,0.9,0.9c0.5,0,0.9-0.4,0.9-0.9
			C139.5,26.6,139.1,26.3,138.5,26.3z"/>
	</g>
</g>
</svg>
