<?xml version="1.0" encoding="utf-8"?>
<!-- Generator: Adobe Illustrator 25.4.1, SVG Export Plug-In . SVG Version: 6.00 Build 0)  -->
<svg version="1.1" id="Layer_1" xmlns="http://www.w3.org/2000/svg" xmlns:xlink="http://www.w3.org/1999/xlink" x="0px" y="0px"
	 viewBox="0 0 4000 790.6" style="enable-background:new 0 0 4000 790.6;" xml:space="preserve">
<style type="text/css">
	.st0{fill:#3F3F3F;}
</style>
<rect y="1.6" class="st0" width="249.8" height="789"/>
<g>
	<path d="M1280,461.1c15.9-9.2,32.5-17.5,47.5-28c35.2-24.5,59-57.3,68.2-99.9c6.5-29.9,6.7-59.9,2.2-90
		c-9.2-60.6-41.2-104.5-96.6-131.1c-46.4-22.2-96.1-30.4-146.8-31.3c-80.7-1.3-161.4-0.6-242-1c-5.8,0-6.5,2.3-6.5,7.2
		c0.1,218.7,0.1,437.5,0,656.2c0,5.5,1.4,7.2,7.1,7.2c48.2-0.2,96.5-0.1,144.7-0.1c2.1,0,4.2-0.2,7-0.4c0-85.8,0-170.8,0-256.1
		c18.5,0,36.4,0.3,54.2-0.2c6-0.2,8.8,1.9,11.6,7c43.3,81.3,86.9,162.5,130.3,243.7c2.2,4.2,4.6,6.1,9.7,6
		c54.9-0.2,109.9-0.1,164.8-0.1c2,0,3.9-0.2,7.1-0.3c-57-95.6-113.4-190.1-170-285.1C1275.3,463.5,1277.7,462.4,1280,461.1z
		 M1234.6,317.2c-7.6,35.7-30.3,56.2-65.3,63.6c-10,2.1-20.4,3.4-30.7,3.7c-23.1,0.6-46.2,0.2-69.3,0.3c-1.4,0-2.8-0.1-4.6-0.2
		c0-64.4,0-128.5,0-192.9c25.9,0,51.4-0.5,76.8,0.2c16.4,0.4,32.5,3.9,47.9,10.1c27.7,11.3,42.7,32.4,46.8,61.5
		C1238.9,281.4,1238.4,299.4,1234.6,317.2z"/>
	<path d="M589.8,79.9c-5.5,0-7.1,1.9-8.1,6.9c-6.8,32.3-14,64.5-21.1,96.7c-29.5,134.4-58.9,268.9-88.4,403.3
		c-2.8,12.6-5.6,25.2-8.4,37.8c-1.5-1.9-2.1-3.7-2.6-5.6C419.7,441.5,378.3,263.9,337,86.3c-1.2-5-3.1-6.3-8.1-6.3
		c-51.1,0.1-102.2-0.1-153.3-0.1c-2.2,0-4.3,0-7.3,0c0.7,2.9,1,4.5,1.5,6.1c27.9,96.5,55.7,193,83.6,289.5
		c35.5,122.9,71,245.7,106.3,368.6c1.4,5,3.4,6.5,8.6,6.5c61-0.2,122.1-0.2,183.1,0c5.8,0,7.9-1.7,9.4-7.2
		c59.8-215.2,119.7-430.4,179.6-645.6c1.5-5.6,2.9-11.2,4.5-17.3c-2.9-0.1-4.9-0.3-6.9-0.3C688.7,80.1,639.2,80.2,589.8,79.9z"/>
	<path d="M2008.2,192.5c5.5-37.8,10.8-74.7,16.2-111.8c-137.2,0-273.8,0-410.5,0c0,223.4,0,446.1,0,669.2c136.9,0,273.4,0,410.1,0
		c0-37.9,0-75.5,0-113.5c-83.9,0-167.4,0-251.4,0c0-57.6,0-114.4,0-171.9c68.7,0,136.9,0,205.2,0c0-37.1,0-73.5,0-110.6
		c-68.5,0-136.7,0-205.3,0c0-54,0-107.2,0-161.4C1851.3,192.5,1929.7,192.5,2008.2,192.5z"/>
	<path d="M2357.7,411.4c19.2-9.9,30.4-25,31.1-47.1c0.9-26.4-9-46.5-34.7-55.8c-9.4-3.4-19.6-5.9-29.5-6.3
		c-26.1-1.1-52.3-0.9-78.4-1.2c-1.1,0-2.3,0.4-3.2,0.6c0,66,0,131.5,0,197.3c15.4,0,30.4,0,46.5,0c0-25.5,0-50.3,0-75.6
		c4.2,0,7.6,0.4,11-0.1c5.7-0.8,8.6,1.7,11.1,6.6c11.3,21.7,22.9,43.3,34.7,64.8c1.1,2,4,4.2,6.2,4.3c15,0.4,30,0.2,45,0.1
		c0.9,0,1.7-0.4,3.1-0.8c-16.7-28-33-55.4-49.6-83.2C2353.6,413.7,2355.6,412.5,2357.7,411.4z M2318.8,390.3
		c-9.3,1.2-18.9,0.2-28.9,0.2c0-18.5,0-37.4,0-57.6c10.3,0.6,20.1,0.6,29.6,2c14.5,2.2,21.6,11.6,21.5,26.9
		C2340.8,378.3,2333.6,388.4,2318.8,390.3z"/>
	<path d="M2276.2,243.2c0.6,2,2.9,4.9,4.5,4.9c18.2,0.3,36.4,0.2,55,0.2c18.4-66.1,36.7-131.8,55-197.8c-16.3,0-31.8,0-47.6,0
		c-11.7,53.4-23.4,106.5-35,159.6c-0.3,0-0.6-0.1-1-0.1c-0.5-1.7-1.2-3.4-1.6-5.1c-4.1-17.7-8.2-35.5-12.4-53.2
		c-7.4-31.9-14.8-63.9-22.4-95.7c-0.5-2.1-2.5-5.5-3.9-5.5c-15.3-0.4-30.7-0.2-46.4-0.2c0.7,2.8,1.3,4.9,1.9,7
		c8.3,28.8,16.6,57.5,24.9,86.3C2256.9,176.7,2266.4,210,2276.2,243.2z"/>
	<path d="M2359.1,585.3c1.6-11,3.2-21.5,4.9-32.8c-40.8,0-80.8,0-121.1,0c0,66,0,131.6,0,197.5c40.3,0,80.4,0,120.6,0
		c0-11.1,0-21.9,0-33.3c-24.9,0-49.3,0-73.6,0c0-17.3,0-34,0-51.2c20.3,0,40.1,0,60.2,0c0-11,0-21.4,0-32.5c-20.3,0-40.2,0-60.3,0
		c0-16.2,0-31.7,0-47.7C2312.9,585.3,2335.7,585.3,2359.1,585.3z"/>
	<path d="M3513.4,635.2c-0.5-20.5-14.4-36.1-33.1-38.6c-15-2-28.6,1.5-39.7,12.4c-4.3,4.2-8.2,8.8-12.7,13.8
		c-7.1-17.9-19.9-26.7-38.9-26.5c-18.4,0.2-31.4,9.8-42.7,25.4c-0.8-7.1-1.2-12.5-2.1-17.7c-0.3-1.5-1.9-3.9-3.1-4
		c-6.4-0.4-12.8-0.2-19.1-0.2c0,50.7,0,100.4,0,150.6c6.7,0,13-0.3,19.3,0.1c5.1,0.3,6.5-1.4,6.5-6.4c-0.2-31.8-0.2-63.6,0-95.5
		c0-2.7,0.3-5.9,1.8-8c3.8-5.5,7.9-10.8,12.5-15.6c8.3-8.4,18.7-10.8,29.6-6.9c10.3,3.7,12.6,13.3,12.7,22.9
		c0.4,33.6,0.4,67.3,0.5,100.9c0,2.6,0,5.1,0,8c8.9,0,16.9,0,25.8,0c0-2.7,0-4.9,0-7.1c0-30,0-60,0-90c0-14.6,13.8-32,28-35.6
		c15.5-3.8,25.8,3,28.3,18.8c0.7,4.4,1,8.9,1,13.3c0.1,31,0,62,0,93c0,2.4,0,4.8,0,7.4c8.8,0,17,0,25.7,0c0-11.6,0-22.7,0-33.8
		C3513.7,689.2,3514.1,662.2,3513.4,635.2z"/>
	<path d="M3353.7,499.3c5.5,0.4,7.2-1.4,7.2-7.1c-0.3-31.4-0.1-62.8-0.1-94.2c0-2.2-0.4-4.9,0.7-6.5c7.2-11.5,15.7-21.9,29.8-25.1
		c19.2-4.3,30.6,4.4,32.1,24c0.2,2.6,0.1,5.3,0.1,7.9c0,31,0,62,0,93c0,2.4,0,4.8,0,7.5c8.7,0,16.7,0,25.7,0c0-7.2,0-13.9,0-20.5
		c-0.1-31,0.2-62-0.3-93c-0.4-20.9-14.3-36.6-33.7-39.3c-19.4-2.7-36,2.8-49.2,17.7c-1.3,1.5-2.6,2.9-5.3,5.9c0-29.1,0-56.4,0-84.2
		c-9.3,1-17.4,1.9-25.4,2.8c0,70.7,0,140.5,0,211C3341.6,499.2,3347.7,498.9,3353.7,499.3z"/>
	<path d="M2994.1,157c-8.9,0.4-17.9,0.4-26.7,1.6c-31.4,4.4-47.7,24.3-45.1,54.5c1.5,17.1,12.9,31.8,29.7,36.2
		c24.3,6.4,45.8,2,63-20c4.7,14.8,15,20.9,29,22.3c0.7-1.7,1.3-3.2,1.8-4.7c1.4-4.2,2.7-8.4,4-12.5c-11-7.5-12.1-9.6-12.2-23.3
		c0-22.9,0.3-45.8-0.2-68.7c-0.6-28.8-15.3-45-43.9-47.2c-11.5-0.9-23.4,0.6-35,2.2c-8.6,1.2-17,4.4-25.9,6.8
		c2.5,7.1,4.5,12.9,6.6,19c2.9-0.8,5.2-1.8,7.5-2.1c12.7-1.9,25.5-4.5,38.3-5.2c9-0.5,17.7,2.8,22.6,11.7c5,9.1,3.9,19,3.4,29.4
		C3005,156.9,2999.5,156.8,2994.1,157z M3011.2,206.9c-0.2,3.6-3,7.4-5.4,10.5c-10.1,12.8-23.3,17.6-39.3,13.9
		c-7.4-1.7-12.4-6.5-15-13.7c-7.3-20.1,2.6-38.6,23.6-42c11.6-1.9,23.7-1.6,36.4-2.3C3011.5,185.5,3011.9,196.3,3011.2,206.9z"/>
	<path d="M3031.7,596.8c-27-4.1-52.2,6.5-65.7,28.4c-9.6,15.5-12.5,32.7-12.9,50.6c0.8,7.2,1.2,14.5,2.4,21.7
		c5.7,34.5,29,54.9,63.7,56c29.1,0.9,52-14.2,62.1-41.5c8.7-23.6,9-47.7,1.3-71.5C3074.7,615.9,3058,600.8,3031.7,596.8z
		 M3054.8,708.4c-5.3,16.3-17.2,24.3-33.8,24.4c-17.3,0.1-29.2-7.5-34.4-24.2c-3.4-10.9-4.4-22.5-6.6-34.1c2.2-11.4,3.4-23,6.9-33.9
		c5.1-16,17.5-23.8,34.3-23.7c16.3,0.1,28.3,8.1,33.5,24C3062,663.3,3062,686,3054.8,708.4z"/>
	<path d="M2983.7,482.4c0.4-0.5,1-0.9,2.1-1.9c4.8,14.4,14.9,20.6,29.1,21.9c2-6.1,3.8-11.7,5.8-17.7c-10.1-3.9-12.5-11.7-12.4-21.2
		c0.2-22.9,0.3-45.8,0-68.7c-0.3-26.1-11.7-42.1-33.4-47.4c-5.7-1.4-11.6-1.9-17.4-2c-18.4-0.6-36.1,3.4-53.9,10.1
		c2.2,6.3,4.2,12.1,6.3,18.4c3-0.8,5.5-1.7,8-2.1c12.3-1.9,24.7-5,37.1-5.2c16.5-0.2,25.4,8.4,26.8,23.1c0.5,5.6,0.1,11.3,0.1,18
		c-9.8,0-19.1-0.2-28.4,0c-13.3,0.4-26.2,2.5-38,9.1c-17.1,9.5-23.8,24.7-22.8,43.6c1,18.6,9.8,32.1,27.4,38.7
		C2938.8,506.3,2968.1,504.3,2983.7,482.4z M2957.8,481.6c-5.3,1.6-11.3,1.9-16.8,1.3c-14.2-1.5-22-12.9-20.8-29.1
		c1.1-14.2,8.2-23.8,22.4-26.5c12.6-2.4,25.6-2.5,39.5-3.7c0,13,1.8,24.5-0.5,35.1C2979.1,470.4,2969.4,478.1,2957.8,481.6z"/>
	<path d="M2497.2,501.9c15.4-1.8,29-8,41.3-18.1c-3.8-5.2-7.4-10.1-10.9-14.9c-19.6,11.7-39.7,19.5-60.9,6.5
		c-15.1-9.3-18-25.3-19.3-42.5c32.4,0,64.1,0,95.6,0c2.3-13.3,0.7-33.3-3.5-46.3c-8-24.5-25.6-39.2-49-40.8
		c-28.9-2-48.8,8.9-60.8,33c-10,20.2-11.4,41.6-9,63.4c1.4,12.8,5.4,24.9,13,35.5C2449.5,499.6,2472,504.8,2497.2,501.9z
		 M2461.5,373.5c9.6-9.2,21.8-9.7,33.5-5.7c5.7,1.9,11.4,6.4,15.1,11.2c7.6,9.8,8.3,21.9,8.3,34.6c-24,0-47,0-71,0
		C2448.2,398.6,2450.2,384.3,2461.5,373.5z"/>
	<path d="M2779.2,475.7c-15.6-9.2-18.3-25.5-19.9-42.6c32.2,0,63.7,0,95.9,0c2.1-15.2,1.2-29.3-2.6-43c-6-21.8-18.6-37.9-41.7-42.9
		c-23.9-5.1-45.2-0.5-61.3,19.4c-7.9,9.8-12.6,21.2-15.2,33.4c-3.7,17.7-3.9,35.4,0.5,53c8.7,35.4,36,54.1,75.2,48.9
		c15.1-2,28.5-8.2,40.6-18c-3.9-5.3-7.5-10.1-11-15C2820.1,480.5,2800.4,488.2,2779.2,475.7z M2772.8,374.1
		c14.1-14.3,41.6-10.2,51.4,7.6c5.4,9.7,6.4,20.3,6.1,31.8c-23.8,0-47,0-70.9,0C2760.5,398.9,2762.2,384.9,2772.8,374.1z"/>
	<path d="M3639.2,596.6c-27.9-3.4-50,8.8-62.5,35.1c-9.2,19.5-10.4,40.1-8.2,61.2c3.9,36.9,28.1,59.8,64.3,60.6
		c20,0.4,37.6-6.1,53.6-18.7c-3.8-5.2-7.3-10-11.1-15.2c-16.7,10.7-34,16.9-53.3,10.5c-16.5-5.5-27-24.1-26.5-46.4
		c15.7,0,31.5,0,47.2,0c16,0,31.9,0,48.1,0c2.2-12.9,1.1-25.1-1.2-37.3C3684.4,617.8,3666.1,599.9,3639.2,596.6z M3593.6,664.1
		c3.1-10.7,4.9-21,8.9-30.2c5.5-12.6,16.4-17.7,30.1-17.2c13.4,0.5,23.9,6,28.6,18.7c3.3,8.9,4.4,18.6,6.7,28.7
		C3642.6,664.1,3619.3,664.1,3593.6,664.1z"/>
	<path d="M3217.2,596.3c-18.8-0.8-33.9,6.4-45.9,20.6c-1.1,1.3-2.2,2.4-4.1,4.4c-0.7-6.5-1-11.8-1.9-16.9c-0.3-1.7-2.1-4.3-3.3-4.4
		c-6.2-0.5-12.4-0.2-19-0.2c0,50.4,0,100.2,0,150.6c6.5,0,12.8-0.4,19,0.1c5.4,0.4,6.9-1.4,6.8-6.8c-0.2-31.6-0.1-63.3-0.1-94.9
		c0-2.2-0.3-4.8,0.7-6.5c7.1-11.3,15.4-21.5,29.3-24.9c18.7-4.6,30.6,3.8,32.4,22.9c0.3,2.8,0.2,5.7,0.2,8.5c0,31.2,0,62.4,0,93.7
		c0,2.4,0,4.8,0,7.5c8.6,0,16.6,0,25,0c0.3-0.9,0.6-1.3,0.6-1.6c-0.1-38.3,0.6-76.6-0.5-114.9
		C3255.8,611.8,3238.7,597.2,3217.2,596.3z"/>
	<path d="M3860,636.3c-1.8-20-12.3-34.2-29.2-38.4c-17.3-4.3-33.4-1.3-47.5,10c-4.5,3.6-8.7,7.7-13.2,11.7
		c-0.8-6.1-1.6-12.8-2.5-19.7c-7.3,0-14.1,0-21.4,0c0,50.3,0,100.1,0,150c8.5,0,16.5,0,25.2,0c0-2.7,0-5.1,0-7.5
		c0-31.2,0-62.4,0-93.6c0-2-0.4-4.4,0.5-6c7.5-12.1,16.3-23.1,31.3-25.9c19-3.6,29.5,5,30.6,24.3c0.2,3.2,0.2,6.5,0.2,9.7
		c0,30.6,0,61.2,0,91.8c0,2.4,0.2,4.7,0.4,7c8.9,0,17.1,0,25.6,0c0-35.5,0-70.6,0-105.6C3860.2,641.6,3860.2,638.9,3860,636.3z"/>
	<path d="M2516.2,598.2c-15.4-4.1-30.3-2.5-43.6,6.7c-6.2,4.3-11.5,9.9-17.6,15.3c-0.8-6.6-1.7-13.2-2.5-20c-7.4,0-14.4,0-21.4,0
		c0,50.2,0,99.9,0,149.8c8.6,0,16.6,0,25.2,0c0-2.7,0-5.1,0-7.5c0-31.2,0-62.4,0-93.6c0-2-0.4-4.4,0.5-6
		c7.5-12.1,16.3-23.1,31.3-25.9c19-3.6,29.6,5,30.6,24.3c0.2,3,0.2,6.1,0.2,9.1c0,30.8,0,61.6,0,92.4c0,2.3,0.3,4.7,0.4,7.2
		c8.8,0,16.8,0,25.5,0c0-38.2,0.5-75.6-0.2-113.1C2544.3,616.8,2533.1,602.7,2516.2,598.2z"/>
	<path d="M2785.1,250.1c21.1,5.9,43-1.4,56.3-18.9c1.2-1.6,2.4-3.1,4.4-5.9c0.9,8.5,1.6,15.6,2.4,22.7c7.5,0,14.4,0,21.3,0
		c0-50.2,0-100.1,0-149.9c-8.6,0-16.6,0-25.1,0c0,2.8,0,5.2,0,7.5c0,31.4,0,62.8,0,94.2c0,2.2,0.1,4.7-0.9,6.5
		c-6.2,10.6-14,19.7-26.1,23.4c-15.5,4.7-34.1,2.7-34.3-22.3c-0.2-33.8-0.3-67.7-0.4-101.5c0-2.6-0.2-5.1-0.3-7.9
		c-8.6,0-16.6,0-25.2,0c0,38.8-0.6,76.9,0.2,114.9C2757.8,232.3,2769,245.6,2785.1,250.1z"/>
	<path d="M2675.8,491.5c24.3-15.8,24.7-52.1,0.3-67.6c-8.5-5.5-18.6-8.6-28.2-12.3c-7.9-3.1-16.3-5-24.1-8.3
		c-9.3-3.9-13.1-10.4-12.4-18.8c0.6-8.5,5.9-14.6,15.7-17c13.3-3.4,26.1-1.5,38.5,4.1c4.4,2,8.5,4.4,13.1,6.7
		c3.6-5.3,7-10.5,10.4-15.6c-21.2-19.4-62.4-23.2-85.9-8.3c-26.1,16.5-25.5,50.9,1.5,66c7,3.9,14.9,6.2,22.4,9
		c9.5,3.5,19.5,5.8,28.4,10.4c15.1,7.8,14.8,28.7,0,37.1c-9.4,5.4-19.7,5.7-30.1,4.5c-12.5-1.4-23.6-6.5-34.1-13.9
		c-4.6,5.3-9,10.3-13.3,15.2c8.3,8.5,20.7,15,35.7,17.8C2635.4,504.7,2656.6,504,2675.8,491.5z"/>
	<path d="M2695.3,599.6c-3.7-0.1-5.3,1.3-6.3,4.7c-4.8,16.1-9.8,32.1-14.7,48.2c-7.4,24.1-14.9,48.3-22.3,72.4
		c-0.5,0-1.1,0.1-1.6,0.1c-2.6-8.4-5.3-16.8-7.9-25.2c-9.8-31.5-19.5-63-29.4-94.4c-0.7-2.1-2.7-5.3-4.2-5.4
		c-8.2-0.5-16.5-0.3-25.1-0.3c0.4,1.9,0.4,3.1,0.8,4.2c16.4,47.4,32.8,94.8,49.1,142.2c1.1,3.3,2.8,4.3,6.1,4.2
		c6.9-0.2,13.8-0.4,20.7,0c4.6,0.3,6.7-1.3,8.2-5.7c15.5-46.4,31.3-92.7,47-139.1c0.6-1.8,1-3.6,1.6-6
		C2709.4,599.7,2702.4,599.9,2695.3,599.6z"/>
	<path d="M2700.4,228.6c-18.6,6.1-28.7-1.1-28.8-20.7c-0.1-24.1,0-48.2,0-72.3c0-5.6,0-11.3,0-17.9c11.4,0,21.9,0,32.9,0
		c0.9-6.7,1.8-13,2.8-20.1c-12.2,0-23.7,0-35.7,0c0-12.5,0-24.4,0-37c-9,1.1-17.3,2.1-26.1,3.1c0,11.6,0,22.4,0,34.1
		c-8.9,0-17.3,0-25.7,0c0,7,0,13.2,0,20c8.6,0,16.8,0,25.8,0c0,3.2,0,5.8,0,8.4c0.2,30.4,0.2,60.8,0.8,91.1
		c0.2,10.5,4.7,19.6,13.1,26.4c14.8,11.9,45.2,10.6,59.8-2.6c-3.1-5.3-6.2-10.6-9.3-16.2C2706.4,226.3,2703.5,227.6,2700.4,228.6z"
		/>
	<path d="M3990.6,726.7c-4.2,1.6-7.5,3.2-11,4.2c-17.4,5.1-26.6-1.7-27.2-19.7c0-1.2-0.1-2.4-0.1-3.6c0-27.2,0-54.3,0-81.5
		c0-2,0.2-3.9,0.3-6.6c11,0,21.7,0,32.5,0c1-6.8,1.8-12.9,2.8-19.8c-12.2,0-23.6,0-35.8,0c0-12.8,0-24.8,0-37.2
		c-7.4,0.9-14,1.9-20.7,2.3c-4.2,0.2-5.4,1.9-5.3,6c0.3,9.4,0.1,18.9,0.1,29.1c-7.7,0-14.5-0.2-21.3,0.1c-1.7,0.1-4.5,1.7-4.6,2.9
		c-0.5,5.3-0.2,10.7-0.2,16.6c9,0,17,0,26.2,0c0,3.2,0,5.6,0,8c0,28.2-0.2,56.4,0.1,84.5c0.1,14.3,3.8,27.4,16.8,35.8
		c15,9.6,43,7.4,56.9-4.7C3996.9,737.5,3993.7,732,3990.6,726.7z"/>
	<path d="M3256.7,478.8c-21.8,6.8-41.2-1.7-47.9-22c-7.2-21.9-7.1-44.4,0.7-66.2c6.4-17.9,21.3-26.6,39.7-23.3
		c8.9,1.6,17.5,5.6,27.2,8.9c3.2-4.3,7.1-9.4,10.9-14.4c-31.5-28.4-82-19.5-101.2,17.5c-10,19.3-11.5,40-9.2,61
		c3.9,36.2,26.3,65.3,70.5,62.3c15-1,28.2-6.5,40.1-16.3c-4-5.7-7.8-11.1-11.3-16.1C3269.2,473.3,3263.1,476.7,3256.7,478.8z"/>
	<path d="M3098.9,216.7c0,2.4,0,4.9,0.3,7.3c1.3,11.4,6.1,20.8,17.2,25.2c11.7,4.6,23.2,3.5,34.4-2.6c-2.3-6.2-4.5-11.8-6.6-17.3
		c-16.8,2.9-19.4,0.6-19.4-16.1c0-1,0-2,0-3c0-55.9,0-111.8,0-167.8c0-2.6,0-5.1,0-8.5c-9,1-17,2-25.9,3c0,2.3,0,4.1,0,5.9
		C3098.8,100.8,3098.8,158.7,3098.9,216.7z"/>
	<path d="M3153.7,347.1c-9.4-2.3-18.1-2.7-26.5,0.1c-14.7,4.8-22,16.9-28.7,29.9c-0.9-9.2-1.7-18.4-2.7-28.6c-5.3,0-10.2,0.3-15-0.1
		c-5.4-0.5-7.3,1.1-7.3,6.9c0.2,45.6,0.1,91.2,0.1,136.8c0,2.1,0.2,4.3,0.3,6.5c8.8,0,17,0,25.7,0c0-2.7,0-4.9,0-7.1
		c0-23.7,0.1-47.4,0-71.2c-0.1-13.2,4.3-25.1,11.1-36c6-9.7,15.1-14.4,26.7-13.7c3.8,0.2,7.5,0.6,11.7,1
		C3150.7,363.5,3152.2,355.5,3153.7,347.1z"/>
	<path d="M2597.7,120.1c1.4-7.6,3-15.6,4.5-23.9c-27.5-6.5-44.3,5.6-55.3,29.5c-0.9-9.3-1.7-18.6-2.6-27.6c-7.8,0-14.8,0-21.7,0
		c0,50.2,0,99.9,0,149.9c8.4,0,16.5,0,25.6,0c0-2.9,0-5.3,0-7.7c0-24.3-0.2-48.6,0.1-72.9c0.1-13.6,5.1-25.7,12.9-36.6
		c4.4-6.2,10.7-10,18.4-10.6C2585.4,119.8,2591.2,120.1,2597.7,120.1z"/>
	<path d="M2904.2,598.3c-14.3,5-21.5,16.8-28.2,29.7c-0.9-9.2-1.7-18.3-2.7-28.3c-5.3,0-10,0.4-14.6-0.1c-5.7-0.6-7.6,1.2-7.6,7.3
		c0.3,45.4,0.1,90.7,0.1,136.1c0,2.2,0,4.4,0,6.9c9,0,17.1,0,25.9,0c0-2.5,0-4.7,0-6.9c0-23.9,0.1-47.8,0-71.7
		c-0.1-13.4,4.4-25.4,11.5-36.5c5.7-9,14.3-13.6,25.1-13.2c4.2,0.1,8.3,0.6,12.9,1c1.5-8.3,3-16.3,4.5-24.7
		C2921.6,595.7,2912.8,595.3,2904.2,598.3z"/>
	<path d="M2785.4,607.3c0-1.4,0.4-3-0.2-4.2c-0.6-1.3-2.1-3.1-3.2-3.2c-7.2-0.3-14.5-0.1-22.1-0.1c0,50.7,0,100.4,0,150.6
		c6.2,0,12.1-0.4,17.9,0.1c6.3,0.6,7.8-1.7,7.7-7.8C2785.3,697.6,2785.4,652.4,2785.4,607.3z"/>
	<path d="M2431.1,248c8.6,0,16.6,0,24.7,0c0-50.2,0-100.1,0-149.9c-8.5,0-16.5,0-24.7,0C2431.1,148.2,2431.1,198.1,2431.1,248z"/>
	<path d="M2443,60.6c10.7,0.1,18.3-7.2,18.3-17.6c0-10.5-7.3-17.7-18.2-17.7c-10.5,0-18.3,7.6-18.2,17.8
		C2425.1,53.1,2432.7,60.5,2443,60.6z"/>
	<path d="M2772,527.1c-10.5,0.1-17.9,7.6-17.8,18.1c0.1,10.3,7.4,17.1,18.1,17c10.8,0,18.5-7.4,18.3-17.6
		C2790.4,534.4,2782.6,527,2772,527.1z"/>
</g>
</svg>
