<svg id="Layer_1" data-name="Layer 1" xmlns="http://www.w3.org/2000/svg" viewBox="0 0 4000 788.98"><defs><style>.cls-1{fill:#bfd7f4;}.cls-2{fill:#003262;}</style></defs><rect class="cls-1" width="249.85" height="788.98"/><path class="cls-2" d="M1336.84,484.12c15.92-9.24,32.48-17.55,47.55-28,35.25-24.49,59-57.32,68.21-99.88,6.48-29.88,6.74-59.88,2.18-90-9.18-60.63-41.21-104.53-96.6-131.09-46.4-22.24-96.14-30.41-146.84-31.25-80.66-1.34-161.36-.6-242-1-5.8,0-6.51,2.3-6.51,7.16q.13,328.13,0,656.23c0,5.48,1.39,7.19,7.1,7.16,48.24-.23,96.49-.13,144.74-.15,2.12,0,4.24-.23,7-.39V516.84c18.51,0,36.35.3,54.17-.17,6-.15,8.84,1.89,11.57,7q65,121.95,130.28,243.75c2.25,4.21,4.64,6,9.71,6,54.94-.21,109.88-.13,164.81-.14,2,0,3.92-.18,7.08-.34l-170-285.09C1332.18,486.43,1334.6,485.42,1336.84,484.12Zm-45.38-143.93c-7.6,35.65-30.33,56.18-65.29,63.65a167.6,167.6,0,0,1-30.68,3.66c-23.09.56-46.2.23-69.3.25-1.39,0-2.77-.13-4.56-.22V214.6c25.88,0,51.37-.46,76.84.17a134.62,134.62,0,0,1,47.86,10.14c27.72,11.33,42.66,32.36,46.85,61.51A152.79,152.79,0,0,1,1291.46,340.19Z" transform="translate(-56.86 -24.6)"/><path class="cls-2" d="M646.62,102.91c-5.47,0-7.06,1.9-8.12,6.92-6.83,32.28-14,64.49-21.07,96.72L529,609.89c-2.77,12.6-5.61,25.18-8.42,37.78a13.37,13.37,0,0,1-2.57-5.61q-62.17-266.4-124.2-532.82c-1.15-5-3.12-6.32-8.07-6.31-51.09.11-102.18-.05-153.27-.13h-7.25c.7,2.92,1,4.5,1.47,6q41.79,144.74,83.61,289.46Q363.56,582.6,416.67,766.94c1.44,5,3.44,6.54,8.61,6.52q91.53-.29,183.08,0c5.77,0,7.89-1.72,9.41-7.2q89.63-322.85,179.58-645.6c1.55-5.56,2.93-11.16,4.53-17.3-2.87-.14-4.86-.33-6.85-.33C745.56,103,696.09,103.14,646.62,102.91Z" transform="translate(-56.86 -24.6)"/><path class="cls-2" d="M2065.08,215.5c5.49-37.84,10.83-74.66,16.23-111.81H1670.82V772.92h410.07V659.47H1829.44V487.55h205.23V376.94H1829.33V215.5Z" transform="translate(-56.86 -24.6)"/><path class="cls-2" d="M2414.59,434.39c19.16-9.9,30.38-25,31.12-47.1.89-26.44-9-46.53-34.74-55.84a101.19,101.19,0,0,0-29.52-6.28c-26.11-1.13-52.27-.92-78.41-1.2a14.83,14.83,0,0,0-3.18.61V521.92h46.49V446.35c4.17,0,7.64.37,11-.08,5.69-.78,8.57,1.68,11.14,6.64,11.29,21.75,22.92,43.31,34.7,64.8,1.1,2,4,4.23,6.16,4.28,15,.37,30,.19,45,.14a14.16,14.16,0,0,0,3.06-.81l-49.58-83.22C2410.42,436.67,2412.48,435.48,2414.59,434.39Zm-39-21.07c-9.32,1.2-18.92.22-28.92.22v-57.6c10.3.63,20.05.56,29.58,2,14.5,2.15,21.58,11.61,21.51,26.93C2397.71,401.3,2390.46,411.4,2375.62,413.32Z" transform="translate(-56.86 -24.6)"/><path class="cls-2" d="M2333.09,266.14c.58,2,2.91,4.89,4.47,4.92,18.22.35,36.45.22,55,.22,18.38-66.06,36.68-131.82,55-197.79H2400l-35,159.57-1-.08c-.52-1.69-1.15-3.37-1.56-5.09q-6.21-26.61-12.36-53.22c-7.43-31.92-14.83-63.86-22.42-95.75-.51-2.1-2.49-5.48-3.86-5.52-15.32-.39-30.66-.24-46.44-.24.75,2.75,1.3,4.88,1.91,7q12.42,43.17,24.88,86.32C2313.74,199.71,2323.31,233,2333.09,266.14Z" transform="translate(-56.86 -24.6)"/><path class="cls-2" d="M2415.94,608.25c1.63-11,3.2-21.51,4.87-32.79H2299.72V773h120.63V739.63h-73.63v-51.2h60.16V655.92h-60.34V608.25Z" transform="translate(-56.86 -24.6)"/><path class="cls-2" d="M3570.23,658.22c-.54-20.46-14.41-36.12-33.09-38.56-15-2-28.64,1.51-39.73,12.37-4.28,4.2-8.15,8.82-12.67,13.75-7-17.93-19.93-26.74-38.88-26.52-18.37.22-31.42,9.85-42.69,25.37-.78-7.11-1.18-12.48-2.08-17.75-.26-1.51-1.92-3.89-3.06-4-6.36-.38-12.76-.18-19.08-.18v150.6c6.74,0,13-.31,19.25.09,5.06.33,6.52-1.37,6.49-6.44-.22-31.82-.15-63.65,0-95.47,0-2.7.33-5.91,1.78-8A117.52,117.52,0,0,1,3419,648c8.27-8.41,18.67-10.84,29.62-6.88,10.32,3.74,12.56,13.29,12.67,22.93.37,33.64.36,67.28.49,100.92,0,2.57,0,5.13,0,8.05h25.84V675.83c0-14.55,13.75-32,28-35.56,15.46-3.83,25.85,3,28.33,18.85a88.26,88.26,0,0,1,1,13.3q.12,46.51,0,93v7.43h25.73c0-11.56,0-22.68,0-33.81C3570.59,712.13,3570.94,685.16,3570.23,658.22Z" transform="translate(-56.86 -24.6)"/><path class="cls-2" d="M3410.56,522.3c5.55.41,7.24-1.44,7.2-7.07-.25-31.41-.13-62.81-.09-94.22,0-2.21-.38-4.87.66-6.54,7.2-11.54,15.7-21.94,29.82-25.1,19.24-4.3,30.63,4.39,32.14,24,.2,2.62.14,5.27.14,7.9q0,46.5,0,93v7.51h25.71c0-7.23,0-13.87,0-20.52-.06-31,.24-62-.34-93-.4-20.95-14.26-36.6-33.74-39.33s-36,2.82-49.23,17.67c-1.3,1.47-2.63,2.92-5.33,5.91V308.35l-25.39,2.82v211C3398.51,522.2,3404.57,521.85,3410.56,522.3Z" transform="translate(-56.86 -24.6)"/><path class="cls-2" d="M3051,180c-8.9.36-17.87.36-26.66,1.59-31.44,4.37-47.69,24.25-45.11,54.51,1.46,17.1,12.91,31.77,29.71,36.17,24.3,6.37,45.8,2,63-20,4.74,14.76,15,20.9,29,22.31.67-1.69,1.33-3.15,1.82-4.66,1.38-4.19,2.68-8.41,4-12.5-11-7.51-12.14-9.58-12.17-23.31-.05-22.91.31-45.83-.16-68.73-.59-28.81-15.3-45-43.9-47.24-11.54-.9-23.41.61-35,2.24-8.63,1.21-17,4.37-25.93,6.79,2.45,7,4.48,12.87,6.62,19a63.34,63.34,0,0,1,7.51-2.12c12.75-1.89,25.47-4.47,38.3-5.16,9-.48,17.73,2.81,22.56,11.68,5,9.14,3.94,19,3.42,29.35C3061.86,179.92,3056.41,179.75,3051,180Zm17.1,49.94c-.24,3.61-3,7.39-5.44,10.45-10.1,12.78-23.28,17.64-39.25,13.91-7.42-1.73-12.42-6.48-15-13.66-7.32-20.1,2.6-38.6,23.6-42,11.64-1.9,23.65-1.56,36.39-2.28C3068.34,208.52,3068.81,219.25,3068.08,229.9Z" transform="translate(-56.86 -24.6)"/><path class="cls-2" d="M3088.61,619.76c-27-4.08-52.2,6.49-65.73,28.42-9.56,15.48-12.53,32.71-12.93,50.65.77,7.24,1.18,14.54,2.36,21.71,5.66,34.46,29,54.9,63.69,56,29.07.89,52-14.18,62.09-41.49,8.72-23.59,9-47.72,1.34-71.54C3131.53,638.83,3114.84,623.73,3088.61,619.76Zm23.06,111.62c-5.26,16.27-17.18,24.3-33.85,24.38-17.32.08-29.25-7.54-34.42-24.21-3.37-10.88-4.41-22.48-6.56-34.1,2.24-11.44,3.4-23,6.87-33.86,5.15-16.05,17.53-23.82,34.31-23.72,16.28.09,28.32,8.13,33.54,24A107.08,107.08,0,0,1,3111.67,731.38Z" transform="translate(-56.86 -24.6)"/><path class="cls-2" d="M3040.61,505.39a14.77,14.77,0,0,1,2.08-1.85c4.78,14.44,14.95,20.61,29.14,21.92,2-6.06,3.83-11.74,5.77-17.69-10.08-3.92-12.51-11.67-12.44-21.18.18-22.9.27-45.81,0-68.71-.34-26.07-11.7-42.13-33.39-47.39a85.67,85.67,0,0,0-17.44-2c-18.43-.56-36.06,3.37-53.85,10.15,2.17,6.28,4.17,12.09,6.34,18.38a81.12,81.12,0,0,1,8-2.09c12.34-1.91,24.69-5,37.07-5.17,16.46-.2,25.43,8.43,26.85,23.08.54,5.61.09,11.31.09,18-9.83,0-19.11-.2-28.39.05-13.28.36-26.21,2.53-38,9.1-17.14,9.52-23.8,24.65-22.75,43.64,1,18.55,9.78,32.09,27.36,38.66C2995.63,529.24,3024.94,527.32,3040.61,505.39Zm-26-.84a43.54,43.54,0,0,1-16.75,1.35c-14.21-1.52-22-12.92-20.81-29.1,1.08-14.18,8.23-23.79,22.42-26.47,12.58-2.38,25.59-2.52,39.51-3.74,0,13,1.84,24.48-.49,35.06C3036,493.35,3026.29,501.06,3014.65,504.55Z" transform="translate(-56.86 -24.6)"/><path class="cls-2" d="M2554,524.9c15.36-1.76,29-8,41.26-18.12l-10.91-14.92c-19.65,11.66-39.65,19.49-60.87,6.46-15.13-9.28-18-25.29-19.27-42.47h95.62c2.31-13.27.7-33.28-3.54-46.3-8-24.52-25.61-39.21-49-40.84-28.85-2-48.81,8.87-60.77,33-10,20.17-11.38,41.56-9,63.42,1.4,12.84,5.37,24.94,13,35.54C2506.37,522.58,2528.82,527.8,2554,524.9Zm-35.7-128.4c9.65-9.24,21.8-9.66,33.53-5.7,5.72,1.92,11.4,6.38,15.15,11.21,7.63,9.82,8.32,21.9,8.34,34.55h-71C2505.08,421.54,2507.08,407.3,2518.34,396.5Z" transform="translate(-56.86 -24.6)"/><path class="cls-2" d="M2836.1,498.65c-15.59-9.22-18.29-25.51-19.9-42.63h95.85a104.66,104.66,0,0,0-2.63-43c-6-21.77-18.58-37.89-41.72-42.86-23.88-5.12-45.16-.55-61.29,19.39-7.94,9.8-12.64,21.17-15.2,33.41-3.69,17.68-3.86,35.38.49,53,8.74,35.41,36,54.1,75.17,48.87,15.14-2,28.53-8.17,40.57-18l-11-15C2877,503.46,2857.23,511.15,2836.1,498.65Zm-6.39-101.55c14.1-14.33,41.58-10.15,51.37,7.58,5.36,9.7,6.42,20.27,6.09,31.81h-70.92C2817.33,421.87,2819.1,407.89,2829.71,397.1Z" transform="translate(-56.86 -24.6)"/><path class="cls-2" d="M3696,619.58c-27.89-3.43-50,8.82-62.47,35.07-9.23,19.46-10.45,40.11-8.21,61.2,3.91,36.91,28.12,59.84,64.34,60.64,20,.45,37.62-6.07,53.61-18.67-3.78-5.19-7.3-10-11.06-15.2-16.68,10.75-34,16.92-53.26,10.54-16.55-5.48-27-24.13-26.48-46.45h95.31c2.21-12.89,1.1-25.14-1.19-37.28C3741.23,640.8,3722.94,622.9,3696,619.58Zm-45.6,67.53c3.08-10.73,4.93-21,8.94-30.24,5.47-12.65,16.39-17.68,30.08-17.16,13.36.52,23.87,6,28.62,18.66,3.33,8.86,4.41,18.57,6.68,28.74Z" transform="translate(-56.86 -24.6)"/><path class="cls-2" d="M3274,619.27c-18.84-.81-33.86,6.38-45.86,20.58-1.05,1.25-2.22,2.41-4.11,4.44-.67-6.54-1-11.78-1.86-16.91-.29-1.69-2-4.35-3.3-4.44-6.2-.46-12.45-.21-19-.21V773.34c6.5,0,12.76-.36,19,.11,5.41.41,6.86-1.42,6.82-6.78-.24-31.62-.13-63.25-.08-94.88,0-2.2-.31-4.85.74-6.52,7.11-11.34,15.41-21.5,29.28-24.91,18.74-4.61,30.61,3.79,32.42,22.91.27,2.82.21,5.67.21,8.51q0,46.83,0,93.66V773h25a7.11,7.11,0,0,0,.6-1.65c-.07-38.31.58-76.64-.53-114.93C3312.66,634.73,3295.6,620.19,3274,619.27Z" transform="translate(-56.86 -24.6)"/><path class="cls-2" d="M3916.83,659.31c-1.81-20-12.32-34.21-29.19-38.36-17.29-4.25-33.41-1.35-47.5,10-4.52,3.65-8.68,7.74-13.16,11.75-.77-6.11-1.61-12.77-2.49-19.7h-21.38V773h25.21v-7.49q0-46.82,0-93.64c0-2-.42-4.44.52-6,7.5-12.12,16.27-23.06,31.31-25.89,19-3.57,29.5,5,30.64,24.33.19,3.24.2,6.48.21,9.73q0,45.9,0,91.81c0,2.35.25,4.7.38,7H3917c0-35.54,0-70.59,0-105.65C3917,664.57,3917.06,661.92,3916.83,659.31Z" transform="translate(-56.86 -24.6)"/><path class="cls-2" d="M2573.07,621.15c-15.37-4.11-30.3-2.52-43.57,6.72-6.21,4.31-11.51,9.93-17.61,15.3q-1.24-9.84-2.53-20H2488V773h25.22v-7.49q0-46.82,0-93.64c0-2-.43-4.44.51-6C2521.2,653.77,2530,642.83,2545,640c19-3.57,29.57,5,30.63,24.35.17,3,.18,6.07.19,9.11q0,46.21,0,92.43c0,2.34.25,4.69.39,7.15h25.49c0-38.15.54-75.65-.21-113.12C2601.12,639.81,2589.93,625.65,2573.07,621.15Z" transform="translate(-56.86 -24.6)"/><path class="cls-2" d="M2842,273.09a52.25,52.25,0,0,0,56.31-18.92c1.19-1.56,2.37-3.13,4.44-5.87.9,8.48,1.65,15.57,2.4,22.65h21.34V121h-25.15v7.55q0,47.12,0,94.24c0,2.18.11,4.72-.91,6.46-6.16,10.55-14,19.72-26.08,23.4-15.47,4.73-34.11,2.7-34.29-22.34-.24-33.85-.28-67.69-.43-101.53,0-2.56-.21-5.11-.34-7.89H2814c0,38.76-.58,76.86.24,114.93C2814.69,255.27,2825.84,268.57,2842,273.09Z" transform="translate(-56.86 -24.6)"/><path class="cls-2" d="M2732.7,514.43c24.26-15.81,24.66-52.11.33-67.64-8.54-5.45-18.64-8.57-28.21-12.29-7.9-3.07-16.26-5-24.05-8.28-9.3-3.92-13.08-10.35-12.44-18.81s5.86-14.56,15.66-17.05c13.26-3.36,26.14-1.47,38.49,4.14,4.37,2,8.54,4.38,13.09,6.74,3.58-5.34,7-10.5,10.45-15.57-21.19-19.37-62.43-23.16-85.95-8.28-26.12,16.51-25.52,50.92,1.47,66,7,3.91,14.88,6.23,22.45,9,9.46,3.51,19.53,5.77,28.42,10.35,15.11,7.8,14.81,28.67,0,37.13-9.39,5.36-19.65,5.73-30.09,4.53-12.52-1.44-23.62-6.5-34.06-13.92L2635,505.73c8.29,8.49,20.71,15,35.67,17.85C2692.29,527.67,2713.51,527,2732.7,514.43Z" transform="translate(-56.86 -24.6)"/><path class="cls-2" d="M2752.15,622.6c-3.7-.14-5.32,1.26-6.34,4.71-4.78,16.08-9.76,32.11-14.7,48.15q-11.15,36.19-22.32,72.4l-1.6.13c-2.64-8.39-5.3-16.77-7.9-25.17-9.77-31.48-19.46-63-29.36-94.41-.66-2.12-2.65-5.32-4.2-5.42-8.21-.54-16.48-.26-25.05-.26a34.07,34.07,0,0,0,.83,4.22q24.55,71.1,49.08,142.2c1.14,3.34,2.81,4.35,6.13,4.25,6.88-.21,13.79-.37,20.65.05,4.64.28,6.69-1.28,8.18-5.73,15.54-46.39,31.33-92.71,47-139.05.6-1.77,1-3.61,1.64-6C2766.29,622.68,2759.21,622.88,2752.15,622.6Z" transform="translate(-56.86 -24.6)"/><path class="cls-2" d="M2757.31,251.57c-18.6,6.08-28.75-1.15-28.84-20.7-.12-24.11,0-48.22,0-72.33V140.68h32.87c.95-6.72,1.84-13,2.83-20.09h-35.74v-37l-26.11,3.12v34.07h-25.65v20h25.78c0,3.23,0,5.79,0,8.36.22,30.38.18,60.77.79,91.15a33.8,33.8,0,0,0,13.14,26.37c14.78,11.86,45.21,10.62,59.79-2.64l-9.34-16.16C2763.3,249.24,2760.36,250.57,2757.31,251.57Z" transform="translate(-56.86 -24.6)"/><path class="cls-2" d="M4047.51,749.65c-4.21,1.63-7.53,3.19-11,4.21-17.35,5.09-26.61-1.66-27.22-19.71,0-1.21-.07-2.43-.07-3.64q0-40.75,0-81.5c0-2,.19-4,.32-6.63h32.52c1-6.79,1.8-12.88,2.78-19.84H4009V585.38c-7.43.86-14,1.91-20.67,2.29-4.24.24-5.45,1.88-5.33,6,.27,9.45.09,18.91.09,29.05-7.66,0-14.51-.19-21.34.14-1.67.08-4.54,1.74-4.64,2.88-.5,5.33-.23,10.73-.23,16.56h26.2v8c0,28.18-.15,56.36.1,84.54.14,14.33,3.77,27.41,16.8,35.77,15,9.64,43,7.37,56.88-4.66C4053.73,760.47,4050.56,755,4047.51,749.65Z" transform="translate(-56.86 -24.6)"/><path class="cls-2" d="M3313.52,501.74c-21.8,6.85-41.19-1.72-47.89-22a100,100,0,0,1,.67-66.24c6.39-17.87,21.25-26.59,39.74-23.26,8.95,1.61,17.47,5.6,27.2,8.86l10.91-14.45c-31.45-28.44-82-19.45-101.17,17.5-10,19.27-11.48,40-9.25,61,3.85,36.21,26.29,65.27,70.53,62.31,15-1,28.2-6.52,40.06-16.28L3333,493.1C3326.06,496.24,3320,499.7,3313.52,501.74Z" transform="translate(-56.86 -24.6)"/><path class="cls-2" d="M3155.72,239.63a63,63,0,0,0,.26,7.28c1.33,11.39,6.06,20.77,17.21,25.21,11.67,4.64,23.15,3.48,34.37-2.6-2.34-6.15-4.47-11.77-6.55-17.27-16.78,2.87-19.41.61-19.44-16.08,0-1,0-2,0-3V56.92l-25.85,3V65.8Q3155.71,152.71,3155.72,239.63Z" transform="translate(-56.86 -24.6)"/><path class="cls-2" d="M3210.6,370.12c-9.4-2.29-18.06-2.68-26.48.09-14.67,4.83-22,16.87-28.67,29.94-.86-9.22-1.73-18.44-2.69-28.61-5.33,0-10.19.32-15-.09-5.39-.45-7.32,1.1-7.28,6.93.24,45.61.13,91.22.15,136.83,0,2.15.22,4.3.34,6.5h25.68v-7.06c0-23.72.1-47.43,0-71.15-.08-13.23,4.28-25.06,11.08-36,6-9.75,15.12-14.37,26.69-13.68,3.77.22,7.54.64,11.7,1C3207.6,386.51,3209.07,378.47,3210.6,370.12Z" transform="translate(-56.86 -24.6)"/><path class="cls-2" d="M2654.59,143.11c1.43-7.57,2.95-15.6,4.53-23.93-27.51-6.49-44.26,5.6-55.31,29.48-.87-9.28-1.75-18.55-2.6-27.56h-21.73V271h25.64v-7.68c0-24.31-.15-48.63.07-72.94.12-13.57,5.06-25.72,12.91-36.61a24.44,24.44,0,0,1,18.37-10.62C2642.25,142.77,2648.08,143.11,2654.59,143.11Z" transform="translate(-56.86 -24.6)"/><path class="cls-2" d="M2961.05,621.28c-14.32,5-21.53,16.84-28.16,29.69-.88-9.15-1.75-18.3-2.71-28.29-5.32,0-10,.36-14.59-.09-5.73-.56-7.61,1.24-7.58,7.27.25,45.37.14,90.75.14,136.12v6.95h25.9v-6.87c0-23.9.08-47.8,0-71.7-.06-13.43,4.42-25.43,11.46-36.5,5.72-9,14.27-13.58,25.1-13.22,4.18.13,8.35.64,12.93,1,1.53-8.28,3-16.32,4.55-24.68C2978.48,618.71,2969.68,618.25,2961.05,621.28Z" transform="translate(-56.86 -24.6)"/><path class="cls-2" d="M2842.25,630.25c0-1.42.38-3-.18-4.2-.63-1.32-2.09-3.13-3.25-3.17-7.23-.29-14.49-.15-22.09-.15V773.34c6.25,0,12.13-.45,17.91.12,6.3.62,7.77-1.71,7.74-7.77C2842.14,720.55,2842.25,675.4,2842.25,630.25Z" transform="translate(-56.86 -24.6)"/><path class="cls-2" d="M2488,270.93h24.71V121H2488Z" transform="translate(-56.86 -24.6)"/><path class="cls-2" d="M2499.88,83.6c10.71.1,18.32-7.21,18.32-17.59,0-10.54-7.32-17.66-18.16-17.67-10.53,0-18.29,7.59-18.2,17.81C2481.94,76.09,2489.6,83.5,2499.88,83.6Z" transform="translate(-56.86 -24.6)"/><path class="cls-2" d="M2828.86,550.05c-10.52.08-17.93,7.63-17.78,18.13.14,10.26,7.36,17.06,18.06,17s18.47-7.44,18.31-17.62S2839.44,550,2828.86,550.05Z" transform="translate(-56.86 -24.6)"/></svg>