<?xml version="1.0" encoding="utf-8"?>
<!-- Generator: Adobe Illustrator 25.4.1, SVG Export Plug-In . SVG Version: 6.00 Build 0)  -->
<svg version="1.1" id="Layer_1" xmlns="http://www.w3.org/2000/svg" xmlns:xlink="http://www.w3.org/1999/xlink" x="0px" y="0px"
	 viewBox="0 0 500 98.7" style="enable-background:new 0 0 500 98.7;" xml:space="preserve">
<style type="text/css">
	.st0{fill:#3F3F3F;}
</style>
<rect y="0.1" class="st0" width="31.2" height="98.5"/>
<g>
	<path d="M159.8,57.5c2-1.2,4.1-2.2,5.9-3.5c4.4-3.1,7.4-7.2,8.5-12.5c0.8-3.7,0.8-7.5,0.3-11.2c-1.1-7.6-5.1-13.1-12.1-16.4
		c-5.8-2.8-12-3.8-18.3-3.9c-10.1-0.2-20.1-0.1-30.2-0.1c-0.7,0-0.8,0.3-0.8,0.9c0,27.3,0,54.6,0,81.9c0,0.7,0.2,0.9,0.9,0.9
		c6,0,12,0,18.1,0c0.3,0,0.5,0,0.9,0c0-10.7,0-21.3,0-32c2.3,0,4.5,0,6.8,0c0.7,0,1.1,0.2,1.4,0.9c5.4,10.2,10.9,20.3,16.3,30.4
		c0.3,0.5,0.6,0.8,1.2,0.8c6.9,0,13.7,0,20.6,0c0.2,0,0.5,0,0.9,0C173,81.6,165.9,69.8,158.9,58C159.2,57.8,159.5,57.7,159.8,57.5z
		 M154.2,39.5c-0.9,4.5-3.8,7-8.2,7.9c-1.3,0.3-2.5,0.4-3.8,0.5c-2.9,0.1-5.8,0-8.7,0c-0.2,0-0.3,0-0.6,0c0-8,0-16,0-24.1
		c3.2,0,6.4-0.1,9.6,0c2.1,0.1,4.1,0.5,6,1.3c3.5,1.4,5.3,4,5.8,7.7C154.7,35.1,154.6,37.3,154.2,39.5z"/>
	<path d="M73.6,9.9c-0.7,0-0.9,0.2-1,0.9c-0.9,4-1.7,8.1-2.6,12.1c-3.7,16.8-7.4,33.6-11,50.4c-0.3,1.6-0.7,3.1-1.1,4.7
		c-0.2-0.2-0.3-0.5-0.3-0.7C52.4,55,47.2,32.9,42.1,10.7c-0.1-0.6-0.4-0.8-1-0.8c-6.4,0-12.8,0-19.1,0c-0.3,0-0.5,0-0.9,0
		c0.1,0.4,0.1,0.6,0.2,0.8c3.5,12,7,24.1,10.4,36.1c4.4,15.3,8.9,30.7,13.3,46c0.2,0.6,0.4,0.8,1.1,0.8c7.6,0,15.2,0,22.9,0
		c0.7,0,1-0.2,1.2-0.9C77.5,65.8,85,39,92.5,12.1c0.2-0.7,0.4-1.4,0.6-2.2c-0.4,0-0.6,0-0.9,0C86,9.9,79.8,9.9,73.6,9.9z"/>
	<path d="M250.8,23.9c0.7-4.7,1.4-9.3,2-14c-17.1,0-34.2,0-51.3,0c0,27.9,0,55.7,0,83.6c17.1,0,34.1,0,51.2,0c0-4.7,0-9.4,0-14.2
		c-10.5,0-20.9,0-31.4,0c0-7.2,0-14.3,0-21.5c8.6,0,17.1,0,25.6,0c0-4.6,0-9.2,0-13.8c-8.6,0-17.1,0-25.6,0c0-6.7,0-13.4,0-20.2
		C231.2,23.9,241,23.9,250.8,23.9z"/>
	<path d="M294.4,51.3c2.4-1.2,3.8-3.1,3.9-5.9c0.1-3.3-1.1-5.8-4.3-7c-1.2-0.4-2.4-0.7-3.7-0.8c-3.3-0.1-6.5-0.1-9.8-0.1
		c-0.1,0-0.3,0.1-0.4,0.1c0,8.2,0,16.4,0,24.6c1.9,0,3.8,0,5.8,0c0-3.2,0-6.3,0-9.4c0.5,0,1,0,1.4,0c0.7-0.1,1.1,0.2,1.4,0.8
		c1.4,2.7,2.9,5.4,4.3,8.1c0.1,0.3,0.5,0.5,0.8,0.5c1.9,0,3.7,0,5.6,0c0.1,0,0.2-0.1,0.4-0.1c-2.1-3.5-4.1-6.9-6.2-10.4
		C293.9,51.6,294.1,51.4,294.4,51.3z M289.5,48.6c-1.2,0.1-2.4,0-3.6,0c0-2.3,0-4.7,0-7.2c1.3,0.1,2.5,0.1,3.7,0.2
		c1.8,0.3,2.7,1.4,2.7,3.4C292.3,47.1,291.4,48.4,289.5,48.6z"/>
	<path d="M284.2,30.3c0.1,0.2,0.4,0.6,0.6,0.6c2.3,0,4.6,0,6.9,0c2.3-8.2,4.6-16.5,6.9-24.7c-2,0-4,0-5.9,0
		c-1.5,6.7-2.9,13.3-4.4,19.9c0,0-0.1,0-0.1,0c-0.1-0.2-0.1-0.4-0.2-0.6c-0.5-2.2-1-4.4-1.5-6.6c-0.9-4-1.9-8-2.8-12
		c-0.1-0.3-0.3-0.7-0.5-0.7c-1.9,0-3.8,0-5.8,0c0.1,0.3,0.2,0.6,0.2,0.9c1,3.6,2.1,7.2,3.1,10.8C281.8,22,283,26.1,284.2,30.3z"/>
	<path d="M294.6,73c0.2-1.4,0.4-2.7,0.6-4.1c-5.1,0-10.1,0-15.1,0c0,8.2,0,16.4,0,24.7c5,0,10,0,15.1,0c0-1.4,0-2.7,0-4.2
		c-3.1,0-6.2,0-9.2,0c0-2.2,0-4.2,0-6.4c2.5,0,5,0,7.5,0c0-1.4,0-2.7,0-4.1c-2.5,0-5,0-7.5,0c0-2,0-4,0-6
		C288.8,73,291.7,73,294.6,73z"/>
	<path d="M438.7,79.2c-0.1-2.6-1.8-4.5-4.1-4.8c-1.9-0.2-3.6,0.2-5,1.5c-0.5,0.5-1,1.1-1.6,1.7c-0.9-2.2-2.5-3.3-4.9-3.3
		c-2.3,0-3.9,1.2-5.3,3.2c-0.1-0.9-0.1-1.6-0.3-2.2c0-0.2-0.2-0.5-0.4-0.5c-0.8,0-1.6,0-2.4,0c0,6.3,0,12.5,0,18.8
		c0.8,0,1.6,0,2.4,0c0.6,0,0.8-0.2,0.8-0.8c0-4,0-7.9,0-11.9c0-0.3,0-0.7,0.2-1c0.5-0.7,1-1.4,1.6-1.9c1-1.1,2.3-1.4,3.7-0.9
		c1.3,0.5,1.6,1.7,1.6,2.9c0,4.2,0,8.4,0.1,12.6c0,0.3,0,0.6,0,1c1.1,0,2.1,0,3.2,0c0-0.3,0-0.6,0-0.9c0-3.7,0-7.5,0-11.2
		c0-1.8,1.7-4,3.5-4.4c1.9-0.5,3.2,0.4,3.5,2.4c0.1,0.5,0.1,1.1,0.1,1.7c0,3.9,0,7.7,0,11.6c0,0.3,0,0.6,0,0.9c1.1,0,2.1,0,3.2,0
		c0-1.4,0-2.8,0-4.2C438.7,86,438.8,82.6,438.7,79.2z"/>
	<path d="M418.8,62.3c0.7,0.1,0.9-0.2,0.9-0.9c0-3.9,0-7.8,0-11.8c0-0.3,0-0.6,0.1-0.8c0.9-1.4,2-2.7,3.7-3.1c2.4-0.5,3.8,0.5,4,3
		c0,0.3,0,0.7,0,1c0,3.9,0,7.7,0,11.6c0,0.3,0,0.6,0,0.9c1.1,0,2.1,0,3.2,0c0-0.9,0-1.7,0-2.6c0-3.9,0-7.7,0-11.6
		c0-2.6-1.8-4.6-4.2-4.9c-2.4-0.3-4.5,0.4-6.1,2.2c-0.2,0.2-0.3,0.4-0.7,0.7c0-3.6,0-7,0-10.5c-1.2,0.1-2.2,0.2-3.2,0.4
		c0,8.8,0,17.5,0,26.4C417.3,62.2,418,62.2,418.8,62.3z"/>
	<path d="M373.9,19.5c-1.1,0-2.2,0-3.3,0.2c-3.9,0.5-6,3-5.6,6.8c0.2,2.1,1.6,4,3.7,4.5c3,0.8,5.7,0.2,7.9-2.5
		c0.6,1.8,1.9,2.6,3.6,2.8c0.1-0.2,0.2-0.4,0.2-0.6c0.2-0.5,0.3-1,0.5-1.6c-1.4-0.9-1.5-1.2-1.5-2.9c0-2.9,0-5.7,0-8.6
		c-0.1-3.6-1.9-5.6-5.5-5.9c-1.4-0.1-2.9,0.1-4.4,0.3c-1.1,0.2-2.1,0.5-3.2,0.8c0.3,0.9,0.6,1.6,0.8,2.4c0.4-0.1,0.6-0.2,0.9-0.3
		c1.6-0.2,3.2-0.6,4.8-0.6c1.1-0.1,2.2,0.4,2.8,1.5c0.6,1.1,0.5,2.4,0.4,3.7C375.2,19.5,374.5,19.5,373.9,19.5z M376,25.7
		c0,0.5-0.4,0.9-0.7,1.3c-1.3,1.6-2.9,2.2-4.9,1.7c-0.9-0.2-1.6-0.8-1.9-1.7c-0.9-2.5,0.3-4.8,2.9-5.2c1.5-0.2,3-0.2,4.5-0.3
		C376,23.1,376.1,24.4,376,25.7z"/>
	<path d="M378.6,74.4c-3.4-0.5-6.5,0.8-8.2,3.5c-1.2,1.9-1.6,4.1-1.6,6.3c0.1,0.9,0.1,1.8,0.3,2.7c0.7,4.3,3.6,6.9,8,7
		c3.6,0.1,6.5-1.8,7.8-5.2c1.1-2.9,1.1-6,0.2-8.9C383.9,76.8,381.8,74.9,378.6,74.4z M381.4,88.4c-0.7,2-2.1,3-4.2,3
		c-2.2,0-3.7-0.9-4.3-3c-0.4-1.4-0.6-2.8-0.8-4.3c0.3-1.4,0.4-2.9,0.9-4.2c0.6-2,2.2-3,4.3-3c2,0,3.5,1,4.2,3
		C382.3,82.7,382.3,85.6,381.4,88.4z"/>
	<path d="M372.6,60.1c0-0.1,0.1-0.1,0.3-0.2c0.6,1.8,1.9,2.6,3.6,2.7c0.2-0.8,0.5-1.5,0.7-2.2c-1.3-0.5-1.6-1.5-1.6-2.6
		c0-2.9,0-5.7,0-8.6c0-3.3-1.5-5.3-4.2-5.9c-0.7-0.2-1.4-0.2-2.2-0.3c-2.3-0.1-4.5,0.4-6.7,1.3c0.3,0.8,0.5,1.5,0.8,2.3
		c0.4-0.1,0.7-0.2,1-0.3c1.5-0.2,3.1-0.6,4.6-0.6c2.1,0,3.2,1.1,3.4,2.9c0.1,0.7,0,1.4,0,2.3c-1.2,0-2.4,0-3.5,0
		c-1.7,0-3.3,0.3-4.7,1.1c-2.1,1.2-3,3.1-2.8,5.4c0.1,2.3,1.2,4,3.4,4.8C367,63.1,370.6,62.9,372.6,60.1z M369.3,60
		c-0.7,0.2-1.4,0.2-2.1,0.2c-1.8-0.2-2.8-1.6-2.6-3.6c0.1-1.8,1-3,2.8-3.3c1.6-0.3,3.2-0.3,4.9-0.5c0,1.6,0.2,3.1-0.1,4.4
		C372,58.6,370.8,59.6,369.3,60z"/>
	<path d="M311.8,62.6c1.9-0.2,3.6-1,5.2-2.3c-0.5-0.7-0.9-1.3-1.4-1.9c-2.5,1.5-5,2.4-7.6,0.8c-1.9-1.2-2.2-3.2-2.4-5.3
		c4,0,8,0,11.9,0c0.3-1.7,0.1-4.2-0.4-5.8c-1-3.1-3.2-4.9-6.1-5.1c-3.6-0.3-6.1,1.1-7.6,4.1c-1.2,2.5-1.4,5.2-1.1,7.9
		c0.2,1.6,0.7,3.1,1.6,4.4C305.9,62.3,308.7,62.9,311.8,62.6z M307.4,46.5c1.2-1.2,2.7-1.2,4.2-0.7c0.7,0.2,1.4,0.8,1.9,1.4
		c1,1.2,1,2.7,1,4.3c-3,0-5.9,0-8.9,0C305.7,49.7,306,47.9,307.4,46.5z"/>
	<path d="M347,59.3c-1.9-1.2-2.3-3.2-2.5-5.3c4,0,8,0,12,0c0.3-1.9,0.1-3.7-0.3-5.4c-0.8-2.7-2.3-4.7-5.2-5.4
		c-3-0.6-5.6-0.1-7.7,2.4c-1,1.2-1.6,2.6-1.9,4.2c-0.5,2.2-0.5,4.4,0.1,6.6c1.1,4.4,4.5,6.8,9.4,6.1c1.9-0.3,3.6-1,5.1-2.2
		c-0.5-0.7-0.9-1.3-1.4-1.9C352.1,59.9,349.7,60.9,347,59.3z M346.2,46.6c1.8-1.8,5.2-1.3,6.4,0.9c0.7,1.2,0.8,2.5,0.8,4
		c-3,0-5.9,0-8.9,0C344.7,49.7,344.9,48,346.2,46.6z"/>
	<path d="M454.4,74.4c-3.5-0.4-6.2,1.1-7.8,4.4c-1.2,2.4-1.3,5-1,7.6c0.5,4.6,3.5,7.5,8,7.6c2.5,0.1,4.7-0.8,6.7-2.3
		c-0.5-0.6-0.9-1.3-1.4-1.9c-2.1,1.3-4.2,2.1-6.7,1.3c-2.1-0.7-3.4-3-3.3-5.8c2,0,3.9,0,5.9,0c2,0,4,0,6,0c0.3-1.6,0.1-3.1-0.1-4.7
		C460.1,77.1,457.8,74.8,454.4,74.4z M448.7,82.8c0.4-1.3,0.6-2.6,1.1-3.8c0.7-1.6,2-2.2,3.8-2.1c1.7,0.1,3,0.8,3.6,2.3
		c0.4,1.1,0.6,2.3,0.8,3.6C454.8,82.8,451.9,82.8,448.7,82.8z"/>
	<path d="M401.7,74.4c-2.4-0.1-4.2,0.8-5.7,2.6c-0.1,0.2-0.3,0.3-0.5,0.6c-0.1-0.8-0.1-1.5-0.2-2.1c0-0.2-0.3-0.5-0.4-0.6
		c-0.8-0.1-1.6,0-2.4,0c0,6.3,0,12.5,0,18.8c0.8,0,1.6,0,2.4,0c0.7,0.1,0.9-0.2,0.9-0.8c0-3.9,0-7.9,0-11.8c0-0.3,0-0.6,0.1-0.8
		c0.9-1.4,1.9-2.7,3.7-3.1c2.3-0.6,3.8,0.5,4,2.9c0,0.4,0,0.7,0,1.1c0,3.9,0,7.8,0,11.7c0,0.3,0,0.6,0,0.9c1.1,0,2.1,0,3.1,0
		c0-0.1,0.1-0.2,0.1-0.2c0-4.8,0.1-9.6-0.1-14.4C406.5,76.3,404.4,74.5,401.7,74.4z"/>
	<path d="M482,79.4c-0.2-2.5-1.5-4.3-3.6-4.8c-2.2-0.5-4.2-0.2-5.9,1.3c-0.6,0.5-1.1,1-1.6,1.5c-0.1-0.8-0.2-1.6-0.3-2.5
		c-0.9,0-1.8,0-2.7,0c0,6.3,0,12.5,0,18.7c1.1,0,2.1,0,3.1,0c0-0.3,0-0.6,0-0.9c0-3.9,0-7.8,0-11.7c0-0.3-0.1-0.6,0.1-0.7
		c0.9-1.5,2-2.9,3.9-3.2c2.4-0.4,3.7,0.6,3.8,3c0,0.4,0,0.8,0,1.2c0,3.8,0,7.6,0,11.5c0,0.3,0,0.6,0,0.9c1.1,0,2.1,0,3.2,0
		c0-4.4,0-8.8,0-13.2C482,80,482,79.7,482,79.4z"/>
	<path d="M314.2,74.6c-1.9-0.5-3.8-0.3-5.4,0.8c-0.8,0.5-1.4,1.2-2.2,1.9c-0.1-0.8-0.2-1.7-0.3-2.5c-0.9,0-1.8,0-2.7,0
		c0,6.3,0,12.5,0,18.7c1.1,0,2.1,0,3.1,0c0-0.3,0-0.6,0-0.9c0-3.9,0-7.8,0-11.7c0-0.3-0.1-0.6,0.1-0.7c0.9-1.5,2-2.9,3.9-3.2
		c2.4-0.4,3.7,0.6,3.8,3c0,0.4,0,0.8,0,1.1c0,3.8,0,7.7,0,11.5c0,0.3,0,0.6,0,0.9c1.1,0,2.1,0,3.2,0c0-4.8,0.1-9.4,0-14.1
		C317.7,76.9,316.3,75.2,314.2,74.6z"/>
	<path d="M347.8,31.1c2.6,0.7,5.4-0.2,7-2.4c0.1-0.2,0.3-0.4,0.6-0.7c0.1,1.1,0.2,1.9,0.3,2.8c0.9,0,1.8,0,2.7,0
		c0-6.3,0-12.5,0-18.7c-1.1,0-2.1,0-3.1,0c0,0.3,0,0.6,0,0.9c0,3.9,0,7.8,0,11.8c0,0.3,0,0.6-0.1,0.8c-0.8,1.3-1.8,2.5-3.3,2.9
		c-1.9,0.6-4.3,0.3-4.3-2.8c0-4.2,0-8.5-0.1-12.7c0-0.3,0-0.6,0-1c-1.1,0-2.1,0-3.2,0c0,4.8-0.1,9.6,0,14.4
		C344.4,28.9,345.8,30.6,347.8,31.1z"/>
	<path d="M334.1,61.3c3-2,3.1-6.5,0-8.4c-1.1-0.7-2.3-1.1-3.5-1.5c-1-0.4-2-0.6-3-1c-1.2-0.5-1.6-1.3-1.6-2.3c0.1-1.1,0.7-1.8,2-2.1
		c1.7-0.4,3.3-0.2,4.8,0.5c0.5,0.2,1.1,0.5,1.6,0.8c0.4-0.7,0.9-1.3,1.3-1.9c-2.6-2.4-7.8-2.9-10.7-1c-3.3,2.1-3.2,6.4,0.2,8.2
		c0.9,0.5,1.9,0.8,2.8,1.1c1.2,0.4,2.4,0.7,3.5,1.3c1.9,1,1.8,3.6,0,4.6c-1.2,0.7-2.5,0.7-3.8,0.6c-1.6-0.2-2.9-0.8-4.3-1.7
		c-0.6,0.7-1.1,1.3-1.7,1.9c1,1.1,2.6,1.9,4.5,2.2C329.1,62.9,331.7,62.8,334.1,61.3z"/>
	<path d="M336.6,74.8c-0.5,0-0.7,0.2-0.8,0.6c-0.6,2-1.2,4-1.8,6c-0.9,3-1.9,6-2.8,9c-0.1,0-0.1,0-0.2,0c-0.3-1-0.7-2.1-1-3.1
		c-1.2-3.9-2.4-7.9-3.7-11.8c-0.1-0.3-0.3-0.7-0.5-0.7c-1-0.1-2.1,0-3.1,0c0,0.2,0.1,0.4,0.1,0.5c2,5.9,4.1,11.8,6.1,17.8
		c0.1,0.4,0.4,0.5,0.8,0.5c0.9,0,1.7,0,2.6,0c0.6,0,0.8-0.2,1-0.7c1.9-5.8,3.9-11.6,5.9-17.4c0.1-0.2,0.1-0.5,0.2-0.7
		C338.3,74.8,337.4,74.8,336.6,74.8z"/>
	<path d="M337.2,28.5c-2.3,0.8-3.6-0.1-3.6-2.6c0-3,0-6,0-9c0-0.7,0-1.4,0-2.2c1.4,0,2.7,0,4.1,0c0.1-0.8,0.2-1.6,0.4-2.5
		c-1.5,0-3,0-4.5,0c0-1.6,0-3,0-4.6c-1.1,0.1-2.2,0.3-3.3,0.4c0,1.4,0,2.8,0,4.3c-1.1,0-2.2,0-3.2,0c0,0.9,0,1.6,0,2.5
		c1.1,0,2.1,0,3.2,0c0,0.4,0,0.7,0,1c0,3.8,0,7.6,0.1,11.4c0,1.3,0.6,2.5,1.6,3.3c1.8,1.5,5.6,1.3,7.5-0.3c-0.4-0.7-0.8-1.3-1.2-2
		C337.9,28.2,337.6,28.3,337.2,28.5z"/>
	<path d="M498.3,90.6c-0.5,0.2-0.9,0.4-1.4,0.5c-2.2,0.6-3.3-0.2-3.4-2.5c0-0.2,0-0.3,0-0.5c0-3.4,0-6.8,0-10.2c0-0.2,0-0.5,0-0.8
		c1.4,0,2.7,0,4.1,0c0.1-0.8,0.2-1.6,0.3-2.5c-1.5,0-3,0-4.5,0c0-1.6,0-3.1,0-4.6c-0.9,0.1-1.8,0.2-2.6,0.3c-0.5,0-0.7,0.2-0.7,0.7
		c0,1.2,0,2.4,0,3.6c-1,0-1.8,0-2.7,0c-0.2,0-0.6,0.2-0.6,0.4c-0.1,0.7,0,1.3,0,2.1c1.1,0,2.1,0,3.3,0c0,0.4,0,0.7,0,1
		c0,3.5,0,7,0,10.6c0,1.8,0.5,3.4,2.1,4.5c1.9,1.2,5.4,0.9,7.1-0.6C499.1,92,498.7,91.3,498.3,90.6z"/>
	<path d="M406.6,59.7c-2.7,0.9-5.1-0.2-6-2.7c-0.9-2.7-0.9-5.5,0.1-8.3c0.8-2.2,2.7-3.3,5-2.9c1.1,0.2,2.2,0.7,3.4,1.1
		c0.4-0.5,0.9-1.2,1.4-1.8c-3.9-3.6-10.2-2.4-12.6,2.2c-1.2,2.4-1.4,5-1.2,7.6c0.5,4.5,3.3,8.2,8.8,7.8c1.9-0.1,3.5-0.8,5-2
		c-0.5-0.7-1-1.4-1.4-2C408.2,59,407.5,59.4,406.6,59.7z"/>
	<path d="M386.9,27c0,0.3,0,0.6,0,0.9c0.2,1.4,0.8,2.6,2.1,3.1c1.5,0.6,2.9,0.4,4.3-0.3c-0.3-0.8-0.6-1.5-0.8-2.2
		c-2.1,0.4-2.4,0.1-2.4-2c0-0.1,0-0.3,0-0.4c0-7,0-14,0-20.9c0-0.3,0-0.6,0-1.1c-1.1,0.1-2.1,0.2-3.2,0.4c0,0.3,0,0.5,0,0.7
		C386.9,12.5,386.9,19.7,386.9,27z"/>
	<path d="M393.8,43.3c-1.2-0.3-2.3-0.3-3.3,0c-1.8,0.6-2.7,2.1-3.6,3.7c-0.1-1.2-0.2-2.3-0.3-3.6c-0.7,0-1.3,0-1.9,0
		c-0.7-0.1-0.9,0.1-0.9,0.9c0,5.7,0,11.4,0,17.1c0,0.3,0,0.5,0,0.8c1.1,0,2.1,0,3.2,0c0-0.3,0-0.6,0-0.9c0-3,0-5.9,0-8.9
		c0-1.7,0.5-3.1,1.4-4.5c0.8-1.2,1.9-1.8,3.3-1.7c0.5,0,0.9,0.1,1.5,0.1C393.4,45.3,393.6,44.3,393.8,43.3z"/>
	<path d="M324.4,14.9c0.2-0.9,0.4-1.9,0.6-3c-3.4-0.8-5.5,0.7-6.9,3.7c-0.1-1.2-0.2-2.3-0.3-3.4c-1,0-1.9,0-2.7,0
		c0,6.3,0,12.5,0,18.7c1.1,0,2.1,0,3.2,0c0-0.4,0-0.7,0-1c0-3,0-6.1,0-9.1c0-1.7,0.6-3.2,1.6-4.6c0.6-0.8,1.3-1.3,2.3-1.3
		C322.8,14.9,323.6,14.9,324.4,14.9z"/>
	<path d="M362.6,74.6c-1.8,0.6-2.7,2.1-3.5,3.7c-0.1-1.1-0.2-2.3-0.3-3.5c-0.7,0-1.2,0-1.8,0c-0.7-0.1-1,0.2-0.9,0.9
		c0,5.7,0,11.3,0,17c0,0.3,0,0.5,0,0.9c1.1,0,2.1,0,3.2,0c0-0.3,0-0.6,0-0.9c0-3,0-6,0-9c0-1.7,0.6-3.2,1.4-4.6
		c0.7-1.1,1.8-1.7,3.1-1.7c0.5,0,1,0.1,1.6,0.1c0.2-1,0.4-2,0.6-3.1C364.8,74.3,363.7,74.2,362.6,74.6z"/>
	<path d="M347.8,75.7c0-0.2,0-0.4,0-0.5c-0.1-0.2-0.3-0.4-0.4-0.4c-0.9,0-1.8,0-2.8,0c0,6.3,0,12.5,0,18.8c0.8,0,1.5-0.1,2.2,0
		c0.8,0.1,1-0.2,1-1C347.8,87,347.8,81.4,347.8,75.7z"/>
	<path d="M303.6,30.9c1.1,0,2.1,0,3.1,0c0-6.3,0-12.5,0-18.7c-1.1,0-2.1,0-3.1,0C303.6,18.4,303.6,24.6,303.6,30.9z"/>
	<path d="M305.1,7.5c1.3,0,2.3-0.9,2.3-2.2c0-1.3-0.9-2.2-2.3-2.2c-1.3,0-2.3,0.9-2.3,2.2C302.8,6.5,303.8,7.5,305.1,7.5z"/>
	<path d="M346.1,65.7c-1.3,0-2.2,1-2.2,2.3c0,1.3,0.9,2.1,2.3,2.1c1.3,0,2.3-0.9,2.3-2.2C348.4,66.6,347.5,65.7,346.1,65.7z"/>
</g>
</svg>
