<svg id="Layer_1" data-name="Layer 1" xmlns="http://www.w3.org/2000/svg" viewBox="0 0 1664.06 648.52"><defs><style>.cls-1{fill:#ccc;}.cls-2{fill:#fff;}</style></defs><rect class="cls-1" width="205.37" height="648.52"/><path class="cls-2" d="M1055.12,380.81c13.08-7.59,26.7-14.42,39.08-23,29-20.13,48.48-47.13,56.07-82.1,5.33-24.56,5.54-49.23,1.79-74-7.55-49.83-33.87-85.92-79.4-107.74-38.14-18.29-79-25-120.7-25.7-66.3-1.1-132.64-.49-199-.79-4.76,0-5.35,1.89-5.34,5.89q.11,269.7,0,539.4c0,4.51,1.14,5.91,5.84,5.89,39.65-.19,79.31-.11,119-.12,1.74,0,3.49-.19,5.75-.32V407.71c15.22,0,29.88.25,44.52-.14,4.91-.12,7.27,1.55,9.51,5.77q53.43,100.25,107.09,200.36c1.85,3.46,3.81,5,8,5,45.16-.18,90.32-.11,135.48-.12,1.61,0,3.22-.15,5.81-.28-46.88-78.59-93.22-156.3-139.76-234.33C1051.29,382.71,1053.27,381.88,1055.12,380.81Zm-37.31-118.3c-6.24,29.3-24.93,46.18-53.66,52.32a138.1,138.1,0,0,1-25.22,3c-19,.46-38,.19-57,.2-1.13,0-2.27-.11-3.74-.18V159.28c21.27,0,42.23-.38,63.16.13a110.72,110.72,0,0,1,39.34,8.34c22.78,9.31,35.06,26.6,38.51,50.56A125.32,125.32,0,0,1,1017.81,262.51Z" transform="translate(-3 -3.1)"/><path class="cls-2" d="M487.77,67.47c-4.49,0-5.81,1.56-6.68,5.69-5.6,26.53-11.51,53-17.32,79.5Q427.44,318.43,391.1,484.19c-2.27,10.36-4.61,20.71-6.92,31.06a11,11,0,0,1-2.11-4.61Q331,291.67,280,72.67c-.94-4.07-2.57-5.19-6.63-5.18-42,.08-84,0-126-.11h-6c.58,2.4.84,3.7,1.21,5q34.35,119,68.73,237.93,43.75,151.49,87.41,303c1.19,4.13,2.83,5.37,7.08,5.36q75.24-.24,150.49,0c4.75,0,6.48-1.41,7.73-5.91Q537.73,347.38,611.67,82.08c1.27-4.56,2.41-9.17,3.73-14.21-2.37-.12-4-.28-5.64-.28C569.1,67.58,528.43,67.66,487.77,67.47Z" transform="translate(-3 -3.1)"/><path class="cls-2" d="M1653.72,160c4.51-31.1,8.9-61.37,13.34-91.9H1329.65v550.1h337.06V525H1460V383.64h168.69V292.72H1459.94V160Z" transform="translate(-3 -3.1)"/></svg>