<svg id="Layer_1" data-name="Layer 1" xmlns="http://www.w3.org/2000/svg" viewBox="0 0 499.47 98.52"><defs><style>.cls-1{fill:#ccc;}.cls-2{fill:#fff;}</style></defs><rect class="cls-1" width="31.2" height="98.52"/><path class="cls-2" d="M159.83,57.49c2-1.15,4-2.19,5.93-3.5a19.94,19.94,0,0,0,8.52-12.47,30.79,30.79,0,0,0,.27-11.24,20.55,20.55,0,0,0-12.06-16.37A43.64,43.64,0,0,0,144.16,10c-10.08-.17-20.15-.07-30.23-.12-.72,0-.81.29-.81.9q0,41,0,81.94c0,.68.17.89.88.89,6,0,12,0,18.08,0,.26,0,.53,0,.87,0v-32c2.31,0,4.54,0,6.76,0a1.37,1.37,0,0,1,1.45.87q8.11,15.23,16.27,30.44a1.19,1.19,0,0,0,1.21.75c6.86,0,13.72,0,20.58,0,.24,0,.49,0,.88,0L158.87,58C159.25,57.78,159.55,57.65,159.83,57.49Zm-5.67-18c-.95,4.45-3.79,7-8.15,7.95a21.52,21.52,0,0,1-3.83.45c-2.89.07-5.77,0-8.66,0-.17,0-.34,0-.57,0V23.84c3.24,0,6.42-.06,9.6,0a16.94,16.94,0,0,1,6,1.26,9.14,9.14,0,0,1,5.85,7.68A19.21,19.21,0,0,1,154.16,39.52Z" transform="translate(0 -0.11)"/><path class="cls-2" d="M73.64,9.89c-.68,0-.88.24-1,.86-.85,4-1.75,8.06-2.63,12.08L59,73.19l-1.05,4.72a1.66,1.66,0,0,1-.33-.7Q49.83,44,42.08,10.68c-.15-.62-.39-.79-1-.79-6.38,0-12.76,0-19.14,0H21c.09.36.13.56.19.75L31.65,46.78q6.65,23,13.28,46a.92.92,0,0,0,1.07.81q11.43,0,22.86,0c.72,0,1-.21,1.18-.9Q81.23,52.41,92.46,12.11c.2-.69.37-1.39.57-2.16-.36,0-.61,0-.86,0C86,9.91,79.82,9.92,73.64,9.89Z" transform="translate(0 -0.11)"/><path class="cls-2" d="M250.76,24c.69-4.73,1.35-9.32,2-14H201.53V93.55h51.2V79.39H221.34V57.92H247V44.11H221.32V24Z" transform="translate(0 -0.11)"/><path class="cls-2" d="M294.4,51.28a6.5,6.5,0,0,0,3.89-5.88c.11-3.3-1.13-5.81-4.34-7a12.61,12.61,0,0,0-3.68-.79c-3.26-.14-6.53-.11-9.8-.15a2.06,2.06,0,0,0-.39.08V62.21h5.8V52.77a10.26,10.26,0,0,0,1.37,0,1.25,1.25,0,0,1,1.4.83c1.4,2.72,2.86,5.41,4.33,8.09a1.11,1.11,0,0,0,.77.54c1.87,0,3.74,0,5.62,0a2.42,2.42,0,0,0,.38-.1l-6.19-10.4Zm-4.86-2.63a28.87,28.87,0,0,1-3.61,0v-7.2c1.28.08,2.5.07,3.69.25,1.81.27,2.69,1.45,2.68,3.36S291.39,48.41,289.54,48.65Z" transform="translate(0 -0.11)"/><path class="cls-2" d="M284.23,30.27c.07.25.36.61.55.62,2.28,0,4.56,0,6.88,0,2.29-8.25,4.58-16.46,6.87-24.69h-5.95q-2.19,10-4.37,19.92h-.13c-.06-.21-.14-.42-.19-.63-.52-2.22-1-4.43-1.54-6.65q-1.39-6-2.8-12c-.07-.26-.31-.68-.48-.68-1.92,0-3.83,0-5.8,0l.23.88q1.56,5.39,3.11,10.78C281.81,22,283,26.13,284.23,30.27Z" transform="translate(0 -0.11)"/><path class="cls-2" d="M294.57,73c.21-1.37.4-2.69.61-4.09H280.06V93.56h15.06V89.4h-9.19V83h7.51V78.94h-7.53V73Z" transform="translate(0 -0.11)"/><path class="cls-2" d="M438.7,79.23a4.81,4.81,0,0,0-4.13-4.82,5.7,5.7,0,0,0-5,1.55c-.53.52-1,1.1-1.58,1.72a4.75,4.75,0,0,0-4.86-3.31c-2.29,0-3.92,1.23-5.33,3.16-.09-.88-.14-1.55-.26-2.21,0-.19-.24-.49-.38-.5-.79,0-1.59,0-2.38,0V93.6c.84,0,1.63,0,2.4,0s.82-.17.81-.81c0-4,0-8,0-11.92a1.85,1.85,0,0,1,.22-1A14.63,14.63,0,0,1,419.82,78a3.33,3.33,0,0,1,3.7-.86c1.29.47,1.57,1.66,1.58,2.86,0,4.2,0,8.4.06,12.6v1h3.23V81.43A5.16,5.16,0,0,1,431.88,77a2.6,2.6,0,0,1,3.54,2.35,10.3,10.3,0,0,1,.12,1.66q0,5.82,0,11.62v.93h3.21V89.33C438.75,86,438.79,82.59,438.7,79.23Z" transform="translate(0 -0.11)"/><path class="cls-2" d="M418.77,62.26c.69.05.9-.18.9-.88,0-3.93,0-7.85,0-11.77a1.68,1.68,0,0,1,.09-.82,6.06,6.06,0,0,1,3.72-3.13c2.4-.54,3.83.55,4,3,0,.32,0,.65,0,1V62.2h3.21V59.63c0-3.87,0-7.74,0-11.61a4.85,4.85,0,0,0-4.21-4.91,6.54,6.54,0,0,0-6.15,2.21l-.67.73V35.54l-3.17.36V62.25C417.26,62.25,418,62.2,418.77,62.26Z" transform="translate(0 -0.11)"/><path class="cls-2" d="M373.87,19.51c-1.11,0-2.23,0-3.33.2-3.93.55-6,3-5.63,6.81a5,5,0,0,0,3.7,4.51c3,.8,5.72.25,7.87-2.49a3.8,3.8,0,0,0,3.62,2.78c.08-.21.16-.39.23-.58.17-.52.33-1,.49-1.56-1.38-.94-1.51-1.2-1.52-2.91,0-2.86,0-5.72,0-8.58-.07-3.6-1.91-5.62-5.48-5.9a20.62,20.62,0,0,0-4.36.28,25.88,25.88,0,0,0-3.24.85c.3.88.56,1.6.82,2.37A8.65,8.65,0,0,1,368,15c1.59-.24,3.18-.56,4.78-.65a2.86,2.86,0,0,1,2.82,1.46,6.69,6.69,0,0,1,.43,3.67C375.23,19.51,374.55,19.48,373.87,19.51ZM376,25.75a2.61,2.61,0,0,1-.68,1.3,4.53,4.53,0,0,1-4.9,1.74,2.56,2.56,0,0,1-1.88-1.71,3.72,3.72,0,0,1,2.95-5.25c1.45-.23,2.95-.19,4.55-.28C376,23.08,376.09,24.42,376,25.75Z" transform="translate(0 -0.11)"/><path class="cls-2" d="M378.57,74.43A8,8,0,0,0,370.36,78a12.14,12.14,0,0,0-1.62,6.32c.1.9.15,1.82.3,2.71A7.81,7.81,0,0,0,377,94a7.62,7.62,0,0,0,7.75-5.18,13.36,13.36,0,0,0,.17-8.93A7.4,7.4,0,0,0,378.57,74.43Zm2.87,13.93a4.11,4.11,0,0,1-4.22,3,4.05,4.05,0,0,1-4.3-3,38.21,38.21,0,0,1-.82-4.26A38.15,38.15,0,0,1,373,79.9a4.5,4.5,0,0,1,8.47,0A13.26,13.26,0,0,1,381.44,88.36Z" transform="translate(0 -0.11)"/><path class="cls-2" d="M372.57,60.15a1.69,1.69,0,0,1,.26-.23,3.8,3.8,0,0,0,3.64,2.73c.25-.75.48-1.46.72-2.21a2.43,2.43,0,0,1-1.55-2.64c0-2.86,0-5.72,0-8.58,0-3.26-1.46-5.26-4.16-5.92a10.64,10.64,0,0,0-2.18-.25,17.39,17.39,0,0,0-6.73,1.26c.27.79.53,1.51.8,2.3.37-.1.68-.21,1-.26A33.7,33.7,0,0,1,369,45.7a3,3,0,0,1,3.36,2.88c.06.71,0,1.42,0,2.26-1.23,0-2.39,0-3.55,0A10.14,10.14,0,0,0,364.06,52a5.39,5.39,0,0,0-2.85,5.45,5.08,5.08,0,0,0,3.42,4.83C367,63.12,370.62,62.88,372.57,60.15ZM369.33,60a5.45,5.45,0,0,1-2.09.17c-1.77-.19-2.75-1.61-2.6-3.63a3.3,3.3,0,0,1,2.8-3.31c1.57-.3,3.2-.31,4.93-.47a21.73,21.73,0,0,1-.06,4.38A4,4,0,0,1,369.33,60Z" transform="translate(0 -0.11)"/><path class="cls-2" d="M311.82,62.58A9.67,9.67,0,0,0,317,60.32l-1.36-1.86c-2.46,1.45-5,2.43-7.61.8-1.88-1.16-2.24-3.15-2.4-5.3h11.94a13.81,13.81,0,0,0-.44-5.78,6.81,6.81,0,0,0-6.12-5.1c-3.61-.25-6.1,1.11-7.59,4.12a13.92,13.92,0,0,0-1.12,7.92,9.1,9.1,0,0,0,1.62,4.43C305.86,62.29,308.67,63,311.82,62.58Zm-4.46-16a3.91,3.91,0,0,1,4.19-.71,4.35,4.35,0,0,1,1.89,1.4,6.69,6.69,0,0,1,1,4.31h-8.87C305.7,49.68,306,47.9,307.36,46.55Z" transform="translate(0 -0.11)"/><path class="cls-2" d="M347,59.3c-2-1.15-2.29-3.18-2.49-5.32h12a13,13,0,0,0-.33-5.37c-.75-2.72-2.32-4.73-5.21-5.35s-5.64-.07-7.65,2.42a9.62,9.62,0,0,0-1.9,4.17,14.8,14.8,0,0,0,.06,6.62c1.09,4.42,4.5,6.75,9.39,6.1a9.9,9.9,0,0,0,5.06-2.25l-1.37-1.86C352.14,59.91,349.67,60.87,347,59.3Zm-.8-12.67a4.22,4.22,0,0,1,6.41.94,7.49,7.49,0,0,1,.76,4h-8.85C344.69,49.72,344.91,48,346.24,46.63Z" transform="translate(0 -0.11)"/><path class="cls-2" d="M454.41,74.41a7.18,7.18,0,0,0-7.8,4.37,14,14,0,0,0-1,7.65c.48,4.6,3.51,7.47,8,7.57a10.17,10.17,0,0,0,6.69-2.33l-1.38-1.9c-2.08,1.34-4.24,2.11-6.65,1.31-2.06-.68-3.37-3-3.3-5.8h11.9a12.94,12.94,0,0,0-.15-4.65C460.06,77.06,457.77,74.82,454.41,74.41Zm-5.69,8.43a29.49,29.49,0,0,1,1.12-3.78,3.56,3.56,0,0,1,3.75-2.14,3.62,3.62,0,0,1,3.58,2.33,27.83,27.83,0,0,1,.83,3.59Z" transform="translate(0 -0.11)"/><path class="cls-2" d="M401.72,74.37A6.76,6.76,0,0,0,396,76.94l-.51.55c-.08-.82-.12-1.47-.23-2.11,0-.21-.26-.54-.42-.56-.77,0-1.55,0-2.37,0V93.6c.81,0,1.59,0,2.37,0s.86-.18.85-.85c0-4,0-7.9,0-11.85a1.65,1.65,0,0,1,.09-.81A6.17,6.17,0,0,1,399.42,77c2.34-.58,3.82.47,4.05,2.86,0,.35,0,.71,0,1.06,0,3.9,0,7.8,0,11.7v.94h3.12a1,1,0,0,0,.08-.21c0-4.78.07-9.57-.07-14.35A4.81,4.81,0,0,0,401.72,74.37Z" transform="translate(0 -0.11)"/><path class="cls-2" d="M482,79.37c-.22-2.5-1.54-4.28-3.64-4.79a6.52,6.52,0,0,0-5.93,1.25c-.57.45-1.09,1-1.65,1.46-.09-.76-.2-1.59-.31-2.46h-2.67V93.56h3.15V80.93a1.49,1.49,0,0,1,.07-.74c.93-1.51,2-2.88,3.91-3.23,2.37-.45,3.68.62,3.82,3,0,.41,0,.81,0,1.22V92.67c0,.3,0,.59.05.87H482V80.35C482,80,482,79.69,482,79.37Z" transform="translate(0 -0.11)"/><path class="cls-2" d="M314.19,74.6a6.33,6.33,0,0,0-5.44.84,27,27,0,0,0-2.2,1.91c-.1-.82-.21-1.65-.31-2.5h-2.68V93.56h3.15v-.94q0-5.84,0-11.69a1.5,1.5,0,0,1,.06-.74c.94-1.52,2-2.88,3.91-3.23,2.37-.45,3.69.62,3.82,3,0,.38,0,.76,0,1.13V92.68c0,.29,0,.58,0,.89h3.18c0-4.77.07-9.45,0-14.13A4.81,4.81,0,0,0,314.19,74.6Z" transform="translate(0 -0.11)"/><path class="cls-2" d="M347.77,31.14a6.52,6.52,0,0,0,7-2.36l.56-.74c.11,1.06.2,1.95.3,2.83h2.66V12.15h-3.14V24.86a1.67,1.67,0,0,1-.12.81,5.85,5.85,0,0,1-3.25,2.92c-1.93.59-4.26.34-4.28-2.79,0-4.23,0-8.45-.06-12.68,0-.32,0-.64,0-1h-3.15c0,4.84-.07,9.59,0,14.35A4.66,4.66,0,0,0,347.77,31.14Z" transform="translate(0 -0.11)"/><path class="cls-2" d="M334.12,61.28a5.06,5.06,0,0,0,.05-8.45,20.27,20.27,0,0,0-3.53-1.54c-1-.38-2-.62-3-1a2.21,2.21,0,0,1-1.55-2.35,2.31,2.31,0,0,1,2-2.13,7.14,7.14,0,0,1,4.81.52c.54.25,1.07.55,1.63.84l1.31-1.94c-2.65-2.42-7.8-2.89-10.73-1a4.66,4.66,0,0,0,.18,8.25,19.51,19.51,0,0,0,2.8,1.13,30.61,30.61,0,0,1,3.55,1.29,2.61,2.61,0,0,1,0,4.63,6,6,0,0,1-3.76.57,9,9,0,0,1-4.25-1.74l-1.66,1.9a8.4,8.4,0,0,0,4.45,2.23A10.16,10.16,0,0,0,334.12,61.28Z" transform="translate(0 -0.11)"/><path class="cls-2" d="M336.55,74.78a.69.69,0,0,0-.79.59c-.59,2-1.22,4-1.83,6l-2.79,9-.2,0-1-3.14c-1.22-3.93-2.43-7.87-3.66-11.79-.09-.27-.33-.67-.53-.68-1-.07-2.06,0-3.13,0a5.26,5.26,0,0,0,.11.53q3.06,8.86,6.13,17.75a.66.66,0,0,0,.76.53c.86,0,1.72,0,2.58,0a.86.86,0,0,0,1-.72c1.94-5.79,3.91-11.57,5.87-17.36.08-.22.13-.45.21-.75C338.32,74.79,337.44,74.82,336.55,74.78Z" transform="translate(0 -0.11)"/><path class="cls-2" d="M337.2,28.45c-2.32.76-3.59-.14-3.6-2.58,0-3,0-6,0-9V14.61h4.11c.11-.84.23-1.63.35-2.51h-4.46V7.47l-3.26.39v4.26h-3.21v2.5h3.22v1c0,3.8,0,7.59.1,11.38a4.26,4.26,0,0,0,1.64,3.3c1.85,1.48,5.65,1.32,7.47-.33l-1.17-2C337.94,28.16,337.58,28.33,337.2,28.45Z" transform="translate(0 -0.11)"/><path class="cls-2" d="M498.3,90.65c-.52.2-.94.4-1.37.52-2.17.64-3.33-.21-3.4-2.46,0-.15,0-.3,0-.45V78.08c0-.25,0-.49,0-.83h4.06c.12-.85.23-1.61.35-2.48h-4.48V70.13c-.93.11-1.75.24-2.58.29-.53,0-.68.23-.66.75,0,1.18,0,2.36,0,3.62-1,0-1.81,0-2.67,0-.21,0-.56.22-.58.36-.06.67,0,1.34,0,2.07h3.27v1c0,3.52,0,7,0,10.55a4.91,4.91,0,0,0,2.1,4.47,6.77,6.77,0,0,0,7.1-.58Z" transform="translate(0 -0.11)"/><path class="cls-2" d="M406.65,59.69c-2.72.86-5.14-.21-6-2.75a12.48,12.48,0,0,1,.08-8.27,4.19,4.19,0,0,1,5-2.9,26.57,26.57,0,0,1,3.39,1.1l1.37-1.8a8.16,8.16,0,0,0-12.64,2.18,13.18,13.18,0,0,0-1.15,7.62c.48,4.52,3.28,8.15,8.8,7.78a8.64,8.64,0,0,0,5-2l-1.41-2A22.88,22.88,0,0,1,406.65,59.69Z" transform="translate(0 -0.11)"/><path class="cls-2" d="M387,27a6.92,6.92,0,0,0,0,.91A3.5,3.5,0,0,0,389.13,31a4.86,4.86,0,0,0,4.29-.33l-.82-2.15c-2.09.36-2.42.07-2.43-2V4.15l-3.23.37v.74Q386.94,16.11,387,27Z" transform="translate(0 -0.11)"/><path class="cls-2" d="M393.8,43.26a5.82,5.82,0,0,0-3.31,0c-1.83.6-2.75,2.1-3.58,3.74-.11-1.16-.21-2.31-.33-3.58-.67,0-1.28,0-1.88,0s-.91.14-.91.87c0,5.69,0,11.39,0,17.08,0,.27,0,.54.05.81h3.2V61.3c0-3,0-5.92,0-8.88a8.34,8.34,0,0,1,1.38-4.5,3.44,3.44,0,0,1,3.33-1.71c.48,0,1,.08,1.47.13C393.42,45.3,393.61,44.3,393.8,43.26Z" transform="translate(0 -0.11)"/><path class="cls-2" d="M324.37,14.91l.57-3c-3.44-.81-5.53.7-6.91,3.68-.11-1.16-.22-2.31-.32-3.44H315V30.88h3.2v-1c0-3,0-6.07,0-9.1a7.88,7.88,0,0,1,1.61-4.57,3.07,3.07,0,0,1,2.3-1.33C322.83,14.87,323.56,14.91,324.37,14.91Z" transform="translate(0 -0.11)"/><path class="cls-2" d="M362.64,74.62c-1.79.62-2.69,2.1-3.52,3.71l-.34-3.54c-.66,0-1.24,0-1.82,0s-.95.16-.94.91c0,5.66,0,11.33,0,17v.86h3.24V92.7c0-3,0-6,0-9a8.42,8.42,0,0,1,1.43-4.56,3.42,3.42,0,0,1,3.14-1.65c.52,0,1,.08,1.61.13.19-1,.38-2,.57-3.08A5.85,5.85,0,0,0,362.64,74.62Z" transform="translate(0 -0.11)"/><path class="cls-2" d="M347.8,75.74a1.33,1.33,0,0,0,0-.53c-.08-.16-.26-.39-.4-.39-.91,0-1.81,0-2.76,0V93.6c.78,0,1.51,0,2.23,0s1-.21,1-1C347.79,87,347.8,81.37,347.8,75.74Z" transform="translate(0 -0.11)"/><path class="cls-2" d="M303.57,30.87h3.08V12.15h-3.08Z" transform="translate(0 -0.11)"/><path class="cls-2" d="M305.05,7.48a2.15,2.15,0,0,0,2.29-2.2,2.12,2.12,0,0,0-2.27-2.2,2.2,2.2,0,1,0,0,4.4Z" transform="translate(0 -0.11)"/><path class="cls-2" d="M346.13,65.72A2.16,2.16,0,0,0,343.91,68a2.08,2.08,0,0,0,2.26,2.12,2.14,2.14,0,0,0,2.28-2.2A2.2,2.2,0,0,0,346.13,65.72Z" transform="translate(0 -0.11)"/></svg>