<svg id="Layer_1" data-name="Layer 1" xmlns="http://www.w3.org/2000/svg" viewBox="0 0 500 194.86"><defs><style>.cls-1{fill:#bfd6e5;}.cls-2{fill:#103362;}</style></defs><rect class="cls-1" width="61.71" height="194.86"/><path class="cls-2" d="M316.13,113.49c3.93-2.28,8-4.33,11.74-6.92,8.71-6,14.57-14.16,16.85-24.66a61.1,61.1,0,0,0,.54-22.23C343,44.7,335.08,33.86,321.4,27.3c-11.46-5.49-23.74-7.51-36.27-7.72-19.92-.33-39.85-.15-59.78-.23-1.43,0-1.6.56-1.6,1.76q0,81,0,162.08c0,1.35.34,1.77,1.75,1.77,11.92-.06,23.84,0,35.75,0,.53,0,1.05-.06,1.73-.09V121.57c4.57,0,9,.08,13.38,0a2.71,2.71,0,0,1,2.85,1.74q16.05,30.12,32.18,60.2a2.37,2.37,0,0,0,2.4,1.49c13.57-.05,27.14,0,40.71,0,.48,0,1,0,1.74-.08-14.08-23.62-28-47-42-70.41C315,114.06,315.58,113.81,316.13,113.49ZM304.92,77.94c-1.87,8.81-7.49,13.88-16.12,15.73a42.06,42.06,0,0,1-7.58.9c-5.7.14-11.41.06-17.12.06-.34,0-.68,0-1.12,0V46.93c6.39,0,12.69-.12,19,0a33.32,33.32,0,0,1,11.82,2.5c6.84,2.8,10.53,8,11.57,15.19A37.52,37.52,0,0,1,304.92,77.94Z"/><path class="cls-2" d="M145.66,19.34c-1.35,0-1.75.47-2,1.71-1.68,8-3.46,15.93-5.2,23.89l-21.84,99.62c-.68,3.11-1.38,6.22-2.08,9.33a3.31,3.31,0,0,1-.63-1.39Q98.54,86.71,83.23,20.91c-.29-1.23-.78-1.56-2-1.56q-18.93,0-37.85,0H41.59c.17.72.25,1.12.36,1.5Q52.27,56.56,62.6,92.3q13.16,45.51,26.27,91A1.82,1.82,0,0,0,91,185q22.61-.08,45.22,0c1.43,0,1.95-.42,2.32-1.78q22.14-79.73,44.36-159.45c.38-1.37.72-2.75,1.12-4.27-.71,0-1.2-.08-1.7-.08C170.1,19.38,157.88,19.4,145.66,19.34Z"/><path class="cls-2" d="M496,47.15c1.36-9.35,2.68-18.44,4-27.62H398.62V184.82H499.9v-28H437.79V114.34h50.69V87H437.77V47.15Z"/></svg>