<svg id="Layer_1" data-name="Layer 1" xmlns="http://www.w3.org/2000/svg" viewBox="0 0 100 38.97"><defs><style>.cls-1{fill:#bfd7f4;}.cls-2{fill:#003262;}</style></defs><rect class="cls-1" width="12.34" height="38.97"/><path class="cls-2" d="M63.23,22.7c.78-.46,1.6-.87,2.34-1.39a7.81,7.81,0,0,0,3.37-4.93,12.06,12.06,0,0,0,.11-4.44,8.12,8.12,0,0,0-4.77-6.48A17.15,17.15,0,0,0,57,3.92c-4-.07-8,0-12,0-.29,0-.32.11-.32.35V36.64c0,.27.07.35.35.35h7.49V24.31c.92,0,1.8,0,2.68,0a.54.54,0,0,1,.57.34q3.21,6,6.44,12a.47.47,0,0,0,.48.3h8.49c-2.82-4.73-5.61-9.39-8.4-14.08ZM61,15.59a3.83,3.83,0,0,1-3.22,3.14,7.79,7.79,0,0,1-1.52.18c-1.14,0-2.28,0-3.42,0H52.6V9.39c1.27,0,2.53,0,3.79,0a6.71,6.71,0,0,1,2.37.5,3.63,3.63,0,0,1,2.31,3A7.44,7.44,0,0,1,61,15.59Z"/><path class="cls-2" d="M29.13,3.87c-.27,0-.35.09-.4.34C28.39,5.8,28,7.4,27.69,9Q25.5,19,23.32,28.91c-.13.62-.27,1.25-.41,1.87a.64.64,0,0,1-.13-.28Q19.7,17.35,16.65,4.18a.34.34,0,0,0-.4-.31H8.32c0,.15,0,.23.07.3l4.13,14.3q2.63,9.11,5.25,18.21c.07.25.17.32.43.32,3,0,6,0,9,0a.4.4,0,0,0,.47-.35Q32.14,20.7,36.58,4.75l.22-.86H29.13Z"/><path class="cls-2" d="M99.2,9.43l.8-5.52H79.72V37H100v-5.6H87.56V22.87H97.7V17.4H87.55v-8Z"/></svg>